IntelOneMono-Bold.ufo
<glyph name="exclam" format="2">
  <advance width="614"/>
  <unicode hex="0021"/>
  <outline>
    <contour>
      <point x="258" y="277" type="line"/>
      <point x="356" y="277" type="line"/>
      <point x="440" y="710" type="line"/>
      <point x="175" y="710" type="line"/>
    </contour>
    <contour>
      <point x="299" y="-15" type="curve" smooth="yes"/>
      <point x="386" y="-15"/>
      <point x="421" y="13"/>
      <point x="421" y="73" type="curve" smooth="yes"/>
      <point x="421" y="132"/>
      <point x="394" y="161"/>
      <point x="301" y="161" type="curve" smooth="yes"/>
      <point x="208" y="161"/>
      <point x="179" y="128"/>
      <point x="179" y="73" type="curve" smooth="yes"/>
      <point x="179" y="14"/>
      <point x="209" y="-15"/>
    </contour>
  </outline>
</glyph>
<glyph name="dollar" format="2">
  <advance width="614"/>
  <unicode hex="0024"/>
  <outline>
    <contour>
      <point x="298" y="119" type="curve" smooth="yes"/>
      <point x="243" y="119"/>
      <point x="174" y="134"/>
      <point x="80" y="162" type="curve"/>
      <point x="54" y="41" type="line"/>
      <point x="132" y="18"/>
      <point x="200" y="4"/>
      <point x="266" y="1" type="curve"/>
      <point x="266" y="-142" type="line"/>
      <point x="357" y="-142" type="line"/>
      <point x="357" y="4" type="line"/>
      <point x="484" y="22"/>
      <point x="547" y="97"/>
      <point x="547" y="193" type="curve" smooth="yes"/>
      <point x="547" y="297"/>
      <point x="502" y="346"/>
      <point x="385" y="380" type="curve" smooth="yes"/>
      <point x="319" y="399" type="line" smooth="yes"/>
      <point x="233" y="424"/>
      <point x="219" y="445"/>
      <point x="219" y="482" type="curve" smooth="yes"/>
      <point x="219" y="515"/>
      <point x="244" y="536"/>
      <point x="315" y="536" type="curve" smooth="yes"/>
      <point x="362" y="536"/>
      <point x="424" y="526"/>
      <point x="505" y="509" type="curve"/>
      <point x="521" y="630" type="line"/>
      <point x="463" y="642"/>
      <point x="414" y="651"/>
      <point x="357" y="654" type="curve"/>
      <point x="357" y="796" type="line"/>
      <point x="266" y="796" type="line"/>
      <point x="266" y="652" type="line"/>
      <point x="141" y="635"/>
      <point x="75" y="559"/>
      <point x="75" y="470" type="curve" smooth="yes"/>
      <point x="75" y="373"/>
      <point x="123" y="318"/>
      <point x="236" y="283" type="curve" smooth="yes"/>
      <point x="298" y="263" type="line" smooth="yes"/>
      <point x="388" y="234"/>
      <point x="402" y="220"/>
      <point x="402" y="183" type="curve" smooth="yes"/>
      <point x="402" y="143"/>
      <point x="376" y="119"/>
    </contour>
  </outline>
</glyph>
<glyph name="ampersand" format="2">
  <advance width="614"/>
  <unicode hex="0026"/>
  <outline>
    <contour>
      <point x="478" y="655" type="line"/>
      <point x="408" y="666"/>
      <point x="362" y="669"/>
      <point x="331" y="669" type="curve" smooth="yes"/>
      <point x="210" y="669"/>
      <point x="138" y="595"/>
      <point x="138" y="506" type="curve" smooth="yes"/>
      <point x="138" y="459"/>
      <point x="152" y="420"/>
      <point x="189" y="365" type="curve" smooth="yes"/>
      <point x="191" y="362" type="line"/>
      <point x="75" y="322"/>
      <point x="44" y="269"/>
      <point x="44" y="171" type="curve" smooth="yes"/>
      <point x="44" y="52"/>
      <point x="115" y="-14"/>
      <point x="224" y="-14" type="curve" smooth="yes"/>
      <point x="301" y="-14"/>
      <point x="343" y="7"/>
      <point x="391" y="69" type="curve"/>
      <point x="434" y="-1" type="line"/>
      <point x="583" y="-1" type="line"/>
      <point x="468" y="178" type="line"/>
      <point x="572" y="373" type="line"/>
      <point x="467" y="416" type="line"/>
      <point x="398" y="276" type="line"/>
      <point x="293" y="439" type="line" smooth="yes"/>
      <point x="273" y="470"/>
      <point x="268" y="487"/>
      <point x="268" y="505" type="curve" smooth="yes"/>
      <point x="268" y="539"/>
      <point x="295" y="559"/>
      <point x="343" y="559" type="curve" smooth="yes"/>
      <point x="372" y="559"/>
      <point x="406" y="556"/>
      <point x="465" y="548" type="curve"/>
    </contour>
    <contour>
      <point x="174" y="188" type="curve" smooth="yes"/>
      <point x="174" y="233"/>
      <point x="182" y="258"/>
      <point x="245" y="279" type="curve"/>
      <point x="330" y="151" type="line"/>
      <point x="304" y="111"/>
      <point x="281" y="105"/>
      <point x="248" y="105" type="curve" smooth="yes"/>
      <point x="202" y="105"/>
      <point x="174" y="130"/>
    </contour>
  </outline>
</glyph>
<glyph name="parenright" format="2">
  <advance width="614"/>
  <unicode hex="0029"/>
  <outline>
    <contour>
      <point x="516" y="332" type="curve" smooth="yes"/>
      <point x="516" y="509"/>
      <point x="390" y="673"/>
      <point x="138" y="809" type="curve"/>
      <point x="59" y="718" type="line"/>
      <point x="299" y="592"/>
      <point x="369" y="466"/>
      <point x="369" y="329" type="curve" smooth="yes"/>
      <point x="369" y="192"/>
      <point x="299" y="66"/>
      <point x="59" y="-60" type="curve"/>
      <point x="138" y="-151" type="line"/>
      <point x="391" y="-15"/>
      <point x="516" y="153"/>
    </contour>
  </outline>
</glyph>
<glyph name="asterisk" format="2">
  <advance width="614"/>
  <unicode hex="002A"/>
  <guideline x="270" y="334" angle="332.30769230769226" identifier="YkQCsAMSsB"/>
  <outline>
    <contour>
      <point x="103" y="233" type="curve"/>
      <point x="196" y="153" type="line"/>
      <point x="239" y="202"/>
      <point x="253" y="277"/>
      <point x="308" y="345" type="curve"/>
      <point x="363" y="277"/>
      <point x="378" y="202"/>
      <point x="421" y="153" type="curve"/>
      <point x="514" y="233" type="line"/>
      <point x="472" y="283"/>
      <point x="402" y="307"/>
      <point x="341" y="372" type="curve"/>
      <point x="424" y="397"/>
      <point x="499" y="383"/>
      <point x="560" y="404" type="curve"/>
      <point x="518" y="521" type="line"/>
      <point x="457" y="500"/>
      <point x="410" y="445"/>
      <point x="329" y="412" type="curve"/>
      <point x="333" y="499"/>
      <point x="370" y="565"/>
      <point x="370" y="630" type="curve"/>
      <point x="246" y="630" type="line"/>
      <point x="246" y="565"/>
      <point x="283" y="501"/>
      <point x="287" y="412" type="curve"/>
      <point x="206" y="445"/>
      <point x="159" y="500"/>
      <point x="98" y="521" type="curve"/>
      <point x="57" y="404" type="line"/>
      <point x="118" y="383"/>
      <point x="192" y="397"/>
      <point x="276" y="372" type="curve"/>
      <point x="215" y="307"/>
      <point x="145" y="283"/>
    </contour>
  </outline>
</glyph>
<glyph name="period" format="2">
  <advance width="614"/>
  <unicode hex="002E"/>
  <outline>
    <contour>
      <point x="306" y="-15" type="curve" smooth="yes"/>
      <point x="385" y="-15"/>
      <point x="430" y="22"/>
      <point x="430" y="94" type="curve" smooth="yes"/>
      <point x="430" y="168"/>
      <point x="391" y="202"/>
      <point x="307" y="202" type="curve" smooth="yes"/>
      <point x="226" y="202"/>
      <point x="184" y="160"/>
      <point x="184" y="93" type="curve" smooth="yes"/>
      <point x="184" y="21"/>
      <point x="225" y="-15"/>
    </contour>
  </outline>
</glyph>
<glyph name="zero" format="2">
  <advance width="614"/>
  <unicode hex="0030"/>
  <outline>
    <contour>
      <point x="550" y="328" type="curve" smooth="yes"/>
      <point x="550" y="564"/>
      <point x="466" y="670"/>
      <point x="309" y="670" type="curve" smooth="yes"/>
      <point x="150" y="670"/>
      <point x="64" y="561"/>
      <point x="64" y="326" type="curve" smooth="yes"/>
      <point x="64" y="90"/>
      <point x="148" y="-15"/>
      <point x="305" y="-15" type="curve" smooth="yes"/>
      <point x="464" y="-15"/>
      <point x="550" y="93"/>
    </contour>
    <contour>
      <point x="200" y="328" type="curve" smooth="yes"/>
      <point x="200" y="497"/>
      <point x="230" y="544"/>
      <point x="307" y="544" type="curve" smooth="yes"/>
      <point x="355" y="544"/>
      <point x="385" y="525"/>
      <point x="400" y="469" type="curve"/>
      <point x="201" y="286" type="line"/>
      <point x="200" y="299"/>
      <point x="200" y="313"/>
    </contour>
    <contour>
      <point x="414" y="326" type="curve" smooth="yes"/>
      <point x="414" y="157"/>
      <point x="384" y="110"/>
      <point x="307" y="110" type="curve" smooth="yes"/>
      <point x="260" y="110"/>
      <point x="230" y="129"/>
      <point x="214" y="184" type="curve"/>
      <point x="413" y="367" type="line"/>
      <point x="414" y="354"/>
      <point x="414" y="341"/>
    </contour>
  </outline>
</glyph>
<glyph name="three" format="2">
  <advance width="614"/>
  <unicode hex="0033"/>
  <outline>
    <contour>
      <point x="70" y="535" type="line"/>
      <point x="340" y="535" type="line"/>
      <point x="340" y="532" type="line"/>
      <point x="164" y="354" type="line"/>
      <point x="194" y="278" type="line"/>
      <point x="242" y="287"/>
      <point x="276" y="290"/>
      <point x="302" y="290" type="curve" smooth="yes"/>
      <point x="370" y="290"/>
      <point x="401" y="265"/>
      <point x="401" y="225" type="curve" smooth="yes"/>
      <point x="401" y="173"/>
      <point x="351" y="143"/>
      <point x="199" y="131" type="curve" smooth="yes"/>
      <point x="76" y="122" type="line"/>
      <point x="89" y="-10" type="line"/>
      <point x="214" y="-2" type="line" smooth="yes"/>
      <point x="455" y="14"/>
      <point x="548" y="98"/>
      <point x="548" y="223" type="curve" smooth="yes"/>
      <point x="548" y="301"/>
      <point x="493" y="385"/>
      <point x="362" y="395" type="curve"/>
      <point x="362" y="398" type="line"/>
      <point x="518" y="559" type="line"/>
      <point x="518" y="655" type="line"/>
      <point x="70" y="655" type="line"/>
    </contour>
  </outline>
</glyph>
<glyph name="six" format="2">
  <advance width="614"/>
  <unicode hex="0036"/>
  <outline>
    <contour>
      <point x="554" y="216" type="curve" smooth="yes"/>
      <point x="554" y="359"/>
      <point x="477" y="436"/>
      <point x="341" y="436" type="curve" smooth="yes"/>
      <point x="322" y="436"/>
      <point x="300" y="434"/>
      <point x="277" y="429" type="curve"/>
      <point x="300" y="461"/>
      <point x="328" y="493"/>
      <point x="362" y="525" type="curve" smooth="yes"/>
      <point x="500" y="653" type="line"/>
      <point x="499" y="655" type="line"/>
      <point x="314" y="655" type="line"/>
      <point x="237" y="577" type="line" smooth="yes"/>
      <point x="112" y="451"/>
      <point x="61" y="347"/>
      <point x="61" y="223" type="curve" smooth="yes"/>
      <point x="61" y="90"/>
      <point x="144" y="-15"/>
      <point x="300" y="-15" type="curve" smooth="yes"/>
      <point x="450" y="-15"/>
      <point x="554" y="78"/>
    </contour>
    <contour>
      <point x="206" y="227" type="curve" smooth="yes"/>
      <point x="206" y="260"/>
      <point x="212" y="295"/>
      <point x="226" y="331" type="curve"/>
      <point x="250" y="337"/>
      <point x="273" y="339"/>
      <point x="298" y="339" type="curve" smooth="yes"/>
      <point x="368" y="339"/>
      <point x="407" y="300"/>
      <point x="407" y="218" type="curve" smooth="yes"/>
      <point x="407" y="142"/>
      <point x="366" y="102"/>
      <point x="302" y="102" type="curve" smooth="yes"/>
      <point x="245" y="102"/>
      <point x="206" y="149"/>
    </contour>
  </outline>
</glyph>
<glyph name="nine" format="2">
  <advance width="614"/>
  <unicode hex="0039"/>
  <outline>
    <contour>
      <point x="377" y="78" type="line" smooth="yes"/>
      <point x="502" y="204"/>
      <point x="553" y="308"/>
      <point x="553" y="432" type="curve" smooth="yes"/>
      <point x="553" y="565"/>
      <point x="470" y="670"/>
      <point x="314" y="670" type="curve" smooth="yes"/>
      <point x="164" y="670"/>
      <point x="60" y="577"/>
      <point x="60" y="439" type="curve" smooth="yes"/>
      <point x="60" y="296"/>
      <point x="137" y="219"/>
      <point x="273" y="219" type="curve" smooth="yes"/>
      <point x="292" y="219"/>
      <point x="314" y="221"/>
      <point x="337" y="226" type="curve"/>
      <point x="314" y="194"/>
      <point x="286" y="162"/>
      <point x="252" y="130" type="curve" smooth="yes"/>
      <point x="114" y="2" type="line"/>
      <point x="115" y="0" type="line"/>
      <point x="300" y="0" type="line"/>
    </contour>
    <contour>
      <point x="408" y="428" type="curve" smooth="yes"/>
      <point x="408" y="395"/>
      <point x="402" y="360"/>
      <point x="388" y="324" type="curve"/>
      <point x="364" y="318"/>
      <point x="341" y="316"/>
      <point x="316" y="316" type="curve" smooth="yes"/>
      <point x="246" y="316"/>
      <point x="207" y="355"/>
      <point x="207" y="437" type="curve" smooth="yes"/>
      <point x="207" y="513"/>
      <point x="248" y="553"/>
      <point x="312" y="553" type="curve" smooth="yes"/>
      <point x="369" y="553"/>
      <point x="408" y="506"/>
    </contour>
  </outline>
</glyph>
<glyph name="at" format="2">
  <advance width="614"/>
  <unicode hex="0040"/>
  <outline>
    <contour>
      <point x="492" y="-60" type="curve"/>
      <point x="481" y="-8" type="line"/>
      <point x="424" y="-21"/>
      <point x="381" y="-24"/>
      <point x="346" y="-24" type="curve" smooth="yes"/>
      <point x="195" y="-24"/>
      <point x="120" y="59"/>
      <point x="120" y="320" type="curve" smooth="yes"/>
      <point x="120" y="595"/>
      <point x="199" y="670"/>
      <point x="328" y="670" type="curve" smooth="yes"/>
      <point x="424" y="670"/>
      <point x="474" y="648"/>
      <point x="492" y="515" type="curve"/>
      <point x="401" y="515" type="line" smooth="yes"/>
      <point x="270" y="515"/>
      <point x="204" y="461"/>
      <point x="204" y="323" type="curve" smooth="yes"/>
      <point x="204" y="188"/>
      <point x="258" y="129"/>
      <point x="374" y="129" type="curve" smooth="yes"/>
      <point x="494" y="129"/>
      <point x="560" y="179"/>
      <point x="560" y="358" type="curve" smooth="yes"/>
      <point x="560" y="661"/>
      <point x="484" y="725"/>
      <point x="334" y="725" type="curve" smooth="yes"/>
      <point x="165" y="725"/>
      <point x="60" y="627"/>
      <point x="60" y="315" type="curve" smooth="yes"/>
      <point x="60" y="24"/>
      <point x="152" y="-79"/>
      <point x="341" y="-79" type="curve" smooth="yes"/>
      <point x="390" y="-79"/>
      <point x="432" y="-73"/>
    </contour>
    <contour>
      <point x="299" y="322" type="curve" smooth="yes"/>
      <point x="299" y="401"/>
      <point x="328" y="429"/>
      <point x="399" y="429" type="curve" smooth="yes"/>
      <point x="499" y="429" type="line"/>
      <point x="500" y="407"/>
      <point x="500" y="382"/>
      <point x="500" y="356" type="curve" smooth="yes"/>
      <point x="500" y="242"/>
      <point x="467" y="215"/>
      <point x="378" y="215" type="curve" smooth="yes"/>
      <point x="327" y="215"/>
      <point x="299" y="243"/>
    </contour>
  </outline>
</glyph>
<glyph name="A" format="2">
  <advance width="614"/>
  <unicode hex="0041"/>
  <anchor x="298" y="691" name="aboveUC"/>
  <anchor x="298" y="651" name="aboveUCx"/>
  <anchor x="487" y="-10" name="belowogonek"/>
  <anchor x="298" y="-35" name="below"/>
  <anchor x="298" y="0" name="belowx"/>
  <outline>
    <contour>
      <point x="171" y="0" type="line"/>
      <point x="207" y="126" type="line"/>
      <point x="399" y="126" type="line"/>
      <point x="435" y="0" type="line"/>
      <point x="586" y="0" type="line"/>
      <point x="396" y="655" type="line"/>
      <point x="216" y="655" type="line"/>
      <point x="28" y="0" type="line"/>
    </contour>
    <contour>
      <point x="236" y="239" type="line"/>
      <point x="303" y="500" type="line"/>
      <point x="370" y="239" type="line"/>
    </contour>
  </outline>
</glyph>
<glyph name="D" format="2">
  <advance width="614"/>
  <unicode hex="0044"/>
  <anchor x="282" y="691" name="aboveUC"/>
  <anchor x="283" y="-35" name="below"/>
  <outline>
    <contour>
      <point x="75" y="655" type="line"/>
      <point x="75" y="0" type="line"/>
      <point x="179" y="0" type="line" smooth="yes"/>
      <point x="457" y="0"/>
      <point x="568" y="139"/>
      <point x="568" y="333" type="curve" smooth="yes"/>
      <point x="568" y="533"/>
      <point x="449" y="655"/>
      <point x="199" y="655" type="curve" smooth="yes"/>
    </contour>
    <contour>
      <point x="247" y="533" type="line" smooth="yes"/>
      <point x="353" y="526"/>
      <point x="421" y="470"/>
      <point x="421" y="331" type="curve" smooth="yes"/>
      <point x="421" y="189"/>
      <point x="360" y="132"/>
      <point x="230" y="122" type="curve" smooth="yes"/>
      <point x="219" y="121" type="line"/>
      <point x="219" y="535" type="line"/>
    </contour>
  </outline>
</glyph>
<glyph name="G" format="2">
  <advance width="614"/>
  <unicode hex="0047"/>
  <anchor x="331" y="691" name="aboveUC"/>
  <anchor x="331" y="656" name="aboveUCx"/>
  <anchor x="338" y="-40" name="below"/>
  <outline>
    <contour>
      <point x="497" y="536" type="curve"/>
      <point x="509" y="655" type="line"/>
      <point x="464" y="662"/>
      <point x="439" y="665"/>
      <point x="401" y="665" type="curve" smooth="yes"/>
      <point x="170" y="665"/>
      <point x="49" y="533"/>
      <point x="49" y="323" type="curve" smooth="yes"/>
      <point x="49" y="91"/>
      <point x="161" y="-15"/>
      <point x="360" y="-15" type="curve" smooth="yes"/>
      <point x="426" y="-15"/>
      <point x="494" y="-4"/>
      <point x="559" y="13" type="curve"/>
      <point x="559" y="374" type="line"/>
      <point x="309" y="374" type="line"/>
      <point x="309" y="263" type="line"/>
      <point x="423" y="263" type="line"/>
      <point x="423" y="110" type="line"/>
      <point x="406" y="107"/>
      <point x="392" y="105"/>
      <point x="377" y="105" type="curve" smooth="yes"/>
      <point x="249" y="105"/>
      <point x="197" y="166"/>
      <point x="197" y="328" type="curve" smooth="yes"/>
      <point x="197" y="476"/>
      <point x="271" y="543"/>
      <point x="413" y="543" type="curve" smooth="yes"/>
      <point x="440" y="543"/>
      <point x="462" y="541"/>
    </contour>
  </outline>
</glyph>
<glyph name="L" format="2">
  <advance width="614"/>
  <unicode hex="004C"/>
  <anchor x="164" y="691" name="aboveUC"/>
  <anchor x="320" y="-35" name="below"/>
  <anchor x="358" y="655" name="topright"/>
  <outline>
    <contour>
      <point x="87" y="655" type="line"/>
      <point x="87" y="0" type="line"/>
      <point x="553" y="0" type="line"/>
      <point x="553" y="119" type="line"/>
      <point x="232" y="119" type="line"/>
      <point x="232" y="655" type="line"/>
    </contour>
  </outline>
</glyph>
<glyph name="O" format="2">
  <advance width="614"/>
  <unicode hex="004F"/>
  <anchor x="309" y="696" name="aboveUC"/>
  <anchor x="309" y="661" name="aboveUCx"/>
  <anchor x="310" y="-40" name="below"/>
  <anchor x="320" y="-15" name="belowogonek"/>
  <outline>
    <contour>
      <point x="564" y="328" type="curve" smooth="yes"/>
      <point x="564" y="564"/>
      <point x="467" y="670"/>
      <point x="309" y="670" type="curve" smooth="yes"/>
      <point x="149" y="670"/>
      <point x="50" y="561"/>
      <point x="50" y="326" type="curve" smooth="yes"/>
      <point x="50" y="90"/>
      <point x="147" y="-15"/>
      <point x="305" y="-15" type="curve" smooth="yes"/>
      <point x="465" y="-15"/>
      <point x="564" y="93"/>
    </contour>
    <contour>
      <point x="197" y="328" type="curve" smooth="yes"/>
      <point x="197" y="502"/>
      <point x="238" y="550"/>
      <point x="307" y="550" type="curve" smooth="yes"/>
      <point x="375" y="550"/>
      <point x="417" y="501"/>
      <point x="417" y="326" type="curve" smooth="yes"/>
      <point x="417" y="152"/>
      <point x="376" y="105"/>
      <point x="307" y="105" type="curve" smooth="yes"/>
      <point x="239" y="105"/>
      <point x="197" y="154"/>
    </contour>
  </outline>
</glyph>
<glyph name="P" format="2">
  <advance width="614"/>
  <unicode hex="0050"/>
  <anchor x="323" y="691" name="aboveUC"/>
  <outline>
    <contour>
      <point x="78" y="655" type="line"/>
      <point x="78" y="0" type="line"/>
      <point x="223" y="0" type="line"/>
      <point x="223" y="213" type="line"/>
      <point x="304" y="213" type="line" smooth="yes"/>
      <point x="475" y="213"/>
      <point x="576" y="287"/>
      <point x="576" y="436" type="curve" smooth="yes"/>
      <point x="576" y="570"/>
      <point x="484" y="655"/>
      <point x="309" y="655" type="curve" smooth="yes"/>
    </contour>
    <contour>
      <point x="319" y="535" type="line" smooth="yes"/>
      <point x="393" y="535"/>
      <point x="429" y="499"/>
      <point x="429" y="434" type="curve" smooth="yes"/>
      <point x="429" y="369"/>
      <point x="391" y="330"/>
      <point x="314" y="330" type="curve" smooth="yes"/>
      <point x="223" y="330" type="line"/>
      <point x="223" y="535" type="line"/>
    </contour>
  </outline>
</glyph>
<glyph name="Q" format="2">
  <advance width="614"/>
  <unicode hex="0051"/>
  <outline>
    <contour>
      <point x="627" y="-115" type="line"/>
      <point x="482" y="65" type="line"/>
      <point x="533" y="121"/>
      <point x="564" y="209"/>
      <point x="564" y="327" type="curve" smooth="yes"/>
      <point x="564" y="565"/>
      <point x="467" y="670"/>
      <point x="309" y="670" type="curve" smooth="yes"/>
      <point x="149" y="670"/>
      <point x="50" y="562"/>
      <point x="50" y="325" type="curve" smooth="yes"/>
      <point x="50" y="92"/>
      <point x="147" y="-11"/>
      <point x="305" y="-11" type="curve" smooth="yes"/>
      <point x="335" y="-11"/>
      <point x="363" y="-6"/>
      <point x="389" y="3" type="curve"/>
      <point x="496" y="-195" type="line"/>
    </contour>
    <contour>
      <point x="197" y="327" type="curve" smooth="yes"/>
      <point x="197" y="503"/>
      <point x="238" y="550"/>
      <point x="307" y="550" type="curve" smooth="yes"/>
      <point x="375" y="550"/>
      <point x="417" y="501"/>
      <point x="417" y="325" type="curve" smooth="yes"/>
      <point x="417" y="147"/>
      <point x="383" y="104"/>
      <point x="307" y="104" type="curve" smooth="yes"/>
      <point x="239" y="104"/>
      <point x="197" y="153"/>
    </contour>
  </outline>
</glyph>
<glyph name="X" format="2">
  <advance width="614"/>
  <unicode hex="0058"/>
  <anchor x="308" y="691" name="aboveUC"/>
  <anchor x="308" y="661" name="aboveUCx"/>
  <anchor x="308" y="-35" name="below"/>
  <anchor x="308" y="-5" name="belowx"/>
  <outline>
    <contour>
      <point x="22" y="0" type="line"/>
      <point x="177" y="0" type="line"/>
      <point x="304" y="227" type="line"/>
      <point x="429" y="0" type="line"/>
      <point x="592" y="0" type="line"/>
      <point x="387" y="338" type="line"/>
      <point x="576" y="655" type="line"/>
      <point x="420" y="655" type="line"/>
      <point x="308" y="447" type="line"/>
      <point x="197" y="655" type="line"/>
      <point x="35" y="655" type="line"/>
      <point x="226" y="334" type="line"/>
    </contour>
  </outline>
</glyph>
<glyph name="b" format="2">
  <advance width="614"/>
  <unicode hex="0062"/>
  <anchor x="319" y="-35" name="below"/>
  <outline>
    <contour>
      <point x="220" y="710" type="line"/>
      <point x="75" y="710" type="line"/>
      <point x="75" y="0" type="line"/>
      <point x="91" y="0" type="line"/>
      <point x="160" y="23" type="line"/>
      <point x="203" y="2"/>
      <point x="250" y="-8"/>
      <point x="298" y="-8" type="curve" smooth="yes"/>
      <point x="475" y="-8"/>
      <point x="570" y="106"/>
      <point x="570" y="252" type="curve" smooth="yes"/>
      <point x="570" y="406"/>
      <point x="479" y="490"/>
      <point x="365" y="490" type="curve" smooth="yes"/>
      <point x="310" y="490"/>
      <point x="263" y="473"/>
      <point x="220" y="432" type="curve"/>
    </contour>
    <contour>
      <point x="307" y="371" type="curve" smooth="yes"/>
      <point x="376" y="371"/>
      <point x="420" y="323"/>
      <point x="420" y="241" type="curve" smooth="yes"/>
      <point x="420" y="171"/>
      <point x="374" y="112"/>
      <point x="287" y="112" type="curve" smooth="yes"/>
      <point x="265" y="112"/>
      <point x="245" y="116"/>
      <point x="220" y="129" type="curve"/>
      <point x="220" y="339" type="line"/>
      <point x="252" y="362"/>
      <point x="279" y="371"/>
    </contour>
  </outline>
</glyph>
<glyph name="d" format="2">
  <advance width="614"/>
  <unicode hex="0064"/>
  <anchor x="335" y="-35" name="below"/>
  <anchor x="662" y="789" name="topright"/>
  <outline>
    <contour>
      <point x="249" y="-11" type="curve" smooth="yes"/>
      <point x="308" y="-11"/>
      <point x="358" y="8"/>
      <point x="404" y="57" type="curve"/>
      <point x="413" y="0" type="line"/>
      <point x="539" y="0" type="line"/>
      <point x="539" y="710" type="line"/>
      <point x="394" y="710" type="line"/>
      <point x="394" y="460" type="line"/>
      <point x="363" y="477"/>
      <point x="330" y="482"/>
      <point x="290" y="482" type="curve" smooth="yes"/>
      <point x="146" y="482"/>
      <point x="44" y="377"/>
      <point x="44" y="227" type="curve" smooth="yes"/>
      <point x="44" y="73"/>
      <point x="135" y="-11"/>
    </contour>
    <contour>
      <point x="194" y="238" type="curve" smooth="yes"/>
      <point x="194" y="315"/>
      <point x="242" y="366"/>
      <point x="320" y="366" type="curve" smooth="yes"/>
      <point x="344" y="366"/>
      <point x="367" y="362"/>
      <point x="394" y="346" type="curve"/>
      <point x="394" y="139" type="line"/>
      <point x="362" y="117"/>
      <point x="335" y="108"/>
      <point x="307" y="108" type="curve" smooth="yes"/>
      <point x="238" y="108"/>
      <point x="194" y="155"/>
    </contour>
  </outline>
</glyph>
<glyph name="g" format="2">
  <advance width="614"/>
  <unicode hex="0067"/>
  <anchor x="314" y="507" name="aboveLC"/>
  <anchor x="314" y="472" name="aboveLCx"/>
  <outline>
    <contour>
      <point x="44" y="241" type="curve" smooth="yes"/>
      <point x="44" y="94"/>
      <point x="138" y="13"/>
      <point x="244" y="13" type="curve" smooth="yes"/>
      <point x="304" y="13"/>
      <point x="352" y="28"/>
      <point x="396" y="70" type="curve"/>
      <point x="396" y="10" type="line" smooth="yes"/>
      <point x="396" y="-66"/>
      <point x="366" y="-103"/>
      <point x="283" y="-108" type="curve" smooth="yes"/>
      <point x="129" y="-117" type="line"/>
      <point x="134" y="-239" type="line"/>
      <point x="298" y="-231" type="line" smooth="yes"/>
      <point x="490" y="-221"/>
      <point x="540" y="-150"/>
      <point x="540" y="13" type="curve" smooth="yes"/>
      <point x="540" y="483" type="line"/>
      <point x="529" y="483" type="line"/>
      <point x="447" y="463" type="line"/>
      <point x="406" y="481"/>
      <point x="362" y="490"/>
      <point x="317" y="490" type="curve" smooth="yes"/>
      <point x="140" y="490"/>
      <point x="44" y="380"/>
    </contour>
    <contour>
      <point x="194" y="252" type="curve" smooth="yes"/>
      <point x="194" y="315"/>
      <point x="241" y="370"/>
      <point x="328" y="370" type="curve" smooth="yes"/>
      <point x="350" y="370"/>
      <point x="371" y="366"/>
      <point x="396" y="353" type="curve"/>
      <point x="396" y="163" type="line"/>
      <point x="364" y="141"/>
      <point x="336" y="132"/>
      <point x="307" y="132" type="curve" smooth="yes"/>
      <point x="239" y="132"/>
      <point x="194" y="175"/>
    </contour>
  </outline>
</glyph>
<glyph name="n" format="2">
  <advance width="614"/>
  <unicode hex="006E"/>
  <anchor x="309" y="502" name="aboveLC"/>
  <anchor x="311" y="-35" name="below"/>
  <anchor x="311" y="0" name="belowx"/>
  <outline>
    <contour>
      <point x="204" y="477" type="line"/>
      <point x="78" y="477" type="line"/>
      <point x="78" y="0" type="line"/>
      <point x="223" y="0" type="line"/>
      <point x="223" y="280" type="line"/>
      <point x="280" y="327"/>
      <point x="320" y="351"/>
      <point x="349" y="351" type="curve" smooth="yes"/>
      <point x="383" y="351"/>
      <point x="396" y="334"/>
      <point x="396" y="300" type="curve" smooth="yes"/>
      <point x="396" y="0" type="line"/>
      <point x="541" y="0" type="line"/>
      <point x="541" y="327" type="line" smooth="yes"/>
      <point x="541" y="434"/>
      <point x="499" y="488"/>
      <point x="404" y="488" type="curve" smooth="yes"/>
      <point x="345" y="488"/>
      <point x="291" y="462"/>
      <point x="212" y="396" type="curve"/>
    </contour>
  </outline>
</glyph>
<glyph name="o" format="2">
  <advance width="614"/>
  <unicode hex="006F"/>
  <anchor x="308" y="507" name="aboveLC"/>
  <anchor x="308" y="472" name="aboveLCx"/>
  <anchor x="307" y="-40" name="below"/>
  <anchor x="312" y="-15" name="belowogonek"/>
  <outline>
    <contour>
      <point x="305" y="-15" type="curve" smooth="yes"/>
      <point x="459" y="-15"/>
      <point x="567" y="92"/>
      <point x="567" y="239" type="curve" smooth="yes"/>
      <point x="567" y="389"/>
      <point x="460" y="492"/>
      <point x="309" y="492" type="curve" smooth="yes"/>
      <point x="155" y="492"/>
      <point x="47" y="384"/>
      <point x="47" y="238" type="curve" smooth="yes"/>
      <point x="47" y="87"/>
      <point x="154" y="-15"/>
    </contour>
    <contour>
      <point x="307" y="105" type="curve" smooth="yes"/>
      <point x="237" y="105"/>
      <point x="197" y="149"/>
      <point x="197" y="239" type="curve" smooth="yes"/>
      <point x="197" y="332"/>
      <point x="241" y="372"/>
      <point x="307" y="372" type="curve" smooth="yes"/>
      <point x="377" y="372"/>
      <point x="417" y="327"/>
      <point x="417" y="238" type="curve" smooth="yes"/>
      <point x="417" y="145"/>
      <point x="374" y="105"/>
    </contour>
  </outline>
</glyph>
<glyph name="p" format="2">
  <advance width="614"/>
  <unicode hex="0070"/>
  <anchor x="319" y="502" name="aboveLC"/>
  <outline>
    <contour>
      <point x="75" y="-230" type="line"/>
      <point x="220" y="-230" type="line"/>
      <point x="220" y="39" type="line"/>
      <point x="261" y="4"/>
      <point x="300" y="-5"/>
      <point x="344" y="-5" type="curve" smooth="yes"/>
      <point x="468" y="-5"/>
      <point x="570" y="97"/>
      <point x="570" y="250" type="curve" smooth="yes"/>
      <point x="570" y="403"/>
      <point x="477" y="488"/>
      <point x="370" y="488" type="curve" smooth="yes"/>
      <point x="307" y="488"/>
      <point x="259" y="465"/>
      <point x="211" y="414" type="curve"/>
      <point x="201" y="477" type="line"/>
      <point x="75" y="477" type="line"/>
    </contour>
    <contour>
      <point x="307" y="369" type="curve" smooth="yes"/>
      <point x="376" y="369"/>
      <point x="420" y="321"/>
      <point x="420" y="239" type="curve" smooth="yes"/>
      <point x="420" y="168"/>
      <point x="374" y="112"/>
      <point x="290" y="112" type="curve" smooth="yes"/>
      <point x="269" y="112"/>
      <point x="247" y="117"/>
      <point x="220" y="133" type="curve"/>
      <point x="220" y="338" type="line"/>
      <point x="252" y="360"/>
      <point x="278" y="369"/>
    </contour>
  </outline>
</glyph>
<glyph name="q" format="2">
  <advance width="614"/>
  <unicode hex="0071"/>
  <outline>
    <contour>
      <point x="44" y="225" type="curve" smooth="yes"/>
      <point x="44" y="71"/>
      <point x="135" y="-13"/>
      <point x="249" y="-13" type="curve" smooth="yes"/>
      <point x="304" y="-13"/>
      <point x="351" y="4"/>
      <point x="394" y="45" type="curve"/>
      <point x="394" y="-230" type="line"/>
      <point x="539" y="-230" type="line"/>
      <point x="539" y="477" type="line"/>
      <point x="523" y="477" type="line"/>
      <point x="454" y="454" type="line"/>
      <point x="411" y="475"/>
      <point x="364" y="485"/>
      <point x="316" y="485" type="curve" smooth="yes"/>
      <point x="139" y="485"/>
      <point x="44" y="371"/>
    </contour>
    <contour>
      <point x="194" y="236" type="curve" smooth="yes"/>
      <point x="194" y="306"/>
      <point x="240" y="365"/>
      <point x="327" y="365" type="curve" smooth="yes"/>
      <point x="349" y="365"/>
      <point x="369" y="361"/>
      <point x="394" y="348" type="curve"/>
      <point x="394" y="137" type="line"/>
      <point x="362" y="115"/>
      <point x="335" y="106"/>
      <point x="307" y="106" type="curve" smooth="yes"/>
      <point x="238" y="106"/>
      <point x="194" y="154"/>
    </contour>
  </outline>
</glyph>
<glyph name="r" format="2">
  <advance width="614"/>
  <unicode hex="0072"/>
  <anchor x="312" y="502" name="aboveLC"/>
  <anchor x="248" y="-35" name="below"/>
  <outline>
    <contour>
      <point x="56" y="122" type="line"/>
      <point x="56" y="0" type="line"/>
      <point x="428" y="0" type="line"/>
      <point x="428" y="122" type="line"/>
      <point x="302" y="122" type="line"/>
      <point x="302" y="235" type="line"/>
      <point x="383" y="313"/>
      <point x="404" y="321"/>
      <point x="484" y="328" type="curve" smooth="yes"/>
      <point x="570" y="336" type="line"/>
      <point x="558" y="482" type="line"/>
      <point x="472" y="475" type="line" smooth="yes"/>
      <point x="420" y="471"/>
      <point x="381" y="458"/>
      <point x="293" y="345" type="curve"/>
      <point x="285" y="477" type="line"/>
      <point x="76" y="477" type="line"/>
      <point x="76" y="355" type="line"/>
      <point x="158" y="355" type="line"/>
      <point x="158" y="122" type="line"/>
    </contour>
  </outline>
</glyph>
<glyph name="t" format="2">
  <advance width="614"/>
  <unicode hex="0074"/>
  <anchor x="428" y="789" name="topright"/>
  <anchor x="314" y="-35" name="below"/>
  <anchor x="319" y="-10" name="belowcedilla"/>
  <outline>
    <contour>
      <point x="197" y="198" type="line" smooth="yes"/>
      <point x="197" y="49"/>
      <point x="230" y="7"/>
      <point x="385" y="0" type="curve" smooth="yes"/>
      <point x="538" y="-6" type="line"/>
      <point x="549" y="118" type="line"/>
      <point x="420" y="126" type="line" smooth="yes"/>
      <point x="357" y="130"/>
      <point x="341" y="148"/>
      <point x="341" y="213" type="curve" smooth="yes"/>
      <point x="341" y="355" type="line"/>
      <point x="525" y="355" type="line"/>
      <point x="525" y="477" type="line"/>
      <point x="338" y="477" type="line"/>
      <point x="338" y="640" type="line"/>
      <point x="199" y="640" type="line"/>
      <point x="199" y="477" type="line"/>
      <point x="50" y="477" type="line"/>
      <point x="50" y="355" type="line"/>
      <point x="197" y="355" type="line"/>
    </contour>
  </outline>
</glyph>
<glyph name="v" format="2">
  <advance width="614"/>
  <unicode hex="0076"/>
  <anchor x="305" y="-35" name="below"/>
  <outline>
    <contour>
      <point x="34" y="477" type="line"/>
      <point x="217" y="0" type="line"/>
      <point x="398" y="0" type="line"/>
      <point x="580" y="477" type="line"/>
      <point x="428" y="477" type="line"/>
      <point x="310" y="128" type="line"/>
      <point x="192" y="477" type="line"/>
    </contour>
  </outline>
</glyph>
<glyph name="x" format="2">
  <advance width="614"/>
  <unicode hex="0078"/>
  <anchor x="309" y="502" name="aboveLC"/>
  <anchor x="305" y="-35" name="below"/>
  <anchor x="305" y="-5" name="belowx"/>
  <anchor x="309" y="472" name="aboveLCx"/>
  <outline>
    <contour>
      <point x="35" y="0" type="line"/>
      <point x="203" y="0" type="line"/>
      <point x="305" y="161" type="line"/>
      <point x="407" y="0" type="line"/>
      <point x="580" y="0" type="line"/>
      <point x="395" y="245" type="line"/>
      <point x="565" y="477" type="line"/>
      <point x="397" y="477" type="line"/>
      <point x="309" y="336" type="line"/>
      <point x="220" y="477" type="line"/>
      <point x="46" y="477" type="line"/>
      <point x="217" y="243" type="line"/>
    </contour>
  </outline>
</glyph>
<glyph name="asciitilde" format="2">
  <advance width="614"/>
  <unicode hex="007E"/>
  <outline>
    <contour>
      <point x="580" y="436" type="curve"/>
      <point x="469" y="466" type="line"/>
      <point x="433" y="354"/>
      <point x="423" y="336"/>
      <point x="407" y="336" type="curve" smooth="yes"/>
      <point x="395" y="336"/>
      <point x="388" y="342"/>
      <point x="325" y="390" type="curve" smooth="yes"/>
      <point x="252" y="445"/>
      <point x="233" y="460"/>
      <point x="194" y="460" type="curve" smooth="yes"/>
      <point x="126" y="460"/>
      <point x="88" y="424"/>
      <point x="34" y="226" type="curve"/>
      <point x="145" y="196" type="line"/>
      <point x="181" y="308"/>
      <point x="191" y="326"/>
      <point x="207" y="326" type="curve" smooth="yes"/>
      <point x="219" y="326"/>
      <point x="227" y="320"/>
      <point x="289" y="272" type="curve" smooth="yes"/>
      <point x="361" y="217"/>
      <point x="381" y="202"/>
      <point x="420" y="202" type="curve" smooth="yes"/>
      <point x="488" y="202"/>
      <point x="526" y="238"/>
    </contour>
  </outline>
</glyph>
<glyph name="cent" format="2">
  <advance width="614"/>
  <unicode hex="00A2"/>
  <outline>
    <contour>
      <point x="294" y="-142" type="line"/>
      <point x="385" y="-142" type="line"/>
      <point x="385" y="5" type="line"/>
      <point x="439" y="14"/>
      <point x="492" y="35"/>
      <point x="560" y="77" type="curve"/>
      <point x="495" y="175" type="line"/>
      <point x="415" y="131"/>
      <point x="374" y="122"/>
      <point x="327" y="122" type="curve" smooth="yes"/>
      <point x="259" y="122"/>
      <point x="205" y="166"/>
      <point x="205" y="247" type="curve" smooth="yes"/>
      <point x="205" y="318"/>
      <point x="258" y="368"/>
      <point x="335" y="368" type="curve" smooth="yes"/>
      <point x="375" y="368"/>
      <point x="412" y="363"/>
      <point x="488" y="312" type="curve"/>
      <point x="555" y="415" type="line"/>
      <point x="485" y="461"/>
      <point x="433" y="479"/>
      <point x="385" y="486" type="curve"/>
      <point x="385" y="632" type="line"/>
      <point x="294" y="632" type="line"/>
      <point x="294" y="488" type="line"/>
      <point x="154" y="474"/>
      <point x="53" y="370"/>
      <point x="53" y="246" type="curve" smooth="yes"/>
      <point x="53" y="103"/>
      <point x="148" y="8"/>
      <point x="294" y="0" type="curve"/>
    </contour>
  </outline>
</glyph>
<glyph name="sterling" format="2">
  <advance width="614"/>
  <unicode hex="00A3"/>
  <outline>
    <contour>
      <point x="57" y="0" type="line"/>
      <point x="563" y="0" type="line"/>
      <point x="563" y="120" type="line"/>
      <point x="228" y="120" type="line"/>
      <point x="312" y="193"/>
      <point x="338" y="230"/>
      <point x="346" y="261" type="curve"/>
      <point x="502" y="261" type="line"/>
      <point x="502" y="339" type="line"/>
      <point x="341" y="339" type="line"/>
      <point x="332" y="359"/>
      <point x="315" y="381"/>
      <point x="284" y="408" type="curve" smooth="yes"/>
      <point x="238" y="448"/>
      <point x="234" y="462"/>
      <point x="234" y="486" type="curve" smooth="yes"/>
      <point x="234" y="521"/>
      <point x="267" y="550"/>
      <point x="320" y="550" type="curve" smooth="yes"/>
      <point x="369" y="550"/>
      <point x="400" y="534"/>
      <point x="508" y="466" type="curve"/>
      <point x="575" y="575" type="line"/>
      <point x="454" y="646"/>
      <point x="392" y="670"/>
      <point x="306" y="670" type="curve" smooth="yes"/>
      <point x="164" y="670"/>
      <point x="87" y="581"/>
      <point x="87" y="494" type="curve" smooth="yes"/>
      <point x="87" y="443"/>
      <point x="105" y="415"/>
      <point x="164" y="365" type="curve" smooth="yes"/>
      <point x="184" y="348"/>
      <point x="199" y="336"/>
      <point x="209" y="326" type="curve"/>
      <point x="72" y="326" type="line"/>
      <point x="72" y="250" type="line"/>
      <point x="212" y="250" type="line"/>
      <point x="190" y="227"/>
      <point x="147" y="188"/>
      <point x="57" y="112" type="curve"/>
    </contour>
  </outline>
</glyph>
<glyph name="section" format="2">
  <advance width="614"/>
  <unicode hex="00A7"/>
  <outline>
    <contour>
      <point x="46" y="181" type="curve" smooth="yes"/>
      <point x="46" y="121"/>
      <point x="76" y="65"/>
      <point x="199" y="15" type="curve" smooth="yes"/>
      <point x="322" y="-35" type="line" smooth="yes"/>
      <point x="367" y="-53"/>
      <point x="374" y="-64"/>
      <point x="374" y="-82" type="curve" smooth="yes"/>
      <point x="374" y="-104"/>
      <point x="358" y="-121"/>
      <point x="289" y="-121" type="curve" smooth="yes"/>
      <point x="239" y="-121"/>
      <point x="173" y="-111"/>
      <point x="88" y="-92" type="curve"/>
      <point x="72" y="-214" type="line"/>
      <point x="146" y="-230"/>
      <point x="207" y="-240"/>
      <point x="285" y="-240" type="curve" smooth="yes"/>
      <point x="450" y="-240"/>
      <point x="518" y="-168"/>
      <point x="518" y="-74" type="curve" smooth="yes"/>
      <point x="518" y="-3"/>
      <point x="488" y="38"/>
      <point x="437" y="69" type="curve"/>
      <point x="545" y="129"/>
      <point x="569" y="180"/>
      <point x="569" y="246" type="curve" smooth="yes"/>
      <point x="569" y="306"/>
      <point x="539" y="362"/>
      <point x="416" y="412" type="curve" smooth="yes"/>
      <point x="293" y="462" type="line" smooth="yes"/>
      <point x="248" y="480"/>
      <point x="241" y="491"/>
      <point x="241" y="509" type="curve" smooth="yes"/>
      <point x="241" y="531"/>
      <point x="257" y="548"/>
      <point x="326" y="548" type="curve" smooth="yes"/>
      <point x="376" y="548"/>
      <point x="442" y="538"/>
      <point x="527" y="519" type="curve"/>
      <point x="543" y="641" type="line"/>
      <point x="469" y="657"/>
      <point x="408" y="667"/>
      <point x="330" y="667" type="curve" smooth="yes"/>
      <point x="165" y="667"/>
      <point x="97" y="595"/>
      <point x="97" y="501" type="curve" smooth="yes"/>
      <point x="97" y="430"/>
      <point x="127" y="389"/>
      <point x="178" y="358" type="curve"/>
      <point x="70" y="298"/>
      <point x="46" y="247"/>
    </contour>
    <contour>
      <point x="260" y="145" type="line" smooth="yes"/>
      <point x="201" y="169"/>
      <point x="191" y="189"/>
      <point x="191" y="214" type="curve" smooth="yes"/>
      <point x="191" y="236"/>
      <point x="193" y="264"/>
      <point x="272" y="316" type="curve"/>
      <point x="355" y="282" type="line" smooth="yes"/>
      <point x="414" y="258"/>
      <point x="424" y="238"/>
      <point x="424" y="213" type="curve" smooth="yes"/>
      <point x="424" y="191"/>
      <point x="422" y="163"/>
      <point x="343" y="111" type="curve"/>
    </contour>
  </outline>
</glyph>
<glyph name="questiondown" format="2">
  <advance width="614"/>
  <unicode hex="00BF"/>
  <outline>
    <contour>
      <point x="362" y="725" type="curve" smooth="yes"/>
      <point x="275" y="725"/>
      <point x="240" y="697"/>
      <point x="240" y="637" type="curve" smooth="yes"/>
      <point x="240" y="578"/>
      <point x="267" y="549"/>
      <point x="360" y="549" type="curve" smooth="yes"/>
      <point x="453" y="549"/>
      <point x="482" y="582"/>
      <point x="482" y="637" type="curve" smooth="yes"/>
      <point x="482" y="696"/>
      <point x="452" y="725"/>
    </contour>
    <contour>
      <point x="306" y="433" type="line"/>
      <point x="293" y="374"/>
      <point x="290" y="366"/>
      <point x="254" y="349" type="curve" smooth="yes"/>
      <point x="190" y="319" type="line" smooth="yes"/>
      <point x="108" y="280"/>
      <point x="65" y="245"/>
      <point x="65" y="164" type="curve" smooth="yes"/>
      <point x="65" y="59"/>
      <point x="122" y="-15"/>
      <point x="290" y="-15" type="curve" smooth="yes"/>
      <point x="369" y="-15"/>
      <point x="432" y="-9"/>
      <point x="558" y="18" type="curve"/>
      <point x="536" y="143" type="line"/>
      <point x="424" y="114"/>
      <point x="354" y="105"/>
      <point x="304" y="105" type="curve" smooth="yes"/>
      <point x="239" y="105"/>
      <point x="213" y="128"/>
      <point x="213" y="164" type="curve" smooth="yes"/>
      <point x="213" y="191"/>
      <point x="225" y="201"/>
      <point x="292" y="232" type="curve" smooth="yes"/>
      <point x="359" y="263" type="line" smooth="yes"/>
      <point x="410" y="287"/>
      <point x="424" y="305"/>
      <point x="424" y="332" type="curve" smooth="yes"/>
      <point x="424" y="353"/>
      <point x="420" y="374"/>
      <point x="404" y="433" type="curve"/>
    </contour>
  </outline>
</glyph>
<glyph name="Aring" format="2">
  <advance width="614"/>
  <unicode hex="00C5"/>
  <outline>
    <contour>
      <point x="171" y="0" type="line"/>
      <point x="207" y="126" type="line"/>
      <point x="399" y="126" type="line"/>
      <point x="435" y="0" type="line"/>
      <point x="586" y="0" type="line"/>
      <point x="420" y="574" type="line"/>
      <point x="456" y="598"/>
      <point x="477" y="635"/>
      <point x="477" y="681" type="curve" smooth="yes"/>
      <point x="477" y="763"/>
      <point x="412" y="817"/>
      <point x="307" y="817" type="curve" smooth="yes"/>
      <point x="201" y="817"/>
      <point x="135" y="763"/>
      <point x="135" y="680" type="curve" smooth="yes"/>
      <point x="135" y="634"/>
      <point x="156" y="597"/>
      <point x="193" y="573" type="curve"/>
      <point x="28" y="0" type="line"/>
    </contour>
    <contour>
      <point x="306" y="622" type="curve" smooth="yes"/>
      <point x="259" y="622"/>
      <point x="233" y="641"/>
      <point x="233" y="679" type="curve" smooth="yes"/>
      <point x="233" y="720"/>
      <point x="256" y="740"/>
      <point x="306" y="740" type="curve" smooth="yes"/>
      <point x="353" y="740"/>
      <point x="379" y="721"/>
      <point x="379" y="682" type="curve" smooth="yes"/>
      <point x="379" y="642"/>
      <point x="356" y="622"/>
    </contour>
    <contour>
      <point x="236" y="239" type="line"/>
      <point x="303" y="500" type="line"/>
      <point x="370" y="239" type="line"/>
    </contour>
  </outline>
</glyph>
<glyph name="Ccedilla" format="2">
  <advance width="614"/>
  <unicode hex="00C7"/>
  <outline>
    <contour>
      <point x="500" y="-150" type="curve" smooth="yes"/>
      <point x="500" y="-106"/>
      <point x="471" y="-75"/>
      <point x="355" y="-62" type="curve"/>
      <point x="370" y="-13" type="line"/>
      <point x="434" y="-7"/>
      <point x="506" y="18"/>
      <point x="581" y="69" type="curve"/>
      <point x="517" y="169" type="line"/>
      <point x="445" y="122"/>
      <point x="394" y="105"/>
      <point x="355" y="105" type="curve" smooth="yes"/>
      <point x="272" y="105"/>
      <point x="197" y="165"/>
      <point x="197" y="328" type="curve" smooth="yes"/>
      <point x="197" y="477"/>
      <point x="275" y="550"/>
      <point x="362" y="550" type="curve" smooth="yes"/>
      <point x="402" y="550"/>
      <point x="438" y="540"/>
      <point x="510" y="489" type="curve"/>
      <point x="573" y="590" type="line"/>
      <point x="492" y="648"/>
      <point x="431" y="670"/>
      <point x="359" y="670" type="curve" smooth="yes"/>
      <point x="174" y="670"/>
      <point x="50" y="524"/>
      <point x="50" y="326" type="curve" smooth="yes"/>
      <point x="50" y="114"/>
      <point x="149" y="-2"/>
      <point x="307" y="-14" type="curve"/>
      <point x="276" y="-107" type="line"/>
      <point x="282" y="-117" type="line"/>
      <point x="383" y="-122"/>
      <point x="409" y="-132"/>
      <point x="409" y="-152" type="curve" smooth="yes"/>
      <point x="409" y="-178"/>
      <point x="379" y="-188"/>
      <point x="227" y="-201" type="curve"/>
      <point x="246" y="-270" type="line"/>
      <point x="468" y="-251"/>
      <point x="500" y="-217"/>
    </contour>
  </outline>
</glyph>
<glyph name="Eth" format="2">
  <advance width="614"/>
  <unicode hex="00D0"/>
  <outline>
    <contour>
      <point x="21" y="292" type="line"/>
      <point x="98" y="292" type="line"/>
      <point x="98" y="0" type="line"/>
      <point x="179" y="0" type="line" smooth="yes"/>
      <point x="457" y="0"/>
      <point x="568" y="139"/>
      <point x="568" y="333" type="curve" smooth="yes"/>
      <point x="568" y="533"/>
      <point x="449" y="655"/>
      <point x="199" y="655" type="curve" smooth="yes"/>
      <point x="98" y="655" type="line"/>
      <point x="98" y="368" type="line"/>
      <point x="21" y="368" type="line"/>
    </contour>
    <contour>
      <point x="325" y="292" type="line"/>
      <point x="325" y="368" type="line"/>
      <point x="237" y="368" type="line"/>
      <point x="237" y="539" type="line"/>
      <point x="351" y="532"/>
      <point x="426" y="470"/>
      <point x="426" y="331" type="curve" smooth="yes"/>
      <point x="426" y="192"/>
      <point x="362" y="131"/>
      <point x="237" y="118" type="curve"/>
      <point x="237" y="292" type="line"/>
    </contour>
  </outline>
</glyph>
<glyph name="Oslash" format="2">
  <advance width="614"/>
  <unicode hex="00D8"/>
  <outline>
    <contour>
      <point x="564" y="328" type="curve" smooth="yes"/>
      <point x="564" y="438"/>
      <point x="537" y="521"/>
      <point x="493" y="578" type="curve"/>
      <point x="581" y="726" type="line"/>
      <point x="471" y="726" type="line"/>
      <point x="427" y="638" type="line"/>
      <point x="391" y="659"/>
      <point x="351" y="670"/>
      <point x="309" y="670" type="curve" smooth="yes"/>
      <point x="149" y="670"/>
      <point x="50" y="561"/>
      <point x="50" y="326" type="curve" smooth="yes"/>
      <point x="50" y="217"/>
      <point x="76" y="134"/>
      <point x="119" y="77" type="curve"/>
      <point x="33" y="-71" type="line"/>
      <point x="141" y="-71" type="line"/>
      <point x="186" y="16" type="line"/>
      <point x="221" y="-5"/>
      <point x="262" y="-15"/>
      <point x="305" y="-15" type="curve" smooth="yes"/>
      <point x="465" y="-15"/>
      <point x="564" y="93"/>
    </contour>
    <contour>
      <point x="197" y="328" type="curve" smooth="yes"/>
      <point x="197" y="502"/>
      <point x="238" y="550"/>
      <point x="307" y="550" type="curve" smooth="yes"/>
      <point x="381" y="550"/>
      <point x="417" y="507"/>
      <point x="417" y="326" type="curve" smooth="yes"/>
      <point x="417" y="152"/>
      <point x="376" y="105"/>
      <point x="307" y="105" type="curve" smooth="yes"/>
      <point x="232" y="105"/>
      <point x="197" y="145"/>
    </contour>
  </outline>
</glyph>
<glyph name="ae" format="2">
  <advance width="614"/>
  <unicode hex="00E6"/>
  <outline>
    <contour>
      <point x="520" y="93" type="line"/>
      <point x="474" y="96" type="line" smooth="yes"/>
      <point x="400" y="101"/>
      <point x="371" y="122"/>
      <point x="363" y="192" type="curve"/>
      <point x="596" y="192" type="line"/>
      <point x="599" y="207"/>
      <point x="602" y="229"/>
      <point x="602" y="254" type="curve" smooth="yes"/>
      <point x="602" y="393"/>
      <point x="538" y="490"/>
      <point x="437" y="490" type="curve" smooth="yes"/>
      <point x="393" y="490"/>
      <point x="354" y="468"/>
      <point x="323" y="432" type="curve"/>
      <point x="299" y="471"/>
      <point x="257" y="490"/>
      <point x="195" y="490" type="curve" smooth="yes"/>
      <point x="155" y="490"/>
      <point x="105" y="485"/>
      <point x="57" y="477" type="curve"/>
      <point x="69" y="369" type="line"/>
      <point x="120" y="378"/>
      <point x="148" y="381"/>
      <point x="170" y="381" type="curve" smooth="yes"/>
      <point x="220" y="381"/>
      <point x="234" y="368"/>
      <point x="234" y="324" type="curve" smooth="yes"/>
      <point x="234" y="299" type="line"/>
      <point x="160" y="285" type="line" smooth="yes"/>
      <point x="46" y="263"/>
      <point x="11" y="218"/>
      <point x="11" y="131" type="curve" smooth="yes"/>
      <point x="11" y="39"/>
      <point x="56" y="-11"/>
      <point x="120" y="-11" type="curve" smooth="yes"/>
      <point x="169" y="-11"/>
      <point x="210" y="13"/>
      <point x="254" y="57" type="curve"/>
      <point x="277" y="57" type="line"/>
      <point x="310" y="14"/>
      <point x="362" y="-9"/>
      <point x="440" y="-11" type="curve" smooth="yes"/>
      <point x="515" y="-13" type="line"/>
    </contour>
    <contour>
      <point x="426" y="386" type="curve" smooth="yes"/>
      <point x="456" y="386"/>
      <point x="473" y="348"/>
      <point x="475" y="289" type="curve"/>
      <point x="362" y="289" type="line"/>
      <point x="370" y="353"/>
      <point x="395" y="386"/>
    </contour>
    <contour>
      <point x="178" y="94" type="curve" smooth="yes"/>
      <point x="158" y="94"/>
      <point x="147" y="114"/>
      <point x="147" y="141" type="curve" smooth="yes"/>
      <point x="147" y="172"/>
      <point x="158" y="190"/>
      <point x="199" y="203" type="curve" smooth="yes"/>
      <point x="234" y="214" type="line"/>
      <point x="235" y="181"/>
      <point x="239" y="152"/>
      <point x="245" y="127" type="curve"/>
      <point x="212" y="103"/>
      <point x="195" y="94"/>
    </contour>
  </outline>
</glyph>
<glyph name="eth" format="2">
  <advance width="614"/>
  <unicode hex="00F0"/>
  <outline>
    <contour>
      <point x="362" y="767" type="line"/>
      <point x="296" y="685" type="line"/>
      <point x="256" y="702"/>
      <point x="212" y="716"/>
      <point x="169" y="725" type="curve"/>
      <point x="130" y="605" type="line"/>
      <point x="164" y="597"/>
      <point x="194" y="589"/>
      <point x="223" y="577" type="curve"/>
      <point x="158" y="503" type="line"/>
      <point x="216" y="457" type="line"/>
      <point x="291" y="549" type="line"/>
      <point x="360" y="515"/>
      <point x="401" y="475"/>
      <point x="418" y="395" type="curve"/>
      <point x="367" y="418"/>
      <point x="324" y="421"/>
      <point x="283" y="421" type="curve" smooth="yes"/>
      <point x="147" y="421"/>
      <point x="47" y="321"/>
      <point x="47" y="210" type="curve" smooth="yes"/>
      <point x="47" y="76"/>
      <point x="149" y="-15"/>
      <point x="287" y="-15" type="curve" smooth="yes"/>
      <point x="459" y="-15"/>
      <point x="567" y="113"/>
      <point x="567" y="317" type="curve" smooth="yes"/>
      <point x="567" y="428"/>
      <point x="528" y="563"/>
      <point x="364" y="655" type="curve"/>
      <point x="424" y="720" type="line"/>
    </contour>
    <contour>
      <point x="197" y="211" type="curve" smooth="yes"/>
      <point x="197" y="267"/>
      <point x="233" y="316"/>
      <point x="312" y="316" type="curve" smooth="yes"/>
      <point x="344" y="316"/>
      <point x="373" y="313"/>
      <point x="421" y="290" type="curve"/>
      <point x="415" y="155"/>
      <point x="361" y="105"/>
      <point x="296" y="105" type="curve" smooth="yes"/>
      <point x="239" y="105"/>
      <point x="197" y="144"/>
    </contour>
  </outline>
</glyph>
<glyph name="oslash" format="2">
  <advance width="614"/>
  <unicode hex="00F8"/>
  <outline>
    <contour>
      <point x="567" y="239" type="curve" smooth="yes"/>
      <point x="567" y="305"/>
      <point x="537" y="366"/>
      <point x="491" y="412" type="curve"/>
      <point x="593" y="548" type="line"/>
      <point x="461" y="548" type="line"/>
      <point x="413" y="468" type="line"/>
      <point x="380" y="483"/>
      <point x="345" y="492"/>
      <point x="309" y="492" type="curve" smooth="yes"/>
      <point x="155" y="492"/>
      <point x="47" y="384"/>
      <point x="47" y="238" type="curve" smooth="yes"/>
      <point x="47" y="172"/>
      <point x="77" y="110"/>
      <point x="124" y="64" type="curve"/>
      <point x="21" y="-71" type="line"/>
      <point x="152" y="-71" type="line"/>
      <point x="201" y="9" type="line"/>
      <point x="233" y="-6"/>
      <point x="269" y="-15"/>
      <point x="305" y="-15" type="curve" smooth="yes"/>
      <point x="459" y="-15"/>
      <point x="567" y="93"/>
    </contour>
    <contour>
      <point x="197" y="239" type="curve" smooth="yes"/>
      <point x="197" y="332"/>
      <point x="241" y="372"/>
      <point x="307" y="372" type="curve" smooth="yes"/>
      <point x="381" y="372"/>
      <point x="417" y="333"/>
      <point x="417" y="238" type="curve" smooth="yes"/>
      <point x="417" y="145"/>
      <point x="373" y="105"/>
      <point x="307" y="105" type="curve" smooth="yes"/>
      <point x="233" y="105"/>
      <point x="197" y="144"/>
    </contour>
  </outline>
</glyph>
<glyph name="thorn" format="2">
  <advance width="614"/>
  <unicode hex="00FE"/>
  <outline>
    <contour>
      <point x="75" y="-230" type="line"/>
      <point x="220" y="-230" type="line"/>
      <point x="220" y="39" type="line"/>
      <point x="261" y="4"/>
      <point x="300" y="-5"/>
      <point x="344" y="-5" type="curve" smooth="yes"/>
      <point x="468" y="-5"/>
      <point x="570" y="97"/>
      <point x="570" y="250" type="curve" smooth="yes"/>
      <point x="570" y="403"/>
      <point x="477" y="488"/>
      <point x="370" y="488" type="curve" smooth="yes"/>
      <point x="311" y="488"/>
      <point x="265" y="468"/>
      <point x="220" y="423" type="curve"/>
      <point x="220" y="710" type="line"/>
      <point x="75" y="710" type="line"/>
    </contour>
    <contour>
      <point x="307" y="369" type="curve" smooth="yes"/>
      <point x="376" y="369"/>
      <point x="420" y="321"/>
      <point x="420" y="239" type="curve" smooth="yes"/>
      <point x="420" y="168"/>
      <point x="374" y="112"/>
      <point x="290" y="112" type="curve" smooth="yes"/>
      <point x="269" y="112"/>
      <point x="247" y="117"/>
      <point x="220" y="133" type="curve"/>
      <point x="220" y="338" type="line"/>
      <point x="252" y="360"/>
      <point x="278" y="369"/>
    </contour>
  </outline>
</glyph>
<glyph name="Aogonek" format="2">
  <advance width="614"/>
  <unicode hex="0104"/>
  <outline>
    <contour>
      <point x="171" y="0" type="line"/>
      <point x="207" y="126" type="line"/>
      <point x="399" y="126" type="line"/>
      <point x="435" y="0" type="line"/>
      <point x="461" y="0" type="line"/>
      <point x="388" y="-84"/>
      <point x="366" y="-127"/>
      <point x="366" y="-158" type="curve" smooth="yes"/>
      <point x="366" y="-203"/>
      <point x="395" y="-227"/>
      <point x="459" y="-230" type="curve" smooth="yes"/>
      <point x="556" y="-234" type="line"/>
      <point x="566" y="-141" type="line"/>
      <point x="511" y="-137" type="line" smooth="yes"/>
      <point x="478" y="-135"/>
      <point x="470" y="-126"/>
      <point x="470" y="-106" type="curve" smooth="yes"/>
      <point x="470" y="-95"/>
      <point x="472" y="-79"/>
      <point x="527" y="0" type="curve"/>
      <point x="586" y="0" type="line"/>
      <point x="396" y="655" type="line"/>
      <point x="216" y="655" type="line"/>
      <point x="28" y="0" type="line"/>
    </contour>
    <contour>
      <point x="236" y="239" type="line"/>
      <point x="303" y="500" type="line"/>
      <point x="370" y="239" type="line"/>
    </contour>
  </outline>
</glyph>
<glyph name="dcroat" format="2">
  <advance width="614"/>
  <unicode hex="0111"/>
  <outline>
    <contour>
      <point x="242" y="-11" type="curve" smooth="yes"/>
      <point x="298" y="-11"/>
      <point x="346" y="9"/>
      <point x="390" y="57" type="curve"/>
      <point x="399" y="0" type="line"/>
      <point x="525" y="0" type="line"/>
      <point x="525" y="516" type="line"/>
      <point x="602" y="516" type="line"/>
      <point x="602" y="592" type="line"/>
      <point x="525" y="592" type="line"/>
      <point x="525" y="710" type="line"/>
      <point x="380" y="710" type="line"/>
      <point x="380" y="592" type="line"/>
      <point x="252" y="592" type="line"/>
      <point x="252" y="516" type="line"/>
      <point x="380" y="516" type="line"/>
      <point x="380" y="403" type="line"/>
      <point x="349" y="421"/>
      <point x="318" y="427"/>
      <point x="279" y="427" type="curve" smooth="yes"/>
      <point x="143" y="427"/>
      <point x="44" y="334"/>
      <point x="44" y="202" type="curve" smooth="yes"/>
      <point x="44" y="64"/>
      <point x="131" y="-11"/>
    </contour>
    <contour>
      <point x="194" y="213" type="curve" smooth="yes"/>
      <point x="194" y="277"/>
      <point x="235" y="320"/>
      <point x="302" y="320" type="curve" smooth="yes"/>
      <point x="328" y="320"/>
      <point x="350" y="314"/>
      <point x="380" y="297" type="curve"/>
      <point x="380" y="139" type="line"/>
      <point x="348" y="117"/>
      <point x="322" y="108"/>
      <point x="294" y="108" type="curve" smooth="yes"/>
      <point x="233" y="108"/>
      <point x="194" y="146"/>
    </contour>
  </outline>
</glyph>
<glyph name="eogonek" format="2">
  <advance width="614"/>
  <unicode hex="0119"/>
  <anchor x="312" y="478" name="aboveLCx"/>
  <anchor x="312" y="510" name="aboveLC"/>
  <outline>
    <contour>
      <point x="303" y="-158" type="curve" smooth="yes"/>
      <point x="303" y="-203"/>
      <point x="332" y="-227"/>
      <point x="396" y="-230" type="curve" smooth="yes"/>
      <point x="493" y="-234" type="line"/>
      <point x="503" y="-141" type="line"/>
      <point x="448" y="-137" type="line" smooth="yes"/>
      <point x="415" y="-135"/>
      <point x="407" y="-126"/>
      <point x="407" y="-106" type="curve" smooth="yes"/>
      <point x="407" y="-96"/>
      <point x="409" y="-82"/>
      <point x="456" y="-13" type="curve"/>
      <point x="461" y="97" type="line"/>
      <point x="383" y="100" type="line" smooth="yes"/>
      <point x="261" y="105"/>
      <point x="213" y="126"/>
      <point x="199" y="192" type="curve"/>
      <point x="551" y="192" type="line"/>
      <point x="554" y="207"/>
      <point x="557" y="229"/>
      <point x="557" y="254" type="curve" smooth="yes"/>
      <point x="557" y="394"/>
      <point x="462" y="492"/>
      <point x="315" y="492" type="curve" smooth="yes"/>
      <point x="155" y="492"/>
      <point x="57" y="375"/>
      <point x="57" y="235" type="curve" smooth="yes"/>
      <point x="57" y="78"/>
      <point x="133" y="-8"/>
      <point x="335" y="-11" type="curve" smooth="yes"/>
      <point x="388" y="-12" type="line"/>
      <point x="319" y="-91"/>
      <point x="303" y="-127"/>
    </contour>
    <contour>
      <point x="316" y="384" type="curve" smooth="yes"/>
      <point x="376" y="384"/>
      <point x="414" y="347"/>
      <point x="419" y="289" type="curve"/>
      <point x="199" y="289" type="line"/>
      <point x="213" y="351"/>
      <point x="255" y="384"/>
    </contour>
  </outline>
</glyph>
<glyph name="hbar" format="2">
  <advance width="614"/>
  <unicode hex="0127"/>
  <outline>
    <contour>
      <point x="362" y="516" type="line"/>
      <point x="362" y="592" type="line"/>
      <point x="234" y="592" type="line"/>
      <point x="234" y="710" type="line"/>
      <point x="89" y="710" type="line"/>
      <point x="89" y="592" type="line"/>
      <point x="12" y="592" type="line"/>
      <point x="12" y="516" type="line"/>
      <point x="89" y="516" type="line"/>
      <point x="89" y="0" type="line"/>
      <point x="234" y="0" type="line"/>
      <point x="234" y="220" type="line"/>
      <point x="288" y="266"/>
      <point x="322" y="291"/>
      <point x="349" y="291" type="curve" smooth="yes"/>
      <point x="383" y="291"/>
      <point x="396" y="274"/>
      <point x="396" y="240" type="curve" smooth="yes"/>
      <point x="396" y="0" type="line"/>
      <point x="541" y="0" type="line"/>
      <point x="541" y="267" type="line" smooth="yes"/>
      <point x="541" y="374"/>
      <point x="499" y="428"/>
      <point x="404" y="428" type="curve" smooth="yes"/>
      <point x="351" y="428"/>
      <point x="304" y="404"/>
      <point x="234" y="345" type="curve"/>
      <point x="234" y="516" type="line"/>
    </contour>
  </outline>
</glyph>
<glyph name="Iogonek" format="2">
  <advance width="614"/>
  <unicode hex="012E"/>
  <outline>
    <contour>
      <point x="113" y="80" type="line"/>
      <point x="113" y="0" type="line"/>
      <point x="281" y="0" type="line"/>
      <point x="208" y="-84"/>
      <point x="186" y="-127"/>
      <point x="186" y="-158" type="curve" smooth="yes"/>
      <point x="186" y="-203"/>
      <point x="215" y="-227"/>
      <point x="279" y="-230" type="curve" smooth="yes"/>
      <point x="376" y="-234" type="line"/>
      <point x="386" y="-141" type="line"/>
      <point x="331" y="-137" type="line" smooth="yes"/>
      <point x="298" y="-135"/>
      <point x="290" y="-126"/>
      <point x="290" y="-106" type="curve" smooth="yes"/>
      <point x="290" y="-95"/>
      <point x="292" y="-79"/>
      <point x="347" y="0" type="curve"/>
      <point x="501" y="0" type="line"/>
      <point x="501" y="80" type="line"/>
      <point x="380" y="105" type="line"/>
      <point x="380" y="550" type="line"/>
      <point x="501" y="575" type="line"/>
      <point x="501" y="655" type="line"/>
      <point x="113" y="655" type="line"/>
      <point x="113" y="575" type="line"/>
      <point x="236" y="550" type="line"/>
      <point x="236" y="105" type="line"/>
    </contour>
  </outline>
</glyph>
<glyph name="iogonek" format="2">
  <advance width="614"/>
  <unicode hex="012F"/>
  <outline>
    <contour>
      <point x="319" y="578" type="curve" smooth="yes"/>
      <point x="383" y="578"/>
      <point x="424" y="609"/>
      <point x="424" y="664" type="curve" smooth="yes"/>
      <point x="424" y="721"/>
      <point x="387" y="751"/>
      <point x="320" y="751" type="curve" smooth="yes"/>
      <point x="255" y="751"/>
      <point x="216" y="715"/>
      <point x="216" y="664" type="curve" smooth="yes"/>
      <point x="216" y="608"/>
      <point x="254" y="578"/>
    </contour>
    <contour>
      <point x="93" y="122" type="line"/>
      <point x="93" y="0" type="line"/>
      <point x="296" y="0" type="line"/>
      <point x="223" y="-84"/>
      <point x="201" y="-127"/>
      <point x="201" y="-158" type="curve" smooth="yes"/>
      <point x="201" y="-203"/>
      <point x="230" y="-227"/>
      <point x="294" y="-230" type="curve" smooth="yes"/>
      <point x="391" y="-234" type="line"/>
      <point x="401" y="-141" type="line"/>
      <point x="346" y="-137" type="line" smooth="yes"/>
      <point x="313" y="-135"/>
      <point x="305" y="-126"/>
      <point x="305" y="-106" type="curve" smooth="yes"/>
      <point x="305" y="-95"/>
      <point x="307" y="-79"/>
      <point x="362" y="0" type="curve"/>
      <point x="552" y="0" type="line"/>
      <point x="552" y="122" type="line"/>
      <point x="394" y="122" type="line"/>
      <point x="394" y="477" type="line"/>
      <point x="113" y="477" type="line"/>
      <point x="113" y="355" type="line"/>
      <point x="249" y="355" type="line"/>
      <point x="249" y="122" type="line"/>
    </contour>
  </outline>
</glyph>
<glyph name="Eng" format="2">
  <advance width="614"/>
  <unicode hex="014A"/>
  <outline>
    <contour>
      <point x="206" y="0" type="line"/>
      <point x="200" y="407" type="line"/>
      <point x="415" y="-26" type="line"/>
      <point x="408" y="-91"/>
      <point x="366" y="-114"/>
      <point x="301" y="-119" type="curve" smooth="yes"/>
      <point x="193" y="-127" type="line"/>
      <point x="198" y="-236" type="line"/>
      <point x="312" y="-230" type="line" smooth="yes"/>
      <point x="479" y="-221"/>
      <point x="540" y="-167"/>
      <point x="540" y="6" type="curve" smooth="yes"/>
      <point x="540" y="655" type="line"/>
      <point x="408" y="655" type="line"/>
      <point x="413" y="252" type="line"/>
      <point x="213" y="655" type="line"/>
      <point x="74" y="655" type="line"/>
      <point x="74" y="0" type="line"/>
    </contour>
  </outline>
</glyph>
<glyph name="OE" format="2">
  <advance width="614"/>
  <unicode hex="0152"/>
  <outline>
    <contour>
      <point x="306" y="0" type="curve" smooth="yes"/>
      <point x="574" y="0" type="line"/>
      <point x="574" y="112" type="line"/>
      <point x="424" y="112" type="line"/>
      <point x="424" y="276" type="line"/>
      <point x="560" y="276" type="line"/>
      <point x="560" y="384" type="line"/>
      <point x="424" y="384" type="line"/>
      <point x="424" y="543" type="line"/>
      <point x="574" y="543" type="line"/>
      <point x="574" y="655" type="line"/>
      <point x="326" y="655" type="line" smooth="yes"/>
      <point x="112" y="655"/>
      <point x="27" y="516"/>
      <point x="27" y="322" type="curve" smooth="yes"/>
      <point x="27" y="122"/>
      <point x="117" y="0"/>
    </contour>
    <contour>
      <point x="258" y="112" type="line" smooth="yes"/>
      <point x="200" y="116"/>
      <point x="164" y="178"/>
      <point x="164" y="324" type="curve" smooth="yes"/>
      <point x="164" y="472"/>
      <point x="199" y="536"/>
      <point x="275" y="543" type="curve" smooth="yes"/>
      <point x="289" y="544" type="line"/>
      <point x="289" y="110" type="line"/>
    </contour>
  </outline>
</glyph>
<glyph name="oe" format="2">
  <advance width="614"/>
  <unicode hex="0153"/>
  <outline>
    <contour>
      <point x="193" y="-13" type="curve" smooth="yes"/>
      <point x="237" y="-13"/>
      <point x="274" y="13"/>
      <point x="301" y="57" type="curve"/>
      <point x="328" y="13"/>
      <point x="373" y="-9"/>
      <point x="440" y="-11" type="curve" smooth="yes"/>
      <point x="515" y="-13" type="line"/>
      <point x="520" y="93" type="line"/>
      <point x="474" y="96" type="line" smooth="yes"/>
      <point x="400" y="101"/>
      <point x="371" y="122"/>
      <point x="363" y="192" type="curve"/>
      <point x="596" y="192" type="line"/>
      <point x="599" y="207"/>
      <point x="602" y="229"/>
      <point x="602" y="254" type="curve" smooth="yes"/>
      <point x="602" y="393"/>
      <point x="538" y="490"/>
      <point x="437" y="490" type="curve" smooth="yes"/>
      <point x="386" y="490"/>
      <point x="341" y="457"/>
      <point x="310" y="406" type="curve"/>
      <point x="284" y="459"/>
      <point x="244" y="490"/>
      <point x="197" y="490" type="curve" smooth="yes"/>
      <point x="90" y="490"/>
      <point x="14" y="383"/>
      <point x="14" y="238" type="curve" smooth="yes"/>
      <point x="14" y="88"/>
      <point x="88" y="-13"/>
    </contour>
    <contour>
      <point x="204" y="98" type="curve" smooth="yes"/>
      <point x="173" y="98"/>
      <point x="157" y="144"/>
      <point x="157" y="239" type="curve" smooth="yes"/>
      <point x="157" y="337"/>
      <point x="176" y="379"/>
      <point x="204" y="379" type="curve" smooth="yes"/>
      <point x="230" y="379"/>
      <point x="244" y="332"/>
      <point x="244" y="238" type="curve" smooth="yes"/>
      <point x="244" y="140"/>
      <point x="229" y="98"/>
    </contour>
    <contour>
      <point x="426" y="386" type="curve" smooth="yes"/>
      <point x="456" y="386"/>
      <point x="473" y="348"/>
      <point x="475" y="289" type="curve"/>
      <point x="362" y="289" type="line"/>
      <point x="370" y="353"/>
      <point x="395" y="386"/>
    </contour>
  </outline>
</glyph>
<glyph name="Scedilla" format="2">
  <advance width="614"/>
  <unicode hex="015E"/>
  <outline>
    <contour>
      <point x="302" y="106" type="curve" smooth="yes"/>
      <point x="247" y="106"/>
      <point x="178" y="122"/>
      <point x="84" y="151" type="curve"/>
      <point x="58" y="30" type="line"/>
      <point x="134" y="6"/>
      <point x="200" y="-9"/>
      <point x="263" y="-13" type="curve"/>
      <point x="232" y="-107" type="line"/>
      <point x="238" y="-117" type="line"/>
      <point x="339" y="-122"/>
      <point x="365" y="-132"/>
      <point x="365" y="-152" type="curve" smooth="yes"/>
      <point x="365" y="-178"/>
      <point x="335" y="-188"/>
      <point x="183" y="-201" type="curve"/>
      <point x="202" y="-270" type="line"/>
      <point x="424" y="-251"/>
      <point x="456" y="-217"/>
      <point x="456" y="-150" type="curve" smooth="yes"/>
      <point x="456" y="-106"/>
      <point x="427" y="-75"/>
      <point x="311" y="-62" type="curve"/>
      <point x="326" y="-13" type="line"/>
      <point x="477" y="-4"/>
      <point x="551" y="79"/>
      <point x="551" y="187" type="curve" smooth="yes"/>
      <point x="551" y="294"/>
      <point x="506" y="344"/>
      <point x="389" y="379" type="curve" smooth="yes"/>
      <point x="323" y="399" type="line" smooth="yes"/>
      <point x="237" y="425"/>
      <point x="223" y="448"/>
      <point x="223" y="487" type="curve" smooth="yes"/>
      <point x="223" y="523"/>
      <point x="248" y="548"/>
      <point x="319" y="548" type="curve" smooth="yes"/>
      <point x="366" y="548"/>
      <point x="428" y="537"/>
      <point x="509" y="519" type="curve"/>
      <point x="525" y="641" type="line"/>
      <point x="455" y="656"/>
      <point x="397" y="667"/>
      <point x="323" y="667" type="curve" smooth="yes"/>
      <point x="164" y="667"/>
      <point x="79" y="579"/>
      <point x="79" y="476" type="curve" smooth="yes"/>
      <point x="79" y="375"/>
      <point x="126" y="318"/>
      <point x="240" y="282" type="curve" smooth="yes"/>
      <point x="302" y="262" type="line" smooth="yes"/>
      <point x="393" y="233"/>
      <point x="406" y="216"/>
      <point x="406" y="176" type="curve" smooth="yes"/>
      <point x="406" y="132"/>
      <point x="380" y="106"/>
    </contour>
  </outline>
</glyph>
<glyph name="Tcedilla" format="2">
  <advance width="614"/>
  <unicode hex="0162"/>
  <outline>
    <contour>
      <point x="39" y="535" type="line"/>
      <point x="235" y="535" type="line"/>
      <point x="235" y="0" type="line"/>
      <point x="271" y="0" type="line"/>
      <point x="237" y="-101" type="line"/>
      <point x="243" y="-111" type="line"/>
      <point x="344" y="-116"/>
      <point x="370" y="-126"/>
      <point x="370" y="-146" type="curve" smooth="yes"/>
      <point x="370" y="-172"/>
      <point x="340" y="-182"/>
      <point x="188" y="-195" type="curve"/>
      <point x="207" y="-264" type="line"/>
      <point x="429" y="-245"/>
      <point x="461" y="-211"/>
      <point x="461" y="-144" type="curve" smooth="yes"/>
      <point x="461" y="-100"/>
      <point x="432" y="-69"/>
      <point x="316" y="-56" type="curve"/>
      <point x="333" y="0" type="line"/>
      <point x="379" y="0" type="line"/>
      <point x="379" y="535" type="line"/>
      <point x="575" y="535" type="line"/>
      <point x="575" y="655" type="line"/>
      <point x="39" y="655" type="line"/>
    </contour>
  </outline>
</glyph>
<glyph name="tcedilla" format="2">
  <advance width="614"/>
  <unicode hex="0163"/>
  <outline>
    <contour>
      <point x="197" y="198" type="line" smooth="yes"/>
      <point x="197" y="86"/>
      <point x="216" y="35"/>
      <point x="290" y="13" type="curve"/>
      <point x="252" y="-102" type="line"/>
      <point x="258" y="-112" type="line"/>
      <point x="359" y="-117"/>
      <point x="385" y="-127"/>
      <point x="385" y="-147" type="curve" smooth="yes"/>
      <point x="385" y="-173"/>
      <point x="355" y="-183"/>
      <point x="203" y="-196" type="curve"/>
      <point x="222" y="-265" type="line"/>
      <point x="444" y="-246"/>
      <point x="476" y="-212"/>
      <point x="476" y="-145" type="curve" smooth="yes"/>
      <point x="476" y="-101"/>
      <point x="447" y="-70"/>
      <point x="331" y="-57" type="curve"/>
      <point x="349" y="2" type="line"/>
      <point x="360" y="1"/>
      <point x="372" y="1"/>
      <point x="385" y="0" type="curve" smooth="yes"/>
      <point x="538" y="-6" type="line"/>
      <point x="549" y="118" type="line"/>
      <point x="420" y="126" type="line" smooth="yes"/>
      <point x="357" y="130"/>
      <point x="341" y="148"/>
      <point x="341" y="213" type="curve" smooth="yes"/>
      <point x="341" y="355" type="line"/>
      <point x="525" y="355" type="line"/>
      <point x="525" y="477" type="line"/>
      <point x="338" y="477" type="line"/>
      <point x="338" y="640" type="line"/>
      <point x="199" y="640" type="line"/>
      <point x="199" y="477" type="line"/>
      <point x="50" y="477" type="line"/>
      <point x="50" y="355" type="line"/>
      <point x="197" y="355" type="line"/>
    </contour>
  </outline>
</glyph>
<glyph name="Uogonek" format="2">
  <advance width="614"/>
  <unicode hex="0172"/>
  <outline>
    <contour>
      <point x="189" y="-163" type="curve" smooth="yes"/>
      <point x="189" y="-208"/>
      <point x="218" y="-232"/>
      <point x="282" y="-235" type="curve" smooth="yes"/>
      <point x="379" y="-239" type="line"/>
      <point x="389" y="-146" type="line"/>
      <point x="334" y="-142" type="line" smooth="yes"/>
      <point x="301" y="-140"/>
      <point x="293" y="-131"/>
      <point x="293" y="-111" type="curve" smooth="yes"/>
      <point x="293" y="-101"/>
      <point x="295" y="-85"/>
      <point x="344" y="-13" type="curve"/>
      <point x="480" y="-1"/>
      <point x="547" y="74"/>
      <point x="547" y="228" type="curve" smooth="yes"/>
      <point x="547" y="655" type="line"/>
      <point x="403" y="655" type="line"/>
      <point x="403" y="226" type="line" smooth="yes"/>
      <point x="403" y="148"/>
      <point x="369" y="118"/>
      <point x="307" y="118" type="curve" smooth="yes"/>
      <point x="244" y="118"/>
      <point x="212" y="151"/>
      <point x="212" y="226" type="curve" smooth="yes"/>
      <point x="212" y="655" type="line"/>
      <point x="67" y="655" type="line"/>
      <point x="67" y="228" type="line" smooth="yes"/>
      <point x="67" y="72"/>
      <point x="134" y="-6"/>
      <point x="276" y="-14" type="curve"/>
      <point x="209" y="-92"/>
      <point x="189" y="-133"/>
    </contour>
  </outline>
</glyph>
<glyph name="uogonek" format="2">
  <advance width="614"/>
  <unicode hex="0173"/>
  <outline>
    <contour>
      <point x="351" y="-158" type="curve" smooth="yes"/>
      <point x="351" y="-203"/>
      <point x="380" y="-227"/>
      <point x="444" y="-230" type="curve" smooth="yes"/>
      <point x="541" y="-234" type="line"/>
      <point x="551" y="-141" type="line"/>
      <point x="496" y="-137" type="line" smooth="yes"/>
      <point x="463" y="-135"/>
      <point x="455" y="-126"/>
      <point x="455" y="-106" type="curve" smooth="yes"/>
      <point x="455" y="-95"/>
      <point x="457" y="-79"/>
      <point x="512" y="0" type="curve"/>
      <point x="536" y="0" type="line"/>
      <point x="536" y="477" type="line"/>
      <point x="391" y="477" type="line"/>
      <point x="391" y="197" type="line"/>
      <point x="334" y="150"/>
      <point x="294" y="126"/>
      <point x="265" y="126" type="curve" smooth="yes"/>
      <point x="231" y="126"/>
      <point x="218" y="143"/>
      <point x="218" y="177" type="curve" smooth="yes"/>
      <point x="218" y="477" type="line"/>
      <point x="73" y="477" type="line"/>
      <point x="73" y="150" type="line" smooth="yes"/>
      <point x="73" y="43"/>
      <point x="115" y="-11"/>
      <point x="210" y="-11" type="curve" smooth="yes"/>
      <point x="269" y="-11"/>
      <point x="323" y="14"/>
      <point x="402" y="81" type="curve"/>
      <point x="409" y="0" type="line"/>
      <point x="446" y="0" type="line"/>
      <point x="373" y="-84"/>
      <point x="351" y="-127"/>
    </contour>
  </outline>
</glyph>
<glyph name="Schwa" format="2">
  <advance width="614"/>
  <unicode hex="018F"/>
  <outline>
    <contour>
      <point x="564" y="330" type="curve" smooth="yes"/>
      <point x="564" y="535"/>
      <point x="488" y="665"/>
      <point x="253" y="665" type="curve" smooth="yes"/>
      <point x="215" y="665"/>
      <point x="181" y="663"/>
      <point x="134" y="655" type="curve"/>
      <point x="146" y="536" type="line"/>
      <point x="185" y="544"/>
      <point x="216" y="545"/>
      <point x="244" y="545" type="curve" smooth="yes"/>
      <point x="352" y="545"/>
      <point x="404" y="508"/>
      <point x="416" y="389" type="curve"/>
      <point x="56" y="389" type="line"/>
      <point x="52" y="356"/>
      <point x="50" y="330"/>
      <point x="50" y="311" type="curve" smooth="yes"/>
      <point x="50" y="98"/>
      <point x="125" y="-15"/>
      <point x="299" y="-15" type="curve" smooth="yes"/>
      <point x="479" y="-15"/>
      <point x="564" y="106"/>
    </contour>
    <contour>
      <point x="298" y="105" type="curve" smooth="yes"/>
      <point x="244" y="105"/>
      <point x="200" y="141"/>
      <point x="195" y="278" type="curve"/>
      <point x="418" y="278" type="line"/>
      <point x="411" y="139"/>
      <point x="371" y="105"/>
    </contour>
  </outline>
</glyph>
<glyph name="uhorn" format="2">
  <advance width="614"/>
  <unicode hex="01B0"/>
  <outline>
    <contour>
      <point x="536" y="0" type="line"/>
      <point x="536" y="396" type="line"/>
      <point x="615" y="396"/>
      <point x="664" y="452"/>
      <point x="667" y="589" type="curve"/>
      <point x="539" y="589" type="line"/>
      <point x="535" y="507"/>
      <point x="514" y="477"/>
      <point x="443" y="477" type="curve" smooth="yes"/>
      <point x="391" y="477" type="line"/>
      <point x="391" y="197" type="line"/>
      <point x="334" y="150"/>
      <point x="294" y="126"/>
      <point x="265" y="126" type="curve" smooth="yes"/>
      <point x="231" y="126"/>
      <point x="218" y="143"/>
      <point x="218" y="177" type="curve" smooth="yes"/>
      <point x="218" y="477" type="line"/>
      <point x="73" y="477" type="line"/>
      <point x="73" y="150" type="line" smooth="yes"/>
      <point x="73" y="43"/>
      <point x="115" y="-11"/>
      <point x="210" y="-11" type="curve" smooth="yes"/>
      <point x="269" y="-11"/>
      <point x="323" y="14"/>
      <point x="402" y="81" type="curve"/>
      <point x="409" y="0" type="line"/>
    </contour>
  </outline>
</glyph>
<glyph name="oogonek" format="2">
  <advance width="614"/>
  <unicode hex="01EB"/>
  <outline>
    <contour>
      <point x="191" y="-163" type="curve" smooth="yes"/>
      <point x="191" y="-208"/>
      <point x="220" y="-232"/>
      <point x="284" y="-235" type="curve" smooth="yes"/>
      <point x="381" y="-239" type="line"/>
      <point x="391" y="-146" type="line"/>
      <point x="336" y="-142" type="line" smooth="yes"/>
      <point x="303" y="-140"/>
      <point x="295" y="-131"/>
      <point x="295" y="-111" type="curve" smooth="yes"/>
      <point x="295" y="-101"/>
      <point x="297" y="-85"/>
      <point x="347" y="-12" type="curve"/>
      <point x="478" y="5"/>
      <point x="567" y="106"/>
      <point x="567" y="239" type="curve" smooth="yes"/>
      <point x="567" y="389"/>
      <point x="460" y="492"/>
      <point x="309" y="492" type="curve" smooth="yes"/>
      <point x="155" y="492"/>
      <point x="47" y="384"/>
      <point x="47" y="238" type="curve" smooth="yes"/>
      <point x="47" y="96"/>
      <point x="141" y="-2"/>
      <point x="278" y="-14" type="curve"/>
      <point x="211" y="-92"/>
      <point x="191" y="-133"/>
    </contour>
    <contour>
      <point x="307" y="105" type="curve" smooth="yes"/>
      <point x="237" y="105"/>
      <point x="197" y="149"/>
      <point x="197" y="239" type="curve" smooth="yes"/>
      <point x="197" y="332"/>
      <point x="241" y="372"/>
      <point x="307" y="372" type="curve" smooth="yes"/>
      <point x="377" y="372"/>
      <point x="417" y="327"/>
      <point x="417" y="238" type="curve" smooth="yes"/>
      <point x="417" y="145"/>
      <point x="374" y="105"/>
    </contour>
  </outline>
</glyph>
<glyph name="schwa" format="2">
  <advance width="614"/>
  <unicode hex="0259"/>
  <outline>
    <contour>
      <point x="231" y="379" type="line" smooth="yes"/>
      <point x="353" y="374"/>
      <point x="401" y="353"/>
      <point x="415" y="287" type="curve"/>
      <point x="63" y="287" type="line"/>
      <point x="60" y="272"/>
      <point x="57" y="250"/>
      <point x="57" y="225" type="curve" smooth="yes"/>
      <point x="57" y="85"/>
      <point x="152" y="-13"/>
      <point x="299" y="-13" type="curve" smooth="yes"/>
      <point x="459" y="-13"/>
      <point x="557" y="104"/>
      <point x="557" y="244" type="curve" smooth="yes"/>
      <point x="557" y="401"/>
      <point x="481" y="487"/>
      <point x="279" y="490" type="curve" smooth="yes"/>
      <point x="158" y="492" type="line"/>
      <point x="153" y="382" type="line"/>
    </contour>
    <contour>
      <point x="298" y="95" type="curve" smooth="yes"/>
      <point x="238" y="95"/>
      <point x="200" y="132"/>
      <point x="195" y="190" type="curve"/>
      <point x="415" y="190" type="line"/>
      <point x="401" y="128"/>
      <point x="359" y="95"/>
    </contour>
  </outline>
</glyph>
<glyph name="ringhalfleft" format="2">
  <advance width="614"/>
  <unicode hex="02BF"/>
  <outline>
    <contour>
      <point x="418" y="725" type="line"/>
      <point x="235" y="725"/>
      <point x="154" y="638"/>
      <point x="154" y="525" type="curve" smooth="yes"/>
      <point x="154" y="406"/>
      <point x="235" y="315"/>
      <point x="418" y="315" type="curve"/>
      <point x="418" y="415" type="line"/>
      <point x="303" y="415"/>
      <point x="270" y="459"/>
      <point x="270" y="525" type="curve" smooth="yes"/>
      <point x="270" y="585"/>
      <point x="304" y="625"/>
      <point x="418" y="625" type="curve"/>
    </contour>
  </outline>
</glyph>
<glyph name="hookcmb" format="2">
  <unicode hex="0309"/>
  <anchor x="0" y="502" name="_aboveLC"/>
  <anchor x="0" y="472" name="_aboveLCx"/>
  <outline>
    <contour>
      <point x="-96" y="553" type="line"/>
      <point x="66" y="580"/>
      <point x="124" y="629"/>
      <point x="124" y="682" type="curve" smooth="yes"/>
      <point x="124" y="731"/>
      <point x="82" y="768"/>
      <point x="-90" y="787" type="curve"/>
      <point x="-142" y="718" type="line"/>
      <point x="-142" y="716" type="line"/>
      <point x="-15" y="699"/>
      <point x="0" y="682"/>
      <point x="0" y="666" type="curve" smooth="yes"/>
      <point x="0" y="650"/>
      <point x="-17" y="637"/>
      <point x="-126" y="612" type="curve"/>
      <point x="-126" y="610" type="line"/>
    </contour>
  </outline>
</glyph>
<glyph name="hungarumlautcmb" format="2">
  <unicode hex="030B"/>
  <anchor x="0" y="502" name="_aboveLC"/>
  <anchor x="0" y="472" name="_aboveLCx"/>
  <outline>
    <contour>
      <point x="-211" y="614" type="line"/>
      <point x="-151" y="553" type="line"/>
      <point x="3" y="691" type="line"/>
      <point x="-71" y="762" type="line"/>
    </contour>
    <contour>
      <point x="38" y="614" type="line"/>
      <point x="98" y="553" type="line"/>
      <point x="251" y="691" type="line"/>
      <point x="178" y="762" type="line"/>
    </contour>
  </outline>
</glyph>
<glyph name="commaturnedabovecmb" format="2">
  <unicode hex="0312"/>
  <anchor x="0" y="502" name="_aboveLC"/>
  <anchor x="0" y="472" name="_aboveLCx"/>
  <outline>
    <contour>
      <point x="96" y="787" type="line"/>
      <point x="-66" y="760"/>
      <point x="-124" y="711"/>
      <point x="-124" y="658" type="curve" smooth="yes"/>
      <point x="-124" y="609"/>
      <point x="-82" y="572"/>
      <point x="90" y="553" type="curve"/>
      <point x="142" y="622" type="line"/>
      <point x="142" y="624" type="line"/>
      <point x="15" y="641"/>
      <point x="0" y="658"/>
      <point x="0" y="674" type="curve" smooth="yes"/>
      <point x="0" y="690"/>
      <point x="17" y="703"/>
      <point x="126" y="728" type="curve"/>
      <point x="126" y="730" type="line"/>
    </contour>
  </outline>
</glyph>
<glyph name="ogonekcmb" format="2">
  <unicode hex="0328"/>
  <anchor x="0" y="-10" name="_belowogonek"/>
  <outline>
    <contour>
      <point x="-121" y="-158" type="curve" smooth="yes"/>
      <point x="-121" y="-203"/>
      <point x="-92" y="-227"/>
      <point x="-28" y="-230" type="curve" smooth="yes"/>
      <point x="69" y="-234" type="line"/>
      <point x="79" y="-141" type="line"/>
      <point x="24" y="-137" type="line" smooth="yes"/>
      <point x="-9" y="-135"/>
      <point x="-17" y="-126"/>
      <point x="-17" y="-106" type="curve" smooth="yes"/>
      <point x="-17" y="-95"/>
      <point x="-15" y="-78"/>
      <point x="45" y="7" type="curve"/>
      <point x="-15" y="13" type="line"/>
      <point x="-97" y="-80"/>
      <point x="-121" y="-125"/>
    </contour>
  </outline>
</glyph>
<glyph name="brevebelowcmb" format="2">
  <unicode hex="032E"/>
  <anchor x="0" y="-35" name="_below"/>
  <anchor x="0" y="-5" name="_belowx"/>
  <outline>
    <contour>
      <point x="0" y="-183" type="curve" smooth="yes"/>
      <point x="-43" y="-183"/>
      <point x="-85" y="-160"/>
      <point x="-114" y="-76" type="curve"/>
      <point x="-198" y="-106" type="line"/>
      <point x="-164" y="-233"/>
      <point x="-82" y="-278"/>
      <point x="0" y="-278" type="curve" smooth="yes"/>
      <point x="82" y="-278"/>
      <point x="164" y="-233"/>
      <point x="198" y="-106" type="curve"/>
      <point x="114" y="-76" type="line"/>
      <point x="86" y="-159"/>
      <point x="43" y="-183"/>
    </contour>
  </outline>
</glyph>
<glyph name="macronbelowcmb" format="2">
  <unicode hex="0331"/>
  <anchor x="0" y="-35" name="_below"/>
  <anchor x="0" y="-5" name="_belowx"/>
  <outline>
    <contour>
      <point x="-171" y="-214" type="line"/>
      <point x="171" y="-214" type="line"/>
      <point x="171" y="-116" type="line"/>
      <point x="-171" y="-116" type="line"/>
    </contour>
  </outline>
</glyph>
<glyph name="Hcedilla" format="2">
  <advance width="614"/>
  <unicode hex="1E28"/>
  <outline>
    <contour>
      <point x="75" y="655" type="line"/>
      <point x="75" y="0" type="line"/>
      <point x="112" y="0" type="line"/>
      <point x="78" y="-102" type="line"/>
      <point x="84" y="-112" type="line"/>
      <point x="185" y="-117"/>
      <point x="211" y="-127"/>
      <point x="211" y="-147" type="curve" smooth="yes"/>
      <point x="211" y="-173"/>
      <point x="181" y="-183"/>
      <point x="29" y="-196" type="curve"/>
      <point x="48" y="-265" type="line"/>
      <point x="270" y="-246"/>
      <point x="302" y="-212"/>
      <point x="302" y="-145" type="curve" smooth="yes"/>
      <point x="302" y="-101"/>
      <point x="273" y="-70"/>
      <point x="157" y="-57" type="curve"/>
      <point x="174" y="0" type="line"/>
      <point x="219" y="0" type="line"/>
      <point x="219" y="270" type="line"/>
      <point x="395" y="270" type="line"/>
      <point x="395" y="0" type="line"/>
      <point x="539" y="0" type="line"/>
      <point x="539" y="655" type="line"/>
      <point x="395" y="655" type="line"/>
      <point x="395" y="390" type="line"/>
      <point x="219" y="390" type="line"/>
      <point x="219" y="655" type="line"/>
    </contour>
  </outline>
</glyph>
<glyph name="hcedilla" format="2">
  <advance width="614"/>
  <unicode hex="1E29"/>
  <outline>
    <contour>
      <point x="223" y="710" type="line"/>
      <point x="78" y="710" type="line"/>
      <point x="78" y="0" type="line"/>
      <point x="115" y="0" type="line"/>
      <point x="81" y="-102" type="line"/>
      <point x="87" y="-112" type="line"/>
      <point x="188" y="-117"/>
      <point x="214" y="-127"/>
      <point x="214" y="-147" type="curve" smooth="yes"/>
      <point x="214" y="-173"/>
      <point x="184" y="-183"/>
      <point x="32" y="-196" type="curve"/>
      <point x="51" y="-265" type="line"/>
      <point x="273" y="-246"/>
      <point x="305" y="-212"/>
      <point x="305" y="-145" type="curve" smooth="yes"/>
      <point x="305" y="-101"/>
      <point x="276" y="-70"/>
      <point x="160" y="-57" type="curve"/>
      <point x="177" y="0" type="line"/>
      <point x="223" y="0" type="line"/>
      <point x="223" y="280" type="line"/>
      <point x="280" y="327"/>
      <point x="320" y="351"/>
      <point x="349" y="351" type="curve" smooth="yes"/>
      <point x="383" y="351"/>
      <point x="396" y="334"/>
      <point x="396" y="300" type="curve" smooth="yes"/>
      <point x="396" y="0" type="line"/>
      <point x="541" y="0" type="line"/>
      <point x="541" y="327" type="line" smooth="yes"/>
      <point x="541" y="434"/>
      <point x="499" y="488"/>
      <point x="404" y="488" type="curve" smooth="yes"/>
      <point x="348" y="488"/>
      <point x="296" y="465"/>
      <point x="223" y="405" type="curve"/>
    </contour>
  </outline>
</glyph>
<glyph name="uni1E9E" format="2">
  <advance width="614"/>
  <unicode hex="1E9E"/>
  <outline>
    <contour>
      <point x="326" y="296" type="line"/>
      <point x="447" y="202"/>
      <point x="457" y="182"/>
      <point x="457" y="151" type="curve" smooth="yes"/>
      <point x="457" y="127"/>
      <point x="443" y="108"/>
      <point x="399" y="108" type="curve" smooth="yes"/>
      <point x="371" y="108"/>
      <point x="350" y="110"/>
      <point x="323" y="115" type="curve"/>
      <point x="315" y="3" type="line"/>
      <point x="347" y="-3"/>
      <point x="379" y="-6"/>
      <point x="419" y="-6" type="curve" smooth="yes"/>
      <point x="520" y="-6"/>
      <point x="591" y="54"/>
      <point x="591" y="148" type="curve" smooth="yes"/>
      <point x="591" y="215"/>
      <point x="572" y="258"/>
      <point x="461" y="341" type="curve"/>
      <point x="559" y="556" type="line"/>
      <point x="559" y="583" type="line"/>
      <point x="454" y="652"/>
      <point x="379" y="670"/>
      <point x="307" y="670" type="curve" smooth="yes"/>
      <point x="164" y="670"/>
      <point x="67" y="587"/>
      <point x="67" y="422" type="curve" smooth="yes"/>
      <point x="67" y="0" type="line"/>
      <point x="211" y="0" type="line"/>
      <point x="211" y="433" type="line" smooth="yes"/>
      <point x="211" y="515"/>
      <point x="249" y="550"/>
      <point x="318" y="550" type="curve" smooth="yes"/>
      <point x="350" y="550"/>
      <point x="377" y="544"/>
      <point x="413" y="527" type="curve"/>
      <point x="326" y="336" type="line"/>
    </contour>
  </outline>
</glyph>
<glyph name="emdash" format="2">
  <advance width="614"/>
  <unicode hex="2014"/>
  <outline>
    <contour>
      <point x="50" y="402" type="line"/>
      <point x="50" y="258" type="line"/>
      <point x="564" y="258" type="line"/>
      <point x="564" y="402" type="line"/>
    </contour>
  </outline>
</glyph>
<glyph name="quotedblleft" format="2">
  <advance width="614"/>
  <unicode hex="201C"/>
  <outline>
    <contour>
      <point x="335" y="710" type="line"/>
      <point x="227" y="710" type="line"/>
      <point x="115" y="622"/>
      <point x="61" y="529"/>
      <point x="19" y="379" type="curve"/>
      <point x="193" y="379" type="line"/>
      <point x="218" y="513"/>
      <point x="247" y="575"/>
      <point x="335" y="708" type="curve"/>
    </contour>
    <contour>
      <point x="598" y="710" type="line"/>
      <point x="490" y="710" type="line"/>
      <point x="378" y="622"/>
      <point x="325" y="529"/>
      <point x="283" y="379" type="curve"/>
      <point x="457" y="379" type="line"/>
      <point x="482" y="513"/>
      <point x="510" y="575"/>
      <point x="598" y="708" type="curve"/>
    </contour>
  </outline>
</glyph>
<glyph name="dagger" format="2">
  <advance width="614"/>
  <unicode hex="2020"/>
  <outline>
    <contour>
      <point x="539" y="419" type="curve"/>
      <point x="539" y="533" type="line"/>
      <point x="471" y="533"/>
      <point x="401" y="503"/>
      <point x="333" y="496" type="curve"/>
      <point x="338" y="568"/>
      <point x="369" y="640"/>
      <point x="369" y="710" type="curve"/>
      <point x="245" y="710" type="line"/>
      <point x="245" y="640"/>
      <point x="277" y="567"/>
      <point x="283" y="496" type="curve"/>
      <point x="213" y="502"/>
      <point x="140" y="533"/>
      <point x="75" y="533" type="curve"/>
      <point x="75" y="419" type="line"/>
      <point x="139" y="419"/>
      <point x="213" y="452"/>
      <point x="284" y="459" type="curve"/>
      <point x="281" y="306"/>
      <point x="245" y="152"/>
      <point x="245" y="0" type="curve"/>
      <point x="369" y="0" type="line"/>
      <point x="369" y="152"/>
      <point x="335" y="306"/>
      <point x="332" y="459" type="curve"/>
      <point x="401" y="452"/>
      <point x="471" y="419"/>
    </contour>
  </outline>
</glyph>
<glyph name="daggerdbl" format="2">
  <advance width="614"/>
  <unicode hex="2021"/>
  <outline>
    <contour>
      <point x="524" y="179" type="curve"/>
      <point x="524" y="293" type="line"/>
      <point x="460" y="293"/>
      <point x="396" y="263"/>
      <point x="332" y="256" type="curve"/>
      <point x="332" y="459" type="line"/>
      <point x="402" y="452"/>
      <point x="474" y="419"/>
      <point x="539" y="419" type="curve"/>
      <point x="539" y="533" type="line"/>
      <point x="472" y="533"/>
      <point x="402" y="503"/>
      <point x="333" y="496" type="curve"/>
      <point x="338" y="568"/>
      <point x="369" y="639"/>
      <point x="369" y="710" type="curve"/>
      <point x="245" y="710" type="line"/>
      <point x="245" y="639"/>
      <point x="278" y="567"/>
      <point x="283" y="496" type="curve"/>
      <point x="214" y="502"/>
      <point x="146" y="533"/>
      <point x="75" y="533" type="curve"/>
      <point x="75" y="419" type="line"/>
      <point x="144" y="419"/>
      <point x="214" y="452"/>
      <point x="284" y="459" type="curve"/>
      <point x="284" y="256" type="line"/>
      <point x="220" y="263"/>
      <point x="157" y="293"/>
      <point x="91" y="293" type="curve"/>
      <point x="91" y="179" type="line"/>
      <point x="157" y="179"/>
      <point x="220" y="212"/>
      <point x="283" y="219" type="curve"/>
      <point x="279" y="146"/>
      <point x="248" y="73"/>
      <point x="248" y="0" type="curve"/>
      <point x="366" y="0" type="line"/>
      <point x="366" y="72"/>
      <point x="337" y="146"/>
      <point x="332" y="218" type="curve"/>
      <point x="396" y="211"/>
      <point x="460" y="179"/>
    </contour>
  </outline>
</glyph>
<glyph name="bullet" format="2">
  <advance width="614"/>
  <unicode hex="2022"/>
  <outline>
    <contour>
      <point x="308" y="489" type="curve" smooth="yes"/>
      <point x="200" y="489"/>
      <point x="144" y="422"/>
      <point x="144" y="330" type="curve" smooth="yes"/>
      <point x="144" y="218"/>
      <point x="213" y="172"/>
      <point x="308" y="172" type="curve" smooth="yes"/>
      <point x="414" y="172"/>
      <point x="470" y="238"/>
      <point x="470" y="330" type="curve" smooth="yes"/>
      <point x="470" y="442"/>
      <point x="402" y="489"/>
    </contour>
  </outline>
</glyph>
<glyph name="twodotleader" format="2">
  <advance width="614"/>
  <unicode hex="2025"/>
  <outline>
    <contour>
      <point x="152" y="-15" type="curve" smooth="yes"/>
      <point x="214" y="-15"/>
      <point x="249" y="22"/>
      <point x="249" y="94" type="curve" smooth="yes"/>
      <point x="249" y="168"/>
      <point x="219" y="202"/>
      <point x="154" y="202" type="curve" smooth="yes"/>
      <point x="90" y="202"/>
      <point x="58" y="160"/>
      <point x="58" y="93" type="curve" smooth="yes"/>
      <point x="58" y="21"/>
      <point x="89" y="-15"/>
    </contour>
    <contour>
      <point x="460" y="-15" type="curve" smooth="yes"/>
      <point x="521" y="-15"/>
      <point x="556" y="22"/>
      <point x="556" y="94" type="curve" smooth="yes"/>
      <point x="556" y="168"/>
      <point x="526" y="202"/>
      <point x="460" y="202" type="curve" smooth="yes"/>
      <point x="397" y="202"/>
      <point x="365" y="160"/>
      <point x="365" y="93" type="curve" smooth="yes"/>
      <point x="365" y="21"/>
      <point x="396" y="-15"/>
    </contour>
  </outline>
</glyph>
<glyph name="ellipsis" format="2">
  <advance width="614"/>
  <unicode hex="2026"/>
  <outline>
    <contour>
      <point x="307" y="-15" type="curve" smooth="yes"/>
      <point x="352" y="-15"/>
      <point x="375" y="11"/>
      <point x="375" y="75" type="curve" smooth="yes"/>
      <point x="375" y="133"/>
      <point x="356" y="162"/>
      <point x="309" y="162" type="curve" smooth="yes"/>
      <point x="262" y="162"/>
      <point x="239" y="128"/>
      <point x="239" y="75" type="curve" smooth="yes"/>
      <point x="239" y="8"/>
      <point x="266" y="-15"/>
    </contour>
    <contour>
      <point x="512" y="-15" type="curve" smooth="yes"/>
      <point x="557" y="-15"/>
      <point x="580" y="11"/>
      <point x="580" y="75" type="curve" smooth="yes"/>
      <point x="580" y="133"/>
      <point x="561" y="162"/>
      <point x="514" y="162" type="curve" smooth="yes"/>
      <point x="467" y="162"/>
      <point x="444" y="128"/>
      <point x="444" y="75" type="curve" smooth="yes"/>
      <point x="444" y="8"/>
      <point x="471" y="-15"/>
    </contour>
    <contour>
      <point x="102" y="-15" type="curve" smooth="yes"/>
      <point x="147" y="-15"/>
      <point x="170" y="11"/>
      <point x="170" y="75" type="curve" smooth="yes"/>
      <point x="170" y="133"/>
      <point x="151" y="162"/>
      <point x="104" y="162" type="curve" smooth="yes"/>
      <point x="57" y="162"/>
      <point x="34" y="128"/>
      <point x="34" y="75" type="curve" smooth="yes"/>
      <point x="34" y="8"/>
      <point x="61" y="-15"/>
    </contour>
  </outline>
</glyph>
<glyph name="dong" format="2">
  <advance width="614"/>
  <unicode hex="20AB"/>
  <outline>
    <contour>
      <point x="232" y="-11" type="curve" smooth="yes"/>
      <point x="288" y="-11"/>
      <point x="336" y="9"/>
      <point x="380" y="57" type="curve"/>
      <point x="389" y="0" type="line"/>
      <point x="515" y="0" type="line"/>
      <point x="515" y="488" type="line"/>
      <point x="592" y="488" type="line"/>
      <point x="592" y="564" type="line"/>
      <point x="515" y="564" type="line"/>
      <point x="515" y="655" type="line"/>
      <point x="370" y="655" type="line"/>
      <point x="370" y="564" type="line"/>
      <point x="242" y="564" type="line"/>
      <point x="242" y="488" type="line"/>
      <point x="370" y="488" type="line"/>
      <point x="370" y="383" type="line"/>
      <point x="339" y="401"/>
      <point x="308" y="407"/>
      <point x="269" y="407" type="curve" smooth="yes"/>
      <point x="139" y="407"/>
      <point x="44" y="320"/>
      <point x="44" y="197" type="curve" smooth="yes"/>
      <point x="44" y="62"/>
      <point x="127" y="-11"/>
    </contour>
    <contour>
      <point x="194" y="208" type="curve" smooth="yes"/>
      <point x="194" y="267"/>
      <point x="231" y="306"/>
      <point x="292" y="306" type="curve" smooth="yes"/>
      <point x="318" y="306"/>
      <point x="340" y="300"/>
      <point x="370" y="283" type="curve"/>
      <point x="370" y="139" type="line"/>
      <point x="338" y="117"/>
      <point x="312" y="108"/>
      <point x="284" y="108" type="curve" smooth="yes"/>
      <point x="229" y="108"/>
      <point x="194" y="144"/>
    </contour>
    <contour>
      <point x="60" y="-189" type="line"/>
      <point x="509" y="-189" type="line"/>
      <point x="509" y="-101" type="line"/>
      <point x="60" y="-101" type="line"/>
    </contour>
  </outline>
</glyph>
<glyph name="Euro" format="2">
  <advance width="614"/>
  <unicode hex="20AC"/>
  <outline>
    <contour>
      <point x="40" y="205" type="line"/>
      <point x="129" y="205" type="line"/>
      <point x="141" y="84"/>
      <point x="229" y="-15"/>
      <point x="383" y="-15" type="curve" smooth="yes"/>
      <point x="447" y="-15"/>
      <point x="498" y="-4"/>
      <point x="559" y="9" type="curve"/>
      <point x="543" y="131" type="line"/>
      <point x="473" y="115"/>
      <point x="420" y="104"/>
      <point x="379" y="104" type="curve" smooth="yes"/>
      <point x="305" y="104"/>
      <point x="276" y="146"/>
      <point x="272" y="209" type="curve"/>
      <point x="429" y="209" type="line"/>
      <point x="429" y="285" type="line"/>
      <point x="271" y="285" type="line"/>
      <point x="271" y="370" type="line"/>
      <point x="429" y="370" type="line"/>
      <point x="429" y="446" type="line"/>
      <point x="272" y="446" type="line"/>
      <point x="277" y="507"/>
      <point x="306" y="548"/>
      <point x="379" y="548" type="curve" smooth="yes"/>
      <point x="420" y="548"/>
      <point x="473" y="537"/>
      <point x="543" y="521" type="curve"/>
      <point x="559" y="643" type="line"/>
      <point x="498" y="656"/>
      <point x="447" y="667"/>
      <point x="383" y="667" type="curve" smooth="yes"/>
      <point x="230" y="667"/>
      <point x="143" y="570"/>
      <point x="129" y="450" type="curve"/>
      <point x="40" y="450" type="line"/>
      <point x="40" y="370" type="line"/>
      <point x="127" y="370" type="line"/>
      <point x="127" y="285" type="line"/>
      <point x="40" y="285" type="line"/>
    </contour>
  </outline>
</glyph>
<glyph name="peso" format="2">
  <advance width="614"/>
  <unicode hex="20B1"/>
  <outline>
    <contour>
      <point x="22" y="399" type="line"/>
      <point x="98" y="399" type="line"/>
      <point x="98" y="0" type="line"/>
      <point x="243" y="0" type="line"/>
      <point x="243" y="213" type="line"/>
      <point x="274" y="213" type="line" smooth="yes"/>
      <point x="415" y="213"/>
      <point x="512" y="284"/>
      <point x="529" y="399" type="curve"/>
      <point x="599" y="399" type="line"/>
      <point x="599" y="475" type="line"/>
      <point x="529" y="475" type="line"/>
      <point x="513" y="585"/>
      <point x="428" y="655"/>
      <point x="285" y="655" type="curve" smooth="yes"/>
      <point x="98" y="655" type="line"/>
      <point x="98" y="475" type="line"/>
      <point x="22" y="475" type="line"/>
    </contour>
    <contour>
      <point x="295" y="535" type="line" smooth="yes"/>
      <point x="356" y="535"/>
      <point x="385" y="499"/>
      <point x="385" y="434" type="curve" smooth="yes"/>
      <point x="385" y="369"/>
      <point x="354" y="330"/>
      <point x="290" y="330" type="curve" smooth="yes"/>
      <point x="243" y="330" type="line"/>
      <point x="243" y="535" type="line"/>
    </contour>
  </outline>
</glyph>
<glyph name="uni20B9" format="2">
  <advance width="614"/>
  <unicode hex="20B9"/>
  <outline>
    <contour>
      <point x="60" y="409" type="line"/>
      <point x="326" y="409" type="line"/>
      <point x="322" y="339"/>
      <point x="290" y="308"/>
      <point x="223" y="308" type="curve" smooth="yes"/>
      <point x="60" y="308" type="line"/>
      <point x="60" y="209" type="line"/>
      <point x="346" y="0" type="line"/>
      <point x="552" y="0" type="line"/>
      <point x="552" y="2" type="line"/>
      <point x="279" y="199" type="line"/>
      <point x="279" y="203" type="line"/>
      <point x="279" y="203" type="line"/>
      <point x="400" y="220"/>
      <point x="465" y="290"/>
      <point x="470" y="409" type="curve"/>
      <point x="558" y="409" type="line"/>
      <point x="558" y="493" type="line"/>
      <point x="470" y="493" type="line"/>
      <point x="470" y="579" type="line"/>
      <point x="558" y="579" type="line"/>
      <point x="558" y="655" type="line"/>
      <point x="60" y="655" type="line"/>
      <point x="60" y="579" type="line"/>
      <point x="326" y="579" type="line"/>
      <point x="326" y="493" type="line"/>
      <point x="60" y="493" type="line"/>
    </contour>
  </outline>
</glyph>
<glyph name="uni20BA" format="2">
  <advance width="614"/>
  <unicode hex="20BA"/>
  <outline>
    <contour>
      <point x="28" y="131" type="line"/>
      <point x="98" y="175" type="line"/>
      <point x="98" y="0" type="line"/>
      <point x="300" y="0" type="line" smooth="yes"/>
      <point x="451" y="0"/>
      <point x="540" y="70"/>
      <point x="575" y="234" type="curve"/>
      <point x="445" y="259" type="line"/>
      <point x="422" y="159"/>
      <point x="374" y="119"/>
      <point x="298" y="119" type="curve" smooth="yes"/>
      <point x="243" y="119" type="line"/>
      <point x="243" y="252" type="line"/>
      <point x="432" y="359" type="line"/>
      <point x="432" y="442" type="line"/>
      <point x="243" y="333" type="line"/>
      <point x="243" y="425" type="line"/>
      <point x="432" y="535" type="line"/>
      <point x="432" y="619" type="line"/>
      <point x="243" y="509" type="line"/>
      <point x="243" y="655" type="line"/>
      <point x="98" y="655" type="line"/>
      <point x="98" y="433" type="line"/>
      <point x="28" y="391" type="line"/>
      <point x="28" y="307" type="line"/>
      <point x="98" y="349" type="line"/>
      <point x="98" y="257" type="line"/>
      <point x="28" y="215" type="line"/>
    </contour>
  </outline>
</glyph>
<glyph name="uni20BD" format="2">
  <advance width="614"/>
  <unicode hex="20BD"/>
  <outline>
    <contour>
      <point x="21" y="117" type="line"/>
      <point x="98" y="117" type="line"/>
      <point x="98" y="0" type="line"/>
      <point x="240" y="0" type="line"/>
      <point x="240" y="117" type="line"/>
      <point x="427" y="117" type="line"/>
      <point x="427" y="193" type="line"/>
      <point x="240" y="193" type="line"/>
      <point x="240" y="283" type="line"/>
      <point x="338" y="283" type="line" smooth="yes"/>
      <point x="522" y="283"/>
      <point x="589" y="341"/>
      <point x="589" y="464" type="curve" smooth="yes"/>
      <point x="589" y="584"/>
      <point x="518" y="655"/>
      <point x="364" y="655" type="curve" smooth="yes"/>
      <point x="98" y="655" type="line"/>
      <point x="98" y="359" type="line"/>
      <point x="21" y="359" type="line"/>
      <point x="21" y="283" type="line"/>
      <point x="98" y="283" type="line"/>
      <point x="98" y="193" type="line"/>
      <point x="21" y="193" type="line"/>
    </contour>
    <contour>
      <point x="343" y="535" type="line" smooth="yes"/>
      <point x="415" y="535"/>
      <point x="447" y="508"/>
      <point x="447" y="449" type="curve" smooth="yes"/>
      <point x="447" y="393"/>
      <point x="412" y="359"/>
      <point x="323" y="359" type="curve" smooth="yes"/>
      <point x="240" y="359" type="line"/>
      <point x="240" y="535" type="line"/>
    </contour>
  </outline>
</glyph>
<glyph name="servicemark" format="2">
  <advance width="614"/>
  <unicode hex="2120"/>
  <outline>
    <contour>
      <point x="142" y="455" type="curve" smooth="yes"/>
      <point x="118" y="455"/>
      <point x="81" y="465"/>
      <point x="45" y="480" type="curve"/>
      <point x="32" y="421" type="line"/>
      <point x="73" y="404"/>
      <point x="108" y="397"/>
      <point x="142" y="397" type="curve" smooth="yes"/>
      <point x="207" y="397"/>
      <point x="248" y="429"/>
      <point x="248" y="488" type="curve" smooth="yes"/>
      <point x="248" y="541"/>
      <point x="229" y="561"/>
      <point x="177" y="582" type="curve" smooth="yes"/>
      <point x="142" y="596" type="line" smooth="yes"/>
      <point x="114" y="607"/>
      <point x="107" y="614"/>
      <point x="107" y="631" type="curve" smooth="yes"/>
      <point x="107" y="646"/>
      <point x="118" y="659"/>
      <point x="145" y="659" type="curve" smooth="yes"/>
      <point x="167" y="659"/>
      <point x="194" y="654"/>
      <point x="229" y="642" type="curve"/>
      <point x="239" y="701" type="line"/>
      <point x="202" y="712"/>
      <point x="177" y="717"/>
      <point x="145" y="717" type="curve" smooth="yes"/>
      <point x="75" y="717"/>
      <point x="44" y="674"/>
      <point x="44" y="630" type="curve" smooth="yes"/>
      <point x="44" y="588"/>
      <point x="60" y="559"/>
      <point x="107" y="540" type="curve" smooth="yes"/>
      <point x="141" y="526" type="line" smooth="yes"/>
      <point x="174" y="513"/>
      <point x="184" y="504"/>
      <point x="184" y="487" type="curve" smooth="yes"/>
      <point x="184" y="467"/>
      <point x="170" y="455"/>
    </contour>
    <contour>
      <point x="561" y="710" type="line"/>
      <point x="486" y="710" type="line"/>
      <point x="436" y="594" type="line"/>
      <point x="384" y="710" type="line"/>
      <point x="309" y="710" type="line"/>
      <point x="297" y="404" type="line"/>
      <point x="362" y="404" type="line"/>
      <point x="359" y="653" type="line"/>
      <point x="425" y="500" type="line"/>
      <point x="446" y="500" type="line"/>
      <point x="510" y="656" type="line"/>
      <point x="508" y="404" type="line"/>
      <point x="572" y="404" type="line"/>
    </contour>
  </outline>
</glyph>
<glyph name="minus" format="2">
  <advance width="614"/>
  <unicode hex="2212"/>
  <outline>
    <contour>
      <point x="62" y="272" type="line"/>
      <point x="551" y="272" type="line"/>
      <point x="551" y="388" type="line"/>
      <point x="62" y="388" type="line"/>
    </contour>
  </outline>
</glyph>
<glyph name="lighthorzbxd" format="2">
  <advance width="614"/>
  <unicode hex="2500"/>
  <outline>
    <contour>
      <point x="-20" y="258" type="line"/>
      <point x="634" y="258" type="line"/>
      <point x="634" y="402" type="line"/>
      <point x="-20" y="402" type="line"/>
    </contour>
  </outline>
</glyph>
<glyph name="heavyhorzbxd" format="2">
  <advance width="614"/>
  <unicode hex="2501"/>
  <outline>
    <contour>
      <point x="-20" y="222" type="line"/>
      <point x="634" y="222" type="line"/>
      <point x="634" y="438" type="line"/>
      <point x="-20" y="438" type="line"/>
    </contour>
  </outline>
</glyph>
<glyph name="heavyquaddashvertbxd" format="2">
  <advance width="614"/>
  <unicode hex="250B"/>
  <outline>
    <contour>
      <point x="199" y="611" type="line"/>
      <point x="415" y="611" type="line"/>
      <point x="415" y="799" type="line"/>
      <point x="199" y="799" type="line"/>
    </contour>
    <contour>
      <point x="199" y="361" type="line"/>
      <point x="415" y="361" type="line"/>
      <point x="415" y="549" type="line"/>
      <point x="199" y="549" type="line"/>
    </contour>
    <contour>
      <point x="199" y="111" type="line"/>
      <point x="415" y="111" type="line"/>
      <point x="415" y="299" type="line"/>
      <point x="199" y="299" type="line"/>
    </contour>
    <contour>
      <point x="199" y="-139" type="line"/>
      <point x="415" y="-139" type="line"/>
      <point x="415" y="49" type="line"/>
      <point x="199" y="49" type="line"/>
    </contour>
  </outline>
</glyph>
<glyph name="heavydnleftbxd" format="2">
  <advance width="614"/>
  <unicode hex="2513"/>
  <outline>
    <contour>
      <point x="-20" y="222" type="line"/>
      <point x="199" y="222" type="line"/>
      <point x="199" y="-420" type="line"/>
      <point x="415" y="-420" type="line"/>
      <point x="415" y="438" type="line"/>
      <point x="-20" y="438" type="line"/>
    </contour>
  </outline>
</glyph>
<glyph name="heavydbldashhorzbxd" format="2">
  <advance width="614"/>
  <unicode hex="254D"/>
  <outline>
    <contour>
      <point x="77" y="222" type="line"/>
      <point x="230" y="222" type="line"/>
      <point x="230" y="438" type="line"/>
      <point x="77" y="438" type="line"/>
    </contour>
    <contour>
      <point x="384" y="222" type="line"/>
      <point x="537" y="222" type="line"/>
      <point x="537" y="438" type="line"/>
      <point x="384" y="438" type="line"/>
    </contour>
  </outline>
</glyph>
<glyph name="heavydbldashvertbxd" format="2">
  <advance width="614"/>
  <unicode hex="254F"/>
  <outline>
    <contour>
      <point x="199" y="455" type="line"/>
      <point x="415" y="455" type="line"/>
      <point x="415" y="705" type="line"/>
      <point x="199" y="705" type="line"/>
    </contour>
    <contour>
      <point x="199" y="-45" type="line"/>
      <point x="415" y="-45" type="line"/>
      <point x="415" y="205" type="line"/>
      <point x="199" y="205" type="line"/>
    </contour>
  </outline>
</glyph>
<glyph name="dblupleftbxd" format="2">
  <advance width="614"/>
  <unicode hex="255D"/>
  <outline>
    <contour>
      <point x="-20" y="114" type="line"/>
      <point x="523" y="114" type="line"/>
      <point x="523" y="1080" type="line"/>
      <point x="379" y="1080" type="line"/>
      <point x="379" y="258" type="line"/>
      <point x="-20" y="258" type="line"/>
    </contour>
    <contour>
      <point x="-20" y="402" type="line"/>
      <point x="235" y="402" type="line"/>
      <point x="235" y="1080" type="line"/>
      <point x="91" y="1080" type="line"/>
      <point x="91" y="546" type="line"/>
      <point x="-20" y="546" type="line"/>
    </contour>
  </outline>
</glyph>
<glyph name="vertdblrightsngbxd" format="2">
  <advance width="614"/>
  <unicode hex="255F"/>
  <outline>
    <contour>
      <point x="91" y="-420" type="line"/>
      <point x="235" y="-420" type="line"/>
      <point x="235" y="1080" type="line"/>
      <point x="91" y="1080" type="line"/>
    </contour>
    <contour>
      <point x="379" y="-420" type="line"/>
      <point x="523" y="-420" type="line"/>
      <point x="523" y="258" type="line"/>
      <point x="634" y="258" type="line"/>
      <point x="634" y="402" type="line"/>
      <point x="523" y="402" type="line"/>
      <point x="523" y="1080" type="line"/>
      <point x="379" y="1080" type="line"/>
    </contour>
  </outline>
</glyph>
<glyph name="lightarcupleftbxd" format="2">
  <advance width="614"/>
  <unicode hex="256F"/>
  <outline>
    <contour>
      <point x="379" y="1080" type="line"/>
      <point x="235" y="1080" type="line"/>
      <point x="235" y="637" type="line" smooth="yes"/>
      <point x="235" y="475"/>
      <point x="162" y="402"/>
      <point x="0" y="402" type="curve" smooth="yes"/>
      <point x="-20" y="402" type="line"/>
      <point x="-20" y="258" type="line"/>
      <point x="0" y="258" type="line" smooth="yes"/>
      <point x="262" y="258"/>
      <point x="379" y="375"/>
      <point x="379" y="637" type="curve" smooth="yes"/>
    </contour>
  </outline>
</glyph>
<glyph name="heavydnbxd" format="2">
  <advance width="614"/>
  <unicode hex="257B"/>
  <outline>
    <contour>
      <point x="199" y="-420" type="line"/>
      <point x="415" y="-420" type="line"/>
      <point x="415" y="402" type="line"/>
      <point x="199" y="402" type="line"/>
    </contour>
  </outline>
</glyph>
<glyph name="leftseveneighthsblock" format="2">
  <advance width="614"/>
  <unicode hex="2589"/>
  <outline>
    <contour>
      <point x="0" y="-360" type="line"/>
      <point x="537" y="-360" type="line"/>
      <point x="537" y="1020" type="line"/>
      <point x="0" y="1020" type="line"/>
    </contour>
  </outline>
</glyph>
<glyph name="leftfiveeighthsblock" format="2">
  <advance width="614"/>
  <unicode hex="258B"/>
  <outline>
    <contour>
      <point x="0" y="-360" type="line"/>
      <point x="384" y="-360" type="line"/>
      <point x="384" y="1020" type="line"/>
      <point x="0" y="1020" type="line"/>
    </contour>
  </outline>
</glyph>
<glyph name="uni2610" format="2">
  <advance width="614"/>
  <unicode hex="2610"/>
  <outline>
    <contour>
      <point x="50" y="70" type="line"/>
      <point x="564" y="70" type="line"/>
      <point x="564" y="585" type="line"/>
      <point x="50" y="585" type="line"/>
    </contour>
    <contour>
      <point x="131" y="141" type="line"/>
      <point x="131" y="514" type="line"/>
      <point x="483" y="514" type="line"/>
      <point x="483" y="141" type="line"/>
    </contour>
  </outline>
</glyph>
<glyph name="ampersand_ampersand.liga" format="2">
  <advance width="614"/>
  <outline>
    <contour>
      <point x="-116" y="655" type="line"/>
      <point x="-186" y="666"/>
      <point x="-232" y="669"/>
      <point x="-263" y="669" type="curve" smooth="yes"/>
      <point x="-384" y="669"/>
      <point x="-456" y="595"/>
      <point x="-456" y="506" type="curve" smooth="yes"/>
      <point x="-456" y="459"/>
      <point x="-441" y="420"/>
      <point x="-406" y="365" type="curve"/>
      <point x="-528" y="324"/>
      <point x="-560" y="271"/>
      <point x="-560" y="171" type="curve" smooth="yes"/>
      <point x="-560" y="52"/>
      <point x="-489" y="-14"/>
      <point x="-380" y="-14" type="curve" smooth="yes"/>
      <point x="-301" y="-14"/>
      <point x="-258" y="8"/>
      <point x="-209" y="75" type="curve"/>
      <point x="-170" y="-1" type="line"/>
      <point x="-21" y="-1" type="line"/>
      <point x="-133" y="188" type="line"/>
      <point x="-42" y="373" type="line"/>
      <point x="-147" y="416" type="line"/>
      <point x="-205" y="289" type="line"/>
      <point x="-301" y="439" type="line" smooth="yes"/>
      <point x="-321" y="470"/>
      <point x="-326" y="487"/>
      <point x="-326" y="505" type="curve" smooth="yes"/>
      <point x="-326" y="539"/>
      <point x="-299" y="559"/>
      <point x="-251" y="559" type="curve" smooth="yes"/>
      <point x="-222" y="559"/>
      <point x="-188" y="556"/>
      <point x="-129" y="548" type="curve"/>
    </contour>
    <contour>
      <point x="478" y="655" type="line"/>
      <point x="408" y="666"/>
      <point x="362" y="669"/>
      <point x="331" y="669" type="curve" smooth="yes"/>
      <point x="210" y="669"/>
      <point x="138" y="595"/>
      <point x="138" y="506" type="curve" smooth="yes"/>
      <point x="138" y="459"/>
      <point x="153" y="420"/>
      <point x="188" y="365" type="curve"/>
      <point x="66" y="324"/>
      <point x="34" y="271"/>
      <point x="34" y="171" type="curve" smooth="yes"/>
      <point x="34" y="52"/>
      <point x="105" y="-14"/>
      <point x="214" y="-14" type="curve" smooth="yes"/>
      <point x="293" y="-14"/>
      <point x="336" y="8"/>
      <point x="385" y="75" type="curve"/>
      <point x="424" y="-1" type="line"/>
      <point x="573" y="-1" type="line"/>
      <point x="463" y="186" type="line"/>
      <point x="562" y="373" type="line"/>
      <point x="457" y="416" type="line"/>
      <point x="392" y="285" type="line"/>
      <point x="293" y="439" type="line" smooth="yes"/>
      <point x="273" y="470"/>
      <point x="268" y="487"/>
      <point x="268" y="505" type="curve" smooth="yes"/>
      <point x="268" y="539"/>
      <point x="295" y="559"/>
      <point x="343" y="559" type="curve" smooth="yes"/>
      <point x="372" y="559"/>
      <point x="406" y="556"/>
      <point x="465" y="548" type="curve"/>
    </contour>
    <contour>
      <point x="-430" y="188" type="curve" smooth="yes"/>
      <point x="-430" y="235"/>
      <point x="-421" y="260"/>
      <point x="-351" y="282" type="curve"/>
      <point x="-269" y="159" type="line"/>
      <point x="-297" y="112"/>
      <point x="-321" y="105"/>
      <point x="-356" y="105" type="curve" smooth="yes"/>
      <point x="-402" y="105"/>
      <point x="-430" y="130"/>
    </contour>
    <contour>
      <point x="164" y="188" type="curve" smooth="yes"/>
      <point x="164" y="235"/>
      <point x="173" y="260"/>
      <point x="243" y="282" type="curve"/>
      <point x="325" y="159" type="line"/>
      <point x="297" y="112"/>
      <point x="273" y="105"/>
      <point x="238" y="105" type="curve" smooth="yes"/>
      <point x="192" y="105"/>
      <point x="164" y="130"/>
    </contour>
  </outline>
</glyph>
<glyph name="asciitilde_asciitilde.liga" format="2">
  <advance width="614"/>
  <outline>
    <contour>
      <point x="31" y="272" type="curve" smooth="yes"/>
      <point x="83" y="307"/>
      <point x="96" y="313"/>
      <point x="115" y="313" type="curve" smooth="yes"/>
      <point x="133" y="313"/>
      <point x="148" y="308"/>
      <point x="215" y="265" type="curve" smooth="yes"/>
      <point x="295" y="214"/>
      <point x="317" y="202"/>
      <point x="347" y="202" type="curve" smooth="yes"/>
      <point x="393" y="202"/>
      <point x="438" y="229"/>
      <point x="519" y="400" type="curve"/>
      <point x="415" y="447" type="line"/>
      <point x="364" y="340"/>
      <point x="350" y="336"/>
      <point x="336" y="336" type="curve" smooth="yes"/>
      <point x="325" y="336"/>
      <point x="318" y="338"/>
      <point x="262" y="377" type="curve" smooth="yes"/>
      <point x="175" y="439"/>
      <point x="154" y="447"/>
      <point x="120" y="447" type="curve" smooth="yes"/>
      <point x="84" y="447"/>
      <point x="53" y="427"/>
      <point x="-21" y="377" type="curve" smooth="yes"/>
      <point x="-75" y="341"/>
      <point x="-90" y="336"/>
      <point x="-111" y="336" type="curve" smooth="yes"/>
      <point x="-129" y="336"/>
      <point x="-144" y="341"/>
      <point x="-211" y="384" type="curve" smooth="yes"/>
      <point x="-291" y="435"/>
      <point x="-313" y="447"/>
      <point x="-343" y="447" type="curve" smooth="yes"/>
      <point x="-389" y="447"/>
      <point x="-434" y="420"/>
      <point x="-515" y="249" type="curve"/>
      <point x="-411" y="202" type="line"/>
      <point x="-360" y="309"/>
      <point x="-346" y="313"/>
      <point x="-332" y="313" type="curve" smooth="yes"/>
      <point x="-321" y="313"/>
      <point x="-314" y="311"/>
      <point x="-258" y="272" type="curve" smooth="yes"/>
      <point x="-171" y="210"/>
      <point x="-150" y="202"/>
      <point x="-116" y="202" type="curve" smooth="yes"/>
      <point x="-79" y="202"/>
      <point x="-45" y="221"/>
    </contour>
  </outline>
</glyph>
<glyph name="asciitilde_hyphen.liga" format="2">
  <advance width="614"/>
  <outline>
    <contour>
      <point x="46" y="388" type="line" smooth="yes"/>
      <point x="-38" y="388"/>
      <point x="-73" y="352"/>
      <point x="-108" y="352" type="curve" smooth="yes"/>
      <point x="-136" y="352"/>
      <point x="-156" y="365"/>
      <point x="-189" y="390" type="curve" smooth="yes"/>
      <point x="-262" y="445"/>
      <point x="-281" y="460"/>
      <point x="-320" y="460" type="curve" smooth="yes"/>
      <point x="-388" y="460"/>
      <point x="-426" y="424"/>
      <point x="-480" y="226" type="curve"/>
      <point x="-369" y="196" type="line"/>
      <point x="-333" y="308"/>
      <point x="-323" y="326"/>
      <point x="-307" y="326" type="curve" smooth="yes"/>
      <point x="-295" y="326"/>
      <point x="-287" y="320"/>
      <point x="-237" y="282" type="curve" smooth="yes"/>
      <point x="-181" y="239"/>
      <point x="-151" y="227"/>
      <point x="-119" y="227" type="curve" smooth="yes"/>
      <point x="-59" y="227"/>
      <point x="-25" y="272"/>
      <point x="63" y="272" type="curve" smooth="yes"/>
      <point x="414" y="272" type="line"/>
      <point x="414" y="388" type="line"/>
    </contour>
  </outline>
</glyph>
<glyph name="backslash_slash.liga" format="2">
  <advance width="614"/>
  <outline>
    <contour>
      <point x="339" y="655" type="line"/>
      <point x="0" y="98" type="line"/>
      <point x="-339" y="655" type="line"/>
      <point x="-474" y="655" type="line"/>
      <point x="-76" y="0" type="line"/>
      <point x="76" y="0" type="line"/>
      <point x="474" y="655" type="line"/>
    </contour>
  </outline>
</glyph>
<glyph name="bracketright_numbersign.liga" format="2">
  <advance width="614"/>
  <outline>
    <contour>
      <point x="160" y="666" type="line"/>
      <point x="136" y="521" type="line"/>
      <point x="-144" y="521" type="line"/>
      <point x="-144" y="797" type="line"/>
      <point x="-535" y="797" type="line"/>
      <point x="-535" y="678" type="line"/>
      <point x="-289" y="678" type="line"/>
      <point x="-289" y="-28" type="line"/>
      <point x="-535" y="-28" type="line"/>
      <point x="-535" y="-148" type="line"/>
      <point x="-144" y="-148" type="line"/>
      <point x="-144" y="140" type="line"/>
      <point x="72" y="140" type="line"/>
      <point x="47" y="-12" type="line"/>
      <point x="136" y="-12" type="line"/>
      <point x="162" y="140" type="line"/>
      <point x="251" y="140" type="line"/>
      <point x="226" y="-12" type="line"/>
      <point x="316" y="-12" type="line"/>
      <point x="342" y="140" type="line"/>
      <point x="479" y="140" type="line"/>
      <point x="479" y="279" type="line"/>
      <point x="365" y="279" type="line"/>
      <point x="382" y="382" type="line"/>
      <point x="511" y="382" type="line"/>
      <point x="511" y="521" type="line"/>
      <point x="406" y="521" type="line"/>
      <point x="430" y="666" type="line"/>
      <point x="340" y="666" type="line"/>
      <point x="315" y="521" type="line"/>
      <point x="225" y="521" type="line"/>
      <point x="250" y="666" type="line"/>
    </contour>
    <contour>
      <point x="283" y="221" type="line"/>
      <point x="157" y="221" type="line"/>
      <point x="193" y="438" type="line"/>
      <point x="319" y="438" type="line"/>
    </contour>
    <contour>
      <point x="-144" y="269" type="line"/>
      <point x="-144" y="392" type="line"/>
      <point x="114" y="392" type="line"/>
      <point x="94" y="269" type="line"/>
    </contour>
  </outline>
</glyph>
<glyph name="brevecmb.cap" format="2">
  <anchor x="0" y="691" name="_aboveUC"/>
  <anchor x="0" y="661" name="_aboveUCx"/>
  <outline>
    <contour>
      <point x="0" y="826" type="curve" smooth="yes"/>
      <point x="-43" y="826"/>
      <point x="-87" y="846"/>
      <point x="-114" y="923" type="curve"/>
      <point x="-198" y="893" type="line"/>
      <point x="-166" y="773"/>
      <point x="-82" y="731"/>
      <point x="0" y="731" type="curve" smooth="yes"/>
      <point x="82" y="731"/>
      <point x="166" y="773"/>
      <point x="198" y="893" type="curve"/>
      <point x="114" y="923" type="line"/>
      <point x="88" y="847"/>
      <point x="43" y="826"/>
    </contour>
  </outline>
</glyph>
<glyph name="brevegrave" format="2">
  <anchor x="0" y="502" name="_aboveLC"/>
  <anchor x="0" y="472" name="_aboveLCx"/>
  <outline>
    <contour>
      <point x="69" y="823" type="line"/>
      <point x="-176" y="929" type="line"/>
      <point x="-215" y="837" type="line"/>
      <point x="35" y="746" type="line"/>
    </contour>
    <contour>
      <point x="0" y="648" type="curve" smooth="yes"/>
      <point x="-43" y="648"/>
      <point x="-87" y="668"/>
      <point x="-114" y="745" type="curve"/>
      <point x="-198" y="715" type="line"/>
      <point x="-166" y="595"/>
      <point x="-82" y="553"/>
      <point x="0" y="553" type="curve" smooth="yes"/>
      <point x="82" y="553"/>
      <point x="166" y="595"/>
      <point x="198" y="715" type="curve"/>
      <point x="114" y="745" type="line"/>
      <point x="88" y="669"/>
      <point x="43" y="648"/>
    </contour>
  </outline>
</glyph>
<glyph name="brevehook" format="2">
  <anchor x="0" y="502" name="_aboveLC"/>
  <anchor x="0" y="472" name="_aboveLCx"/>
  <outline>
    <contour>
      <point x="-50" y="742" type="line"/>
      <point x="98" y="767"/>
      <point x="150" y="812"/>
      <point x="150" y="861" type="curve" smooth="yes"/>
      <point x="150" y="903"/>
      <point x="112" y="925"/>
      <point x="-64" y="951" type="curve"/>
      <point x="-116" y="887" type="line"/>
      <point x="-116" y="885" type="line"/>
      <point x="11" y="868"/>
      <point x="26" y="858"/>
      <point x="26" y="845" type="curve" smooth="yes"/>
      <point x="26" y="832"/>
      <point x="12" y="822"/>
      <point x="-80" y="801" type="curve"/>
      <point x="-80" y="799" type="line"/>
    </contour>
    <contour>
      <point x="0" y="648" type="curve" smooth="yes"/>
      <point x="-43" y="648"/>
      <point x="-87" y="668"/>
      <point x="-114" y="745" type="curve"/>
      <point x="-198" y="715" type="line"/>
      <point x="-166" y="595"/>
      <point x="-82" y="553"/>
      <point x="0" y="553" type="curve" smooth="yes"/>
      <point x="82" y="553"/>
      <point x="166" y="595"/>
      <point x="198" y="715" type="curve"/>
      <point x="114" y="745" type="line"/>
      <point x="88" y="669"/>
      <point x="43" y="648"/>
    </contour>
  </outline>
</glyph>
<glyph name="caroncmb.cap" format="2">
  <anchor x="0" y="691" name="_aboveUC"/>
  <anchor x="0" y="661" name="_aboveUCx"/>
  <outline>
    <contour>
      <point x="200" y="850" type="line"/>
      <point x="159" y="920" type="line"/>
      <point x="1" y="836" type="line"/>
      <point x="-159" y="920" type="line"/>
      <point x="-199" y="850" type="line"/>
      <point x="-20" y="731" type="line"/>
      <point x="22" y="731" type="line"/>
    </contour>
  </outline>
</glyph>
<glyph name="dieresiscmb.cap" format="2">
  <anchor x="0" y="691" name="_aboveUC"/>
  <anchor x="0" y="661" name="_aboveUCx"/>
  <outline>
    <contour>
      <point x="-126" y="751" type="curve" smooth="yes"/>
      <point x="-80" y="751"/>
      <point x="-51" y="776"/>
      <point x="-51" y="822" type="curve" smooth="yes"/>
      <point x="-51" y="869"/>
      <point x="-77" y="894"/>
      <point x="-125" y="894" type="curve" smooth="yes"/>
      <point x="-171" y="894"/>
      <point x="-199" y="864"/>
      <point x="-199" y="822" type="curve" smooth="yes"/>
      <point x="-199" y="776"/>
      <point x="-172" y="751"/>
    </contour>
    <contour>
      <point x="124" y="751" type="curve" smooth="yes"/>
      <point x="170" y="751"/>
      <point x="199" y="776"/>
      <point x="199" y="822" type="curve" smooth="yes"/>
      <point x="199" y="869"/>
      <point x="173" y="894"/>
      <point x="125" y="894" type="curve" smooth="yes"/>
      <point x="79" y="894"/>
      <point x="51" y="864"/>
      <point x="51" y="822" type="curve" smooth="yes"/>
      <point x="51" y="776"/>
      <point x="78" y="751"/>
    </contour>
  </outline>
</glyph>
<glyph name="dieresisgrave" format="2">
  <anchor x="0" y="502" name="_aboveLC"/>
  <anchor x="0" y="472" name="_aboveLCx"/>
  <outline>
    <contour>
      <point x="105" y="800" type="line"/>
      <point x="-140" y="906" type="line"/>
      <point x="-179" y="814" type="line"/>
      <point x="71" y="723" type="line"/>
    </contour>
    <contour>
      <point x="-116" y="573" type="curve" smooth="yes"/>
      <point x="-70" y="573"/>
      <point x="-41" y="594"/>
      <point x="-41" y="634" type="curve" smooth="yes"/>
      <point x="-41" y="674"/>
      <point x="-67" y="696"/>
      <point x="-115" y="696" type="curve" smooth="yes"/>
      <point x="-161" y="696"/>
      <point x="-189" y="670"/>
      <point x="-189" y="634" type="curve" smooth="yes"/>
      <point x="-189" y="594"/>
      <point x="-162" y="573"/>
    </contour>
    <contour>
      <point x="114" y="573" type="curve" smooth="yes"/>
      <point x="160" y="573"/>
      <point x="189" y="594"/>
      <point x="189" y="634" type="curve" smooth="yes"/>
      <point x="189" y="674"/>
      <point x="163" y="696"/>
      <point x="115" y="696" type="curve" smooth="yes"/>
      <point x="69" y="696"/>
      <point x="41" y="670"/>
      <point x="41" y="634" type="curve" smooth="yes"/>
      <point x="41" y="594"/>
      <point x="68" y="573"/>
    </contour>
  </outline>
</glyph>
<glyph name="dieresismacron" format="2">
  <anchor x="0" y="502" name="_aboveLC"/>
  <anchor x="0" y="472" name="_aboveLCx"/>
  <outline>
    <contour>
      <point x="-171" y="761" type="line"/>
      <point x="171" y="761" type="line"/>
      <point x="171" y="859" type="line"/>
      <point x="-171" y="859" type="line"/>
    </contour>
    <contour>
      <point x="-116" y="573" type="curve" smooth="yes"/>
      <point x="-70" y="573"/>
      <point x="-41" y="594"/>
      <point x="-41" y="634" type="curve" smooth="yes"/>
      <point x="-41" y="674"/>
      <point x="-67" y="696"/>
      <point x="-115" y="696" type="curve" smooth="yes"/>
      <point x="-161" y="696"/>
      <point x="-189" y="670"/>
      <point x="-189" y="634" type="curve" smooth="yes"/>
      <point x="-189" y="594"/>
      <point x="-162" y="573"/>
    </contour>
    <contour>
      <point x="114" y="573" type="curve" smooth="yes"/>
      <point x="160" y="573"/>
      <point x="189" y="594"/>
      <point x="189" y="634" type="curve" smooth="yes"/>
      <point x="189" y="674"/>
      <point x="163" y="696"/>
      <point x="115" y="696" type="curve" smooth="yes"/>
      <point x="69" y="696"/>
      <point x="41" y="670"/>
      <point x="41" y="634" type="curve" smooth="yes"/>
      <point x="41" y="594"/>
      <point x="68" y="573"/>
    </contour>
  </outline>
</glyph>
<glyph name="dollar_greater.liga" format="2">
  <advance width="614"/>
  <outline>
    <contour>
      <point x="-257" y="-142" type="line"/>
      <point x="-257" y="4" type="line"/>
      <point x="-130" y="22"/>
      <point x="-67" y="97"/>
      <point x="-67" y="193" type="curve" smooth="yes"/>
      <point x="-67" y="297"/>
      <point x="-112" y="346"/>
      <point x="-229" y="380" type="curve" smooth="yes"/>
      <point x="-295" y="399" type="line" smooth="yes"/>
      <point x="-381" y="424"/>
      <point x="-395" y="445"/>
      <point x="-395" y="482" type="curve" smooth="yes"/>
      <point x="-395" y="515"/>
      <point x="-370" y="536"/>
      <point x="-299" y="536" type="curve" smooth="yes"/>
      <point x="-228" y="536"/>
      <point x="-144" y="521"/>
      <point x="-61" y="491" type="curve" smooth="yes"/>
      <point x="409" y="320" type="line"/>
      <point x="70" y="187" type="line"/>
      <point x="70" y="52" type="line"/>
      <point x="556" y="256" type="line"/>
      <point x="556" y="387" type="line"/>
      <point x="-16" y="601" type="line" smooth="yes"/>
      <point x="-105" y="634"/>
      <point x="-176" y="650"/>
      <point x="-257" y="654" type="curve"/>
      <point x="-257" y="796" type="line"/>
      <point x="-348" y="796" type="line"/>
      <point x="-348" y="652" type="line"/>
      <point x="-473" y="635"/>
      <point x="-539" y="559"/>
      <point x="-539" y="470" type="curve" smooth="yes"/>
      <point x="-539" y="373"/>
      <point x="-491" y="318"/>
      <point x="-378" y="283" type="curve" smooth="yes"/>
      <point x="-316" y="263" type="line" smooth="yes"/>
      <point x="-226" y="234"/>
      <point x="-212" y="220"/>
      <point x="-212" y="183" type="curve" smooth="yes"/>
      <point x="-212" y="143"/>
      <point x="-238" y="119"/>
      <point x="-316" y="119" type="curve" smooth="yes"/>
      <point x="-371" y="119"/>
      <point x="-440" y="134"/>
      <point x="-534" y="162" type="curve"/>
      <point x="-560" y="41" type="line"/>
      <point x="-482" y="18"/>
      <point x="-414" y="4"/>
      <point x="-348" y="1" type="curve"/>
      <point x="-348" y="-142" type="line"/>
    </contour>
  </outline>
</glyph>
<glyph name="equal_asciitilde.liga" format="2">
  <advance width="614"/>
  <outline>
    <contour>
      <point x="208" y="589" type="line"/>
      <point x="147" y="478"/>
      <point x="139" y="471"/>
      <point x="117" y="471" type="curve" smooth="yes"/>
      <point x="104" y="471"/>
      <point x="91" y="476"/>
      <point x="9" y="529" type="curve" smooth="yes"/>
      <point x="-75" y="583"/>
      <point x="-108" y="595"/>
      <point x="-131" y="595" type="curve" smooth="yes"/>
      <point x="-188" y="595"/>
      <point x="-220" y="577"/>
      <point x="-303" y="412" type="curve"/>
      <point x="-199" y="364" type="line"/>
      <point x="-144" y="465"/>
      <point x="-138" y="472"/>
      <point x="-118" y="472" type="curve" smooth="yes"/>
      <point x="-105" y="472"/>
      <point x="-92" y="467"/>
      <point x="-10" y="414" type="curve" smooth="yes"/>
      <point x="74" y="360"/>
      <point x="107" y="348"/>
      <point x="130" y="348" type="curve" smooth="yes"/>
      <point x="190" y="348"/>
      <point x="224" y="367"/>
      <point x="312" y="541" type="curve"/>
    </contour>
    <contour>
      <point x="198" y="296" type="line"/>
      <point x="143" y="195"/>
      <point x="137" y="188"/>
      <point x="117" y="188" type="curve" smooth="yes"/>
      <point x="104" y="188"/>
      <point x="91" y="193"/>
      <point x="9" y="246" type="curve" smooth="yes"/>
      <point x="-75" y="300"/>
      <point x="-108" y="312"/>
      <point x="-131" y="312" type="curve" smooth="yes"/>
      <point x="-191" y="312"/>
      <point x="-225" y="293"/>
      <point x="-313" y="119" type="curve"/>
      <point x="-209" y="71" type="line"/>
      <point x="-148" y="182"/>
      <point x="-140" y="189"/>
      <point x="-118" y="189" type="curve" smooth="yes"/>
      <point x="-105" y="189"/>
      <point x="-92" y="184"/>
      <point x="-10" y="131" type="curve" smooth="yes"/>
      <point x="74" y="77"/>
      <point x="107" y="65"/>
      <point x="130" y="65" type="curve" smooth="yes"/>
      <point x="187" y="65"/>
      <point x="219" y="83"/>
      <point x="302" y="248" type="curve"/>
    </contour>
  </outline>
</glyph>
<glyph name="equal_greater.end" format="2">
  <advance width="614"/>
  <outline>
    <contour>
      <point x="541" y="325" type="line"/>
      <point x="541" y="329" type="line"/>
      <point x="169" y="665" type="line"/>
      <point x="84" y="577" type="line"/>
      <point x="170" y="500" type="line"/>
      <point x="-624" y="500" type="line"/>
      <point x="-624" y="384" type="line"/>
      <point x="301" y="384" type="line"/>
      <point x="365" y="327" type="line"/>
      <point x="307" y="276" type="line"/>
      <point x="-624" y="276" type="line"/>
      <point x="-624" y="161" type="line"/>
      <point x="178" y="161" type="line"/>
      <point x="84" y="77" type="line"/>
      <point x="169" y="-11" type="line"/>
    </contour>
  </outline>
</glyph>
<glyph name="equal_greater_greater_equal.m" format="2">
  <advance width="614"/>
  <outline>
    <contour>
      <point x="15" y="665" type="line"/>
      <point x="-70" y="577" type="line"/>
      <point x="142" y="384" type="line"/>
      <point x="624" y="384" type="line"/>
      <point x="624" y="500" type="line"/>
      <point x="193" y="500" type="line"/>
    </contour>
    <contour>
      <point x="33" y="325" type="line"/>
      <point x="33" y="329" type="line"/>
      <point x="-339" y="665" type="line"/>
      <point x="-424" y="577" type="line"/>
      <point x="-338" y="500" type="line"/>
      <point x="-624" y="500" type="line"/>
      <point x="-624" y="384" type="line"/>
      <point x="-207" y="384" type="line"/>
      <point x="-143" y="327" type="line"/>
      <point x="-201" y="276" type="line"/>
      <point x="-624" y="276" type="line"/>
      <point x="-624" y="161" type="line"/>
      <point x="-330" y="161" type="line"/>
      <point x="-424" y="77" type="line"/>
      <point x="-339" y="-11" type="line"/>
    </contour>
    <contour>
      <point x="15" y="-11" type="line"/>
      <point x="201" y="161" type="line"/>
      <point x="624" y="161" type="line"/>
      <point x="624" y="276" type="line"/>
      <point x="146" y="276" type="line"/>
      <point x="-70" y="77" type="line"/>
    </contour>
  </outline>
</glyph>
<glyph name="equal_less_equal.middle" format="2">
  <advance width="614"/>
  <outline>
    <contour>
      <point x="-10" y="161" type="line"/>
      <point x="254" y="161" type="line"/>
      <point x="444" y="-11" type="line"/>
      <point x="529" y="77" type="line"/>
      <point x="435" y="161" type="line"/>
      <point x="624" y="161" type="line"/>
      <point x="624" y="276" type="line"/>
      <point x="306" y="276" type="line"/>
      <point x="248" y="327" type="line"/>
      <point x="312" y="384" type="line"/>
      <point x="624" y="384" type="line"/>
      <point x="624" y="500" type="line"/>
      <point x="443" y="500" type="line"/>
      <point x="529" y="577" type="line"/>
      <point x="444" y="665" type="line"/>
      <point x="261" y="500" type="line"/>
      <point x="-10" y="500" type="line"/>
      <point x="-10" y="384" type="line"/>
      <point x="133" y="384" type="line"/>
      <point x="72" y="329" type="line"/>
      <point x="72" y="325" type="line"/>
      <point x="126" y="276" type="line"/>
      <point x="-10" y="276" type="line"/>
    </contour>
  </outline>
</glyph>
<glyph name="exclam_asciitilde.liga" format="2">
  <advance width="614"/>
  <outline>
    <contour>
      <point x="198" y="296" type="line"/>
      <point x="143" y="195"/>
      <point x="137" y="188"/>
      <point x="117" y="188" type="curve" smooth="yes"/>
      <point x="104" y="188"/>
      <point x="92" y="193"/>
      <point x="16" y="242" type="curve"/>
      <point x="33" y="317" type="line"/>
      <point x="52" y="377" type="line"/>
      <point x="101" y="351"/>
      <point x="128" y="347"/>
      <point x="146" y="347" type="curve" smooth="yes"/>
      <point x="207" y="347"/>
      <point x="244" y="365"/>
      <point x="332" y="540" type="curve"/>
      <point x="228" y="588" type="line"/>
      <point x="163" y="471"/>
      <point x="152" y="465"/>
      <point x="128" y="465" type="curve" smooth="yes"/>
      <point x="115" y="465"/>
      <point x="105" y="468"/>
      <point x="84" y="479" type="curve"/>
      <point x="170" y="755" type="line"/>
      <point x="65" y="755" type="line"/>
      <point x="11" y="522" type="line"/>
      <point x="-83.0" y="585.0"/>
      <point x="-113.0" y="594.0"/>
      <point x="-141" y="594" type="curve" smooth="yes"/>
      <point x="-188" y="594"/>
      <point x="-220" y="576"/>
      <point x="-303" y="411" type="curve"/>
      <point x="-199" y="363" type="line"/>
      <point x="-144" y="464"/>
      <point x="-138" y="471"/>
      <point x="-118" y="471" type="curve" smooth="yes"/>
      <point x="-105" y="471"/>
      <point x="-92" y="466"/>
      <point x="-13" y="415" type="curve"/>
      <point x="-31" y="339" type="line"/>
      <point x="-49" y="281" type="line"/>
      <point x="-101" y="308"/>
      <point x="-128" y="312"/>
      <point x="-147" y="312" type="curve" smooth="yes"/>
      <point x="-208" y="312"/>
      <point x="-245" y="294"/>
      <point x="-333" y="119" type="curve"/>
      <point x="-229" y="71" type="line"/>
      <point x="-164" y="188"/>
      <point x="-153" y="194"/>
      <point x="-129" y="194" type="curve" smooth="yes"/>
      <point x="-120" y="194"/>
      <point x="-108" y="192"/>
      <point x="-82" y="179" type="curve"/>
      <point x="-170" y="-100" type="line"/>
      <point x="-63" y="-100" type="line"/>
      <point x="-9" y="135" type="line"/>
      <point x="76" y="80"/>
      <point x="107" y="65"/>
      <point x="140" y="65" type="curve" smooth="yes"/>
      <point x="187" y="65"/>
      <point x="219" y="83"/>
      <point x="302" y="248" type="curve"/>
    </contour>
  </outline>
</glyph>
<glyph name="five.den" format="2">
  <advance width="614"/>
  <outline>
    <contour>
      <point x="176" y="380" type="line"/>
      <point x="164" y="167" type="line"/>
      <point x="166" y="165" type="line"/>
      <point x="230" y="154" type="line"/>
      <point x="263" y="167"/>
      <point x="288" y="173"/>
      <point x="311" y="173" type="curve" smooth="yes"/>
      <point x="344" y="173"/>
      <point x="365" y="162"/>
      <point x="365" y="132" type="curve" smooth="yes"/>
      <point x="365" y="103"/>
      <point x="336" y="84"/>
      <point x="226" y="75" type="curve" smooth="yes"/>
      <point x="151" y="69" type="line"/>
      <point x="160" y="-10" type="line"/>
      <point x="231" y="-4" type="line" smooth="yes"/>
      <point x="395" y="10"/>
      <point x="455" y="56"/>
      <point x="455" y="133" type="curve" smooth="yes"/>
      <point x="455" y="205"/>
      <point x="402" y="246"/>
      <point x="334" y="246" type="curve" smooth="yes"/>
      <point x="299" y="246"/>
      <point x="270" y="241"/>
      <point x="244" y="224" type="curve"/>
      <point x="250" y="305" type="line"/>
      <point x="429" y="305" type="line"/>
      <point x="429" y="380" type="line"/>
    </contour>
  </outline>
</glyph>
<glyph name="greater_greater_hyphen.liga" format="2">
  <advance width="614"/>
  <outline>
    <contour>
      <point x="551" y="388" type="line"/>
      <point x="-407" y="388" type="line"/>
      <point x="-705" y="665" type="line"/>
      <point x="-790" y="577" type="line"/>
      <point x="-517" y="327" type="line"/>
      <point x="-790" y="77" type="line"/>
      <point x="-705" y="-11" type="line"/>
      <point x="-400" y="272" type="line"/>
      <point x="551" y="272" type="line"/>
    </contour>
    <contour>
      <point x="-687" y="325" type="line"/>
      <point x="-687" y="329" type="line"/>
      <point x="-1059" y="665" type="line"/>
      <point x="-1144" y="577" type="line"/>
      <point x="-863" y="327" type="line"/>
      <point x="-1144" y="77" type="line"/>
      <point x="-1059" y="-11" type="line"/>
    </contour>
  </outline>
</glyph>
<glyph name="greater_hyphen.liga" format="2">
  <advance width="614"/>
  <outline>
    <contour>
      <point x="551" y="388" type="line"/>
      <point x="-138" y="388" type="line"/>
      <point x="-445" y="665" type="line"/>
      <point x="-530" y="577" type="line"/>
      <point x="-249" y="327" type="line"/>
      <point x="-530" y="77" type="line"/>
      <point x="-445" y="-11" type="line"/>
      <point x="-132" y="272" type="line"/>
      <point x="551" y="272" type="line"/>
    </contour>
  </outline>
</glyph>
<glyph name="greater_hyphen_greater.liga" format="2">
  <advance width="614"/>
  <outline>
    <contour>
      <point x="541" y="325" type="line"/>
      <point x="541" y="329" type="line"/>
      <point x="169" y="665" type="line"/>
      <point x="84" y="577" type="line"/>
      <point x="296" y="388" type="line"/>
      <point x="-752" y="388" type="line"/>
      <point x="-1059" y="665" type="line"/>
      <point x="-1144" y="577" type="line"/>
      <point x="-863" y="327" type="line"/>
      <point x="-1144" y="77" type="line"/>
      <point x="-1059" y="-11" type="line"/>
      <point x="-746" y="272" type="line"/>
      <point x="303" y="272" type="line"/>
      <point x="84" y="77" type="line"/>
      <point x="169" y="-11" type="line"/>
    </contour>
  </outline>
</glyph>
<glyph name="hyphen.end" format="2">
  <advance width="614"/>
  <outline>
    <contour>
      <point x="-10" y="272" type="line"/>
      <point x="551" y="272" type="line"/>
      <point x="551" y="388" type="line"/>
      <point x="-10" y="388" type="line"/>
    </contour>
  </outline>
</glyph>
<glyph name="hyphen_asciitilde.liga" format="2">
  <advance width="614"/>
  <outline>
    <contour>
      <point x="-46" y="272" type="line" smooth="yes"/>
      <point x="38" y="272"/>
      <point x="73" y="308"/>
      <point x="108" y="308" type="curve" smooth="yes"/>
      <point x="136" y="308"/>
      <point x="156" y="295"/>
      <point x="189" y="270" type="curve" smooth="yes"/>
      <point x="262" y="215"/>
      <point x="281" y="200"/>
      <point x="320" y="200" type="curve" smooth="yes"/>
      <point x="388" y="200"/>
      <point x="426" y="236"/>
      <point x="480" y="434" type="curve"/>
      <point x="369" y="464" type="line"/>
      <point x="333" y="352"/>
      <point x="323" y="334"/>
      <point x="307" y="334" type="curve" smooth="yes"/>
      <point x="295" y="334"/>
      <point x="287" y="340"/>
      <point x="237" y="378" type="curve" smooth="yes"/>
      <point x="181" y="421"/>
      <point x="151" y="433"/>
      <point x="119" y="433" type="curve" smooth="yes"/>
      <point x="59" y="433"/>
      <point x="25" y="388"/>
      <point x="-63" y="388" type="curve" smooth="yes"/>
      <point x="-414" y="388" type="line"/>
      <point x="-414" y="272" type="line"/>
    </contour>
  </outline>
</glyph>
<glyph name="hyphen_greater_greater_hyphen.m" format="2">
  <advance width="614"/>
  <outline>
    <contour>
      <point x="28" y="325" type="line"/>
      <point x="28" y="329" type="line"/>
      <point x="-344" y="665" type="line"/>
      <point x="-429" y="577" type="line"/>
      <point x="-217" y="388" type="line"/>
      <point x="-834" y="388" type="line"/>
      <point x="-834" y="272" type="line"/>
      <point x="-210" y="272" type="line"/>
      <point x="-429" y="77" type="line"/>
      <point x="-344" y="-11" type="line"/>
    </contour>
    <contour>
      <point x="20" y="-11" type="line"/>
      <point x="325" y="272" type="line"/>
      <point x="834" y="272" type="line"/>
      <point x="834" y="388" type="line"/>
      <point x="318" y="388" type="line"/>
      <point x="20" y="665" type="line"/>
      <point x="-65" y="577" type="line"/>
      <point x="208" y="327" type="line"/>
      <point x="-65" y="77" type="line"/>
    </contour>
  </outline>
</glyph>
<glyph name="less_bar_bar_bar.liga" format="2">
  <advance width="614"/>
  <outline>
    <contour>
      <point x="-414" y="-129" type="line"/>
      <point x="-284" y="-129" type="line"/>
      <point x="-284" y="783" type="line"/>
      <point x="-414" y="783" type="line"/>
    </contour>
    <contour>
      <point x="2" y="-129" type="line"/>
      <point x="132" y="-129" type="line"/>
      <point x="132" y="783" type="line"/>
      <point x="2" y="783" type="line"/>
    </contour>
    <contour>
      <point x="-1470" y="256" type="line"/>
      <point x="-808" y="-129" type="line"/>
      <point x="-699" y="-129" type="line"/>
      <point x="-699" y="783" type="line"/>
      <point x="-808" y="783" type="line"/>
      <point x="-1470" y="387" type="line"/>
    </contour>
    <contour>
      <point x="-1346" y="323" type="line"/>
      <point x="-829" y="621" type="line"/>
      <point x="-829" y="33" type="line"/>
    </contour>
  </outline>
</glyph>
<glyph name="less_equal_greater.liga" format="2">
  <advance width="614"/>
  <outline>
    <contour>
      <point x="541" y="325" type="line"/>
      <point x="541" y="329" type="line"/>
      <point x="169" y="665" type="line"/>
      <point x="84" y="577" type="line"/>
      <point x="170" y="500" type="line"/>
      <point x="-785" y="500" type="line"/>
      <point x="-699" y="577" type="line"/>
      <point x="-784" y="665" type="line"/>
      <point x="-1156" y="329" type="line"/>
      <point x="-1156" y="325" type="line"/>
      <point x="-784" y="-11" type="line"/>
      <point x="-699" y="77" type="line"/>
      <point x="-793" y="161" type="line"/>
      <point x="178" y="161" type="line"/>
      <point x="84" y="77" type="line"/>
      <point x="169" y="-11" type="line"/>
    </contour>
    <contour>
      <point x="-922" y="276" type="line"/>
      <point x="-980" y="327" type="line"/>
      <point x="-916" y="384" type="line"/>
      <point x="301" y="384" type="line"/>
      <point x="365" y="327" type="line"/>
      <point x="307" y="276" type="line"/>
    </contour>
  </outline>
</glyph>
<glyph name="less_equal_less.liga" format="2">
  <advance width="614"/>
  <outline>
    <contour>
      <point x="312" y="384" type="line"/>
      <point x="529" y="577" type="line"/>
      <point x="444" y="665" type="line"/>
      <point x="261" y="500" type="line"/>
      <point x="-785" y="500" type="line"/>
      <point x="-699" y="577" type="line"/>
      <point x="-784" y="665" type="line"/>
      <point x="-1156" y="329" type="line"/>
      <point x="-1156" y="325" type="line"/>
      <point x="-784" y="-11" type="line"/>
      <point x="-699" y="77" type="line"/>
      <point x="-793" y="161" type="line"/>
      <point x="253" y="161" type="line"/>
      <point x="444" y="-11" type="line"/>
      <point x="529" y="77" type="line"/>
      <point x="305" y="276" type="line"/>
      <point x="-922" y="276" type="line"/>
      <point x="-980" y="327" type="line"/>
      <point x="-916" y="384" type="line"/>
    </contour>
  </outline>
</glyph>
<glyph name="less_hyphen_greater.liga" format="2">
  <advance width="614"/>
  <outline>
    <contour>
      <point x="541" y="325" type="line"/>
      <point x="541" y="329" type="line"/>
      <point x="169" y="665" type="line"/>
      <point x="84" y="577" type="line"/>
      <point x="302" y="383" type="line"/>
      <point x="-917" y="383" type="line"/>
      <point x="-699" y="577" type="line"/>
      <point x="-784" y="665" type="line"/>
      <point x="-1156" y="329" type="line"/>
      <point x="-1156" y="325" type="line"/>
      <point x="-784" y="-11" type="line"/>
      <point x="-699" y="77" type="line"/>
      <point x="-912" y="267" type="line"/>
      <point x="297" y="267" type="line"/>
      <point x="84" y="77" type="line"/>
      <point x="169" y="-11" type="line"/>
    </contour>
  </outline>
</glyph>
<glyph name="less_less_equal.start" format="2">
  <advance width="614"/>
  <outline>
    <contour>
      <point x="-813" y="325" type="line"/>
      <point x="-441" y="-11" type="line"/>
      <point x="-356" y="77" type="line"/>
      <point x="-450" y="161" type="line"/>
      <point x="624" y="161" type="line"/>
      <point x="624" y="276" type="line"/>
      <point x="-579" y="276" type="line"/>
      <point x="-637" y="327" type="line"/>
      <point x="-573" y="384" type="line"/>
      <point x="624" y="384" type="line"/>
      <point x="624" y="500" type="line"/>
      <point x="-442" y="500" type="line"/>
      <point x="-356" y="577" type="line"/>
      <point x="-441" y="665" type="line"/>
      <point x="-813" y="329" type="line"/>
    </contour>
    <contour>
      <point x="-1156" y="325" type="line"/>
      <point x="-794" y="-11" type="line"/>
      <point x="-709" y="77" type="line"/>
      <point x="-982" y="327" type="line"/>
      <point x="-709" y="577" type="line"/>
      <point x="-794" y="665" type="line"/>
      <point x="-1156" y="329" type="line"/>
    </contour>
  </outline>
</glyph>
<glyph name="less_less_hyphen.start" format="2">
  <advance width="614"/>
  <outline>
    <contour>
      <point x="-813" y="325" type="line"/>
      <point x="-441" y="-11" type="line"/>
      <point x="-356" y="77" type="line"/>
      <point x="-575" y="272" type="line"/>
      <point x="624" y="272" type="line"/>
      <point x="624" y="388" type="line"/>
      <point x="-568" y="388" type="line"/>
      <point x="-356" y="577" type="line"/>
      <point x="-441" y="665" type="line"/>
      <point x="-813" y="329" type="line"/>
    </contour>
    <contour>
      <point x="-1156" y="325" type="line"/>
      <point x="-794" y="-11" type="line"/>
      <point x="-709" y="77" type="line"/>
      <point x="-982" y="327" type="line"/>
      <point x="-709" y="577" type="line"/>
      <point x="-794" y="665" type="line"/>
      <point x="-1156" y="329" type="line"/>
    </contour>
  </outline>
</glyph>
<glyph name="middotcat" format="2">
  <advance width="614"/>
  <guideline x="84" y="783" angle="62.307692307692264" identifier="r86UeLUPm6"/>
  <outline>
    <contour>
      <point x="312" y="255" type="curve" smooth="yes"/>
      <point x="365" y="255"/>
      <point x="396" y="292"/>
      <point x="396" y="364" type="curve" smooth="yes"/>
      <point x="396" y="438"/>
      <point x="369" y="472"/>
      <point x="313" y="472" type="curve" smooth="yes"/>
      <point x="259" y="472"/>
      <point x="230" y="430"/>
      <point x="230" y="363" type="curve" smooth="yes"/>
      <point x="230" y="291"/>
      <point x="258" y="255"/>
    </contour>
  </outline>
</glyph>
<glyph name="nine.den" format="2">
  <advance width="614"/>
  <outline>
    <contour>
      <point x="352" y="47" type="line" smooth="yes"/>
      <point x="427" y="125"/>
      <point x="463" y="181"/>
      <point x="463" y="255" type="curve" smooth="yes"/>
      <point x="463" y="334"/>
      <point x="409" y="395"/>
      <point x="310" y="395" type="curve" smooth="yes"/>
      <point x="214" y="395"/>
      <point x="147" y="339"/>
      <point x="147" y="258" type="curve" smooth="yes"/>
      <point x="147" y="176"/>
      <point x="198" y="129"/>
      <point x="286" y="129" type="curve" smooth="yes"/>
      <point x="296" y="129"/>
      <point x="308" y="130"/>
      <point x="320" y="133" type="curve"/>
      <point x="306" y="115"/>
      <point x="289" y="96"/>
      <point x="269" y="77" type="curve" smooth="yes"/>
      <point x="189" y="1" type="line"/>
      <point x="189" y="0" type="line"/>
      <point x="306" y="0" type="line"/>
    </contour>
    <contour>
      <point x="369" y="253" type="curve" smooth="yes"/>
      <point x="369" y="235"/>
      <point x="365" y="216"/>
      <point x="357" y="197" type="curve"/>
      <point x="341" y="192"/>
      <point x="327" y="191"/>
      <point x="311" y="191" type="curve" smooth="yes"/>
      <point x="267" y="191"/>
      <point x="243" y="213"/>
      <point x="243" y="257" type="curve" smooth="yes"/>
      <point x="243" y="296"/>
      <point x="268" y="317"/>
      <point x="309" y="317" type="curve" smooth="yes"/>
      <point x="345" y="317"/>
      <point x="369" y="293"/>
    </contour>
  </outline>
</glyph>
<glyph name="numbersign.end" format="2">
  <advance width="614"/>
  <outline>
    <contour>
      <point x="-10" y="140" type="line"/>
      <point x="121" y="140" type="line"/>
      <point x="96" y="-12" type="line"/>
      <point x="185" y="-12" type="line"/>
      <point x="211" y="140" type="line"/>
      <point x="320" y="140" type="line"/>
      <point x="295" y="-12" type="line"/>
      <point x="385" y="-12" type="line"/>
      <point x="411" y="140" type="line"/>
      <point x="548" y="140" type="line"/>
      <point x="548" y="279" type="line"/>
      <point x="434" y="279" type="line"/>
      <point x="451" y="382" type="line"/>
      <point x="580" y="382" type="line"/>
      <point x="580" y="521" type="line"/>
      <point x="475" y="521" type="line"/>
      <point x="499" y="666" type="line"/>
      <point x="409" y="666" type="line"/>
      <point x="384" y="521" type="line"/>
      <point x="274" y="521" type="line"/>
      <point x="299" y="666" type="line"/>
      <point x="209" y="666" type="line"/>
      <point x="185" y="521" type="line"/>
      <point x="-10" y="521" type="line"/>
      <point x="-10" y="382" type="line"/>
      <point x="162" y="382" type="line"/>
      <point x="145" y="279" type="line"/>
      <point x="-10" y="279" type="line"/>
    </contour>
    <contour>
      <point x="352" y="221" type="line"/>
      <point x="206" y="221" type="line"/>
      <point x="242" y="438" type="line"/>
      <point x="388" y="438" type="line"/>
    </contour>
  </outline>
</glyph>
<glyph name="numbersign.start" format="2">
  <advance width="614"/>
  <outline>
    <contour>
      <point x="34" y="140" type="line"/>
      <point x="141" y="140" type="line"/>
      <point x="116" y="-12" type="line"/>
      <point x="205" y="-12" type="line"/>
      <point x="231" y="140" type="line"/>
      <point x="340" y="140" type="line"/>
      <point x="315" y="-12" type="line"/>
      <point x="405" y="-12" type="line"/>
      <point x="431" y="140" type="line"/>
      <point x="624" y="140" type="line"/>
      <point x="624" y="279" type="line"/>
      <point x="454" y="279" type="line"/>
      <point x="471" y="382" type="line"/>
      <point x="624" y="382" type="line"/>
      <point x="624" y="521" type="line"/>
      <point x="495" y="521" type="line"/>
      <point x="519" y="666" type="line"/>
      <point x="429" y="666" type="line"/>
      <point x="404" y="521" type="line"/>
      <point x="294" y="521" type="line"/>
      <point x="319" y="666" type="line"/>
      <point x="229" y="666" type="line"/>
      <point x="205" y="521" type="line"/>
      <point x="66" y="521" type="line"/>
      <point x="66" y="382" type="line"/>
      <point x="182" y="382" type="line"/>
      <point x="165" y="279" type="line"/>
      <point x="34" y="279" type="line"/>
    </contour>
    <contour>
      <point x="372" y="221" type="line"/>
      <point x="226" y="221" type="line"/>
      <point x="262" y="438" type="line"/>
      <point x="408" y="438" type="line"/>
    </contour>
  </outline>
</glyph>
<glyph name="numbersign_braceleft.liga" format="2">
  <advance width="614"/>
  <outline>
    <contour>
      <point x="163" y="-3" type="curve" smooth="yes"/>
      <point x="163" y="-57"/>
      <point x="193" y="-92"/>
      <point x="307" y="-110" type="curve" smooth="yes"/>
      <point x="558" y="-148" type="line"/>
      <point x="576" y="-27" type="line"/>
      <point x="359" y="4" type="line" smooth="yes"/>
      <point x="336" y="8"/>
      <point x="329" y="14"/>
      <point x="329" y="26" type="curve" smooth="yes"/>
      <point x="329" y="32"/>
      <point x="333" y="41"/>
      <point x="353" y="61" type="curve" smooth="yes"/>
      <point x="401" y="110" type="line" smooth="yes"/>
      <point x="446" y="156"/>
      <point x="455" y="175"/>
      <point x="455" y="197" type="curve" smooth="yes"/>
      <point x="455" y="238"/>
      <point x="437" y="273"/>
      <point x="173" y="321" type="curve"/>
      <point x="173" y="341" type="line"/>
      <point x="438" y="389"/>
      <point x="455" y="424"/>
      <point x="455" y="465" type="curve" smooth="yes"/>
      <point x="455" y="487"/>
      <point x="446" y="506"/>
      <point x="401" y="552" type="curve" smooth="yes"/>
      <point x="353" y="601" type="line" smooth="yes"/>
      <point x="333" y="622"/>
      <point x="329" y="630"/>
      <point x="329" y="636" type="curve" smooth="yes"/>
      <point x="329" y="648"/>
      <point x="336" y="654"/>
      <point x="359" y="658" type="curve" smooth="yes"/>
      <point x="576" y="689" type="line"/>
      <point x="558" y="810" type="line"/>
      <point x="307" y="772" type="line" smooth="yes"/>
      <point x="193" y="754"/>
      <point x="163" y="719"/>
      <point x="163" y="665" type="curve" smooth="yes"/>
      <point x="163" y="634"/>
      <point x="180" y="609"/>
      <point x="226" y="565" type="curve" smooth="yes"/>
      <point x="258" y="535"/>
      <point x="265" y="524"/>
      <point x="265" y="521" type="curve"/>
      <point x="-72" y="521" type="line"/>
      <point x="-48" y="666" type="line"/>
      <point x="-138" y="666" type="line"/>
      <point x="-163" y="521" type="line"/>
      <point x="-253" y="521" type="line"/>
      <point x="-228" y="666" type="line"/>
      <point x="-318" y="666" type="line"/>
      <point x="-342" y="521" type="line"/>
      <point x="-481" y="521" type="line"/>
      <point x="-481" y="382" type="line"/>
      <point x="-365" y="382" type="line"/>
      <point x="-382" y="279" type="line"/>
      <point x="-513" y="279" type="line"/>
      <point x="-513" y="140" type="line"/>
      <point x="-406" y="140" type="line"/>
      <point x="-431" y="-12" type="line"/>
      <point x="-342" y="-12" type="line"/>
      <point x="-316" y="140" type="line"/>
      <point x="-227" y="140" type="line"/>
      <point x="-252" y="-12" type="line"/>
      <point x="-162" y="-12" type="line"/>
      <point x="-136" y="140" type="line"/>
      <point x="266" y="140" type="line"/>
      <point x="255" y="129"/>
      <point x="239.32" y="112.653"/>
      <point x="226" y="99" type="curve" smooth="yes"/>
      <point x="182" y="54"/>
      <point x="163" y="28"/>
    </contour>
    <contour>
      <point x="-195" y="221" type="line"/>
      <point x="-321" y="221" type="line"/>
      <point x="-285" y="438" type="line"/>
      <point x="-159" y="438" type="line"/>
    </contour>
    <contour>
      <point x="52" y="371" type="curve"/>
      <point x="52" y="291" type="line"/>
      <point x="124" y="274"/>
      <point x="175" y="260"/>
      <point x="212" y="249" type="curve"/>
      <point x="-118" y="249" type="line"/>
      <point x="-91" y="412" type="line"/>
      <point x="210" y="412" type="line"/>
      <point x="174" y="401"/>
      <point x="123" y="388"/>
    </contour>
  </outline>
</glyph>
<glyph name="numbersign_bracketleft.liga" format="2">
  <advance width="614"/>
  <outline>
    <contour>
      <point x="-513" y="140" type="line"/>
      <point x="-406" y="140" type="line"/>
      <point x="-431" y="-12" type="line"/>
      <point x="-342" y="-12" type="line"/>
      <point x="-316" y="140" type="line"/>
      <point x="-227" y="140" type="line"/>
      <point x="-252" y="-12" type="line"/>
      <point x="-162" y="-12" type="line"/>
      <point x="-136" y="140" type="line"/>
      <point x="144" y="140" type="line"/>
      <point x="144" y="-148" type="line"/>
      <point x="535" y="-148" type="line"/>
      <point x="535" y="-28" type="line"/>
      <point x="289" y="-28" type="line"/>
      <point x="289" y="678" type="line"/>
      <point x="535" y="678" type="line"/>
      <point x="535" y="797" type="line"/>
      <point x="144" y="797" type="line"/>
      <point x="144" y="521" type="line"/>
      <point x="-72" y="521" type="line"/>
      <point x="-48" y="666" type="line"/>
      <point x="-138" y="666" type="line"/>
      <point x="-163" y="521" type="line"/>
      <point x="-253" y="521" type="line"/>
      <point x="-228" y="666" type="line"/>
      <point x="-318" y="666" type="line"/>
      <point x="-342" y="521" type="line"/>
      <point x="-481" y="521" type="line"/>
      <point x="-481" y="382" type="line"/>
      <point x="-365" y="382" type="line"/>
      <point x="-382" y="279" type="line"/>
      <point x="-513" y="279" type="line"/>
    </contour>
    <contour>
      <point x="-195" y="221" type="line"/>
      <point x="-321" y="221" type="line"/>
      <point x="-285" y="438" type="line"/>
      <point x="-159" y="438" type="line"/>
    </contour>
    <contour>
      <point x="-115" y="269" type="line"/>
      <point x="-94" y="392" type="line"/>
      <point x="144" y="392" type="line"/>
      <point x="144" y="269" type="line"/>
    </contour>
  </outline>
</glyph>
<glyph name="numbersign_colon.liga" format="2">
  <advance width="614"/>
  <outline>
    <contour>
      <point x="-491" y="140" type="line"/>
      <point x="-384" y="140" type="line"/>
      <point x="-409" y="-12" type="line"/>
      <point x="-320" y="-12" type="line"/>
      <point x="-294" y="140" type="line"/>
      <point x="-205" y="140" type="line"/>
      <point x="-230" y="-12" type="line"/>
      <point x="-140" y="-12" type="line"/>
      <point x="-114" y="140" type="line"/>
      <point x="23" y="140" type="line"/>
      <point x="23" y="279" type="line"/>
      <point x="-91" y="279" type="line"/>
      <point x="-74" y="382" type="line"/>
      <point x="55" y="382" type="line"/>
      <point x="55" y="521" type="line"/>
      <point x="-50" y="521" type="line"/>
      <point x="-26" y="666" type="line"/>
      <point x="-116" y="666" type="line"/>
      <point x="-141" y="521" type="line"/>
      <point x="-231" y="521" type="line"/>
      <point x="-206" y="666" type="line"/>
      <point x="-296" y="666" type="line"/>
      <point x="-320" y="521" type="line"/>
      <point x="-459" y="521" type="line"/>
      <point x="-459" y="382" type="line"/>
      <point x="-343" y="382" type="line"/>
      <point x="-360" y="279" type="line"/>
      <point x="-491" y="279" type="line"/>
    </contour>
    <contour>
      <point x="315" y="383" type="curve" smooth="yes"/>
      <point x="394" y="383"/>
      <point x="439" y="416"/>
      <point x="439" y="483" type="curve" smooth="yes"/>
      <point x="439" y="551"/>
      <point x="400" y="582"/>
      <point x="316" y="582" type="curve" smooth="yes"/>
      <point x="235" y="582"/>
      <point x="193" y="544"/>
      <point x="193" y="482" type="curve" smooth="yes"/>
      <point x="193" y="415"/>
      <point x="236" y="383"/>
    </contour>
    <contour>
      <point x="-173" y="221" type="line"/>
      <point x="-299" y="221" type="line"/>
      <point x="-263" y="438" type="line"/>
      <point x="-137" y="438" type="line"/>
    </contour>
    <contour>
      <point x="315" y="76" type="curve" smooth="yes"/>
      <point x="394" y="76"/>
      <point x="439" y="110"/>
      <point x="439" y="176" type="curve" smooth="yes"/>
      <point x="439" y="244"/>
      <point x="400" y="276"/>
      <point x="316" y="276" type="curve" smooth="yes"/>
      <point x="235" y="276"/>
      <point x="193" y="237"/>
      <point x="193" y="176" type="curve" smooth="yes"/>
      <point x="193" y="109"/>
      <point x="236" y="76"/>
    </contour>
  </outline>
</glyph>
<glyph name="numbersign_equal.liga" format="2">
  <advance width="614"/>
  <outline>
    <contour>
      <point x="-580" y="161" type="line"/>
      <point x="-469" y="161" type="line"/>
      <point x="-498" y="-12" type="line"/>
      <point x="-409" y="-12" type="line"/>
      <point x="-380" y="161" type="line"/>
      <point x="-290" y="161" type="line"/>
      <point x="-319" y="-12" type="line"/>
      <point x="-229" y="-12" type="line"/>
      <point x="-200" y="161" type="line"/>
      <point x="-36" y="161" type="line"/>
      <point x="-36" y="276" type="line"/>
      <point x="-181" y="276" type="line"/>
      <point x="-162" y="384" type="line"/>
      <point x="-44" y="384" type="line"/>
      <point x="-44" y="500" type="line"/>
      <point x="-143" y="500" type="line"/>
      <point x="-115" y="666" type="line"/>
      <point x="-205" y="666" type="line"/>
      <point x="-233" y="500" type="line"/>
      <point x="-323" y="500" type="line"/>
      <point x="-295" y="666" type="line"/>
      <point x="-385" y="666" type="line"/>
      <point x="-413" y="500" type="line"/>
      <point x="-548" y="500" type="line"/>
      <point x="-548" y="384" type="line"/>
      <point x="-432" y="384" type="line"/>
      <point x="-450" y="276" type="line"/>
      <point x="-580" y="276" type="line"/>
    </contour>
    <contour>
      <point x="81" y="384" type="line"/>
      <point x="533" y="384" type="line"/>
      <point x="533" y="500" type="line"/>
      <point x="81" y="500" type="line"/>
    </contour>
    <contour>
      <point x="-262" y="221" type="line"/>
      <point x="-388" y="221" type="line"/>
      <point x="-352" y="438" type="line"/>
      <point x="-226" y="438" type="line"/>
    </contour>
    <contour>
      <point x="81" y="161" type="line"/>
      <point x="533" y="161" type="line"/>
      <point x="533" y="276" type="line"/>
      <point x="81" y="276" type="line"/>
    </contour>
  </outline>
</glyph>
<glyph name="numbersign_parenleft.liga" format="2">
  <advance width="614"/>
  <outline>
    <contour>
      <point x="-513" y="140" type="line"/>
      <point x="-406" y="140" type="line"/>
      <point x="-431" y="-12" type="line"/>
      <point x="-342" y="-12" type="line"/>
      <point x="-316" y="140" type="line"/>
      <point x="-227" y="140" type="line"/>
      <point x="-252" y="-12" type="line"/>
      <point x="-162" y="-12" type="line"/>
      <point x="-136" y="140" type="line"/>
      <point x="137" y="140" type="line"/>
      <point x="195" y="34"/>
      <point x="305" y="-64"/>
      <point x="466" y="-151" type="curve"/>
      <point x="545" y="-60" type="line"/>
      <point x="305" y="66"/>
      <point x="235" y="192"/>
      <point x="235" y="329" type="curve" smooth="yes"/>
      <point x="235" y="466"/>
      <point x="305" y="592"/>
      <point x="545" y="718" type="curve"/>
      <point x="466" y="809" type="line"/>
      <point x="308" y="724"/>
      <point x="199" y="626"/>
      <point x="141" y="521" type="curve"/>
      <point x="-72" y="521" type="line"/>
      <point x="-48" y="666" type="line"/>
      <point x="-138" y="666" type="line"/>
      <point x="-163" y="521" type="line"/>
      <point x="-253" y="521" type="line"/>
      <point x="-228" y="666" type="line"/>
      <point x="-318" y="666" type="line"/>
      <point x="-342" y="521" type="line"/>
      <point x="-481" y="521" type="line"/>
      <point x="-481" y="382" type="line"/>
      <point x="-365" y="382" type="line"/>
      <point x="-382" y="279" type="line"/>
      <point x="-513" y="279" type="line"/>
    </contour>
    <contour>
      <point x="-195" y="221" type="line"/>
      <point x="-321" y="221" type="line"/>
      <point x="-285" y="438" type="line"/>
      <point x="-159" y="438" type="line"/>
    </contour>
    <contour>
      <point x="88" y="326" type="curve" smooth="yes"/>
      <point x="88" y="307"/>
      <point x="89" y="288"/>
      <point x="92" y="269" type="curve"/>
      <point x="-115" y="269" type="line"/>
      <point x="-94" y="392" type="line"/>
      <point x="94" y="392" type="line"/>
      <point x="90" y="370"/>
      <point x="88" y="348"/>
    </contour>
  </outline>
</glyph>
<glyph name="numbersign_underscore.liga" format="2">
  <advance width="614"/>
  <outline>
    <contour>
      <point x="-6" y="279" type="line"/>
      <point x="-120" y="279" type="line"/>
      <point x="-103" y="382" type="line"/>
      <point x="26" y="382" type="line"/>
      <point x="26" y="521" type="line"/>
      <point x="-79" y="521" type="line"/>
      <point x="-55" y="666" type="line"/>
      <point x="-145" y="666" type="line"/>
      <point x="-170" y="521" type="line"/>
      <point x="-260" y="521" type="line"/>
      <point x="-235" y="666" type="line"/>
      <point x="-325" y="666" type="line"/>
      <point x="-349" y="521" type="line"/>
      <point x="-488" y="521" type="line"/>
      <point x="-488" y="382" type="line"/>
      <point x="-372" y="382" type="line"/>
      <point x="-389" y="279" type="line"/>
      <point x="-520" y="279" type="line"/>
      <point x="-520" y="140" type="line"/>
      <point x="-413" y="140" type="line"/>
      <point x="-438" y="-12" type="line"/>
      <point x="-349" y="-12" type="line"/>
      <point x="-323" y="140" type="line"/>
      <point x="-234" y="140" type="line"/>
      <point x="-284" y="-161" type="line"/>
      <point x="536" y="-161" type="line"/>
      <point x="536" y="-26" type="line"/>
      <point x="-171" y="-26" type="line"/>
      <point x="-143" y="140" type="line"/>
      <point x="-6" y="140" type="line"/>
    </contour>
    <contour>
      <point x="-202" y="221" type="line"/>
      <point x="-328" y="221" type="line"/>
      <point x="-292" y="438" type="line"/>
      <point x="-166" y="438" type="line"/>
    </contour>
  </outline>
</glyph>
<glyph name="numbersign_underscore_parenleft" format="2">
  <advance width="614"/>
  <outline>
    <contour>
      <point x="98" y="326" type="curve" smooth="yes"/>
      <point x="98" y="199"/>
      <point x="160" y="84"/>
      <point x="284" y="-26" type="curve"/>
      <point x="-787" y="-26" type="line"/>
      <point x="-759" y="140" type="line"/>
      <point x="-622" y="140" type="line"/>
      <point x="-622" y="279" type="line"/>
      <point x="-736" y="279" type="line"/>
      <point x="-719" y="382" type="line"/>
      <point x="-590" y="382" type="line"/>
      <point x="-590" y="521" type="line"/>
      <point x="-695" y="521" type="line"/>
      <point x="-671" y="666" type="line"/>
      <point x="-761" y="666" type="line"/>
      <point x="-786" y="521" type="line"/>
      <point x="-876" y="521" type="line"/>
      <point x="-851" y="666" type="line"/>
      <point x="-941" y="666" type="line"/>
      <point x="-965" y="521" type="line"/>
      <point x="-1104" y="521" type="line"/>
      <point x="-1104" y="382" type="line"/>
      <point x="-988" y="382" type="line"/>
      <point x="-1005" y="279" type="line"/>
      <point x="-1136" y="279" type="line"/>
      <point x="-1136" y="140" type="line"/>
      <point x="-1029" y="140" type="line"/>
      <point x="-1054" y="-12" type="line"/>
      <point x="-965" y="-12" type="line"/>
      <point x="-939" y="140" type="line"/>
      <point x="-850" y="140" type="line"/>
      <point x="-900" y="-161" type="line"/>
      <point x="465" y="-161" type="line"/>
      <point x="467" y="-161" type="line"/>
      <point x="555" y="-60" type="line"/>
      <point x="315" y="66"/>
      <point x="245" y="192"/>
      <point x="245" y="329" type="curve" smooth="yes"/>
      <point x="245" y="466"/>
      <point x="315" y="592"/>
      <point x="555" y="718" type="curve"/>
      <point x="476" y="809" type="line"/>
      <point x="223" y="673"/>
      <point x="98" y="505"/>
    </contour>
    <contour>
      <point x="-818" y="221" type="line"/>
      <point x="-944" y="221" type="line"/>
      <point x="-908" y="438" type="line"/>
      <point x="-782" y="438" type="line"/>
    </contour>
  </outline>
</glyph>
<glyph name="question_equal.liga" format="2">
  <advance width="614"/>
  <outline>
    <contour>
      <point x="-216" y="277" type="line"/>
      <point x="-203" y="336"/>
      <point x="-200" y="344"/>
      <point x="-164" y="361" type="curve" smooth="yes"/>
      <point x="-100" y="391" type="line" smooth="yes"/>
      <point x="-18" y="430"/>
      <point x="25" y="465"/>
      <point x="25" y="546" type="curve" smooth="yes"/>
      <point x="25" y="651"/>
      <point x="-32" y="725"/>
      <point x="-200" y="725" type="curve" smooth="yes"/>
      <point x="-279" y="725"/>
      <point x="-342" y="719"/>
      <point x="-468" y="692" type="curve"/>
      <point x="-446" y="567" type="line"/>
      <point x="-334" y="596"/>
      <point x="-264" y="605"/>
      <point x="-214" y="605" type="curve" smooth="yes"/>
      <point x="-149" y="605"/>
      <point x="-123" y="582"/>
      <point x="-123" y="546" type="curve" smooth="yes"/>
      <point x="-123" y="519"/>
      <point x="-135" y="509"/>
      <point x="-202" y="478" type="curve" smooth="yes"/>
      <point x="-269" y="447" type="line" smooth="yes"/>
      <point x="-320" y="423"/>
      <point x="-334" y="405"/>
      <point x="-334" y="378" type="curve" smooth="yes"/>
      <point x="-334" y="357"/>
      <point x="-330" y="336"/>
      <point x="-314" y="277" type="curve"/>
    </contour>
    <contour>
      <point x="121" y="384" type="line"/>
      <point x="533" y="384" type="line"/>
      <point x="533" y="500" type="line"/>
      <point x="121" y="500" type="line"/>
    </contour>
    <contour>
      <point x="21" y="161" type="line"/>
      <point x="533" y="161" type="line"/>
      <point x="533" y="276" type="line"/>
      <point x="21" y="276" type="line"/>
    </contour>
    <contour>
      <point x="-272" y="-15" type="curve" smooth="yes"/>
      <point x="-185" y="-15"/>
      <point x="-150" y="13"/>
      <point x="-150" y="73" type="curve" smooth="yes"/>
      <point x="-150" y="132"/>
      <point x="-177" y="161"/>
      <point x="-270" y="161" type="curve" smooth="yes"/>
      <point x="-363" y="161"/>
      <point x="-392" y="128"/>
      <point x="-392" y="73" type="curve" smooth="yes"/>
      <point x="-392" y="14"/>
      <point x="-362" y="-15"/>
    </contour>
  </outline>
</glyph>
<glyph name="six.den" format="2">
  <advance width="614"/>
  <outline>
    <contour>
      <point x="466" y="122" type="curve" smooth="yes"/>
      <point x="466" y="204"/>
      <point x="415" y="251"/>
      <point x="327" y="251" type="curve" smooth="yes"/>
      <point x="317" y="251"/>
      <point x="305" y="250"/>
      <point x="293" y="247" type="curve"/>
      <point x="307" y="265"/>
      <point x="324" y="284"/>
      <point x="344" y="303" type="curve" smooth="yes"/>
      <point x="424" y="379" type="line"/>
      <point x="424" y="380" type="line"/>
      <point x="307" y="380" type="line"/>
      <point x="261" y="333" type="line" smooth="yes"/>
      <point x="186" y="255"/>
      <point x="150" y="199"/>
      <point x="150" y="125" type="curve" smooth="yes"/>
      <point x="150" y="46"/>
      <point x="204" y="-15"/>
      <point x="303" y="-15" type="curve" smooth="yes"/>
      <point x="399" y="-15"/>
      <point x="466" y="41"/>
    </contour>
    <contour>
      <point x="244" y="127" type="curve" smooth="yes"/>
      <point x="244" y="145"/>
      <point x="248" y="164"/>
      <point x="256" y="183" type="curve"/>
      <point x="272" y="188"/>
      <point x="286" y="189"/>
      <point x="302" y="189" type="curve" smooth="yes"/>
      <point x="346" y="189"/>
      <point x="370" y="167"/>
      <point x="370" y="123" type="curve" smooth="yes"/>
      <point x="370" y="84"/>
      <point x="345" y="63"/>
      <point x="304" y="63" type="curve" smooth="yes"/>
      <point x="268" y="63"/>
      <point x="244" y="87"/>
    </contour>
  </outline>
</glyph>
<glyph name="three.den" format="2">
  <advance width="614"/>
  <outline>
    <contour>
      <point x="163" y="303" type="line"/>
      <point x="326" y="303" type="line"/>
      <point x="326" y="301" type="line"/>
      <point x="227" y="204" type="line"/>
      <point x="244" y="157" type="line"/>
      <point x="272" y="162"/>
      <point x="292" y="164"/>
      <point x="307" y="164" type="curve" smooth="yes"/>
      <point x="355" y="164"/>
      <point x="376" y="149"/>
      <point x="376" y="127" type="curve" smooth="yes"/>
      <point x="376" y="99"/>
      <point x="345" y="83"/>
      <point x="247" y="76" type="curve" smooth="yes"/>
      <point x="166" y="70" type="line"/>
      <point x="174" y="-10" type="line"/>
      <point x="256" y="-5" type="line" smooth="yes"/>
      <point x="410" y="4"/>
      <point x="469" y="53"/>
      <point x="469" y="127" type="curve" smooth="yes"/>
      <point x="469" y="177"/>
      <point x="439" y="225"/>
      <point x="354" y="233" type="curve"/>
      <point x="354" y="235" type="line"/>
      <point x="442" y="319" type="line"/>
      <point x="442" y="380" type="line"/>
      <point x="163" y="380" type="line"/>
    </contour>
  </outline>
</glyph>
<glyph name="underscore.middle" format="2">
  <advance width="614"/>
  <outline>
    <contour>
      <point x="-10" y="-26" type="line"/>
      <point x="-10" y="-142" type="line"/>
      <point x="624" y="-142" type="line"/>
      <point x="624" y="-26" type="line"/>
    </contour>
  </outline>
</glyph>
<glyph name="zero.den" format="2">
  <advance width="614"/>
  <outline>
    <contour>
      <point x="468" y="191" type="curve" smooth="yes"/>
      <point x="468" y="332"/>
      <point x="411" y="395"/>
      <point x="308" y="395" type="curve" smooth="yes"/>
      <point x="204" y="395"/>
      <point x="146" y="331"/>
      <point x="146" y="190" type="curve" smooth="yes"/>
      <point x="146" y="48"/>
      <point x="203" y="-15"/>
      <point x="306" y="-15" type="curve" smooth="yes"/>
      <point x="410" y="-15"/>
      <point x="468" y="50"/>
    </contour>
    <contour>
      <point x="235" y="191" type="curve" smooth="yes"/>
      <point x="235" y="285"/>
      <point x="256" y="310"/>
      <point x="307" y="310" type="curve" smooth="yes"/>
      <point x="336" y="310"/>
      <point x="355" y="302"/>
      <point x="366" y="279" type="curve"/>
      <point x="236" y="157" type="line"/>
      <point x="235" y="167"/>
      <point x="235" y="179"/>
    </contour>
    <contour>
      <point x="379" y="190" type="curve" smooth="yes"/>
      <point x="379" y="95"/>
      <point x="358" y="69"/>
      <point x="307" y="69" type="curve" smooth="yes"/>
      <point x="278" y="69"/>
      <point x="259" y="77"/>
      <point x="248" y="102" type="curve"/>
      <point x="378" y="224" type="line"/>
      <point x="379" y="214"/>
      <point x="379" y="203"/>
    </contour>
  </outline>
</glyph>
